G04*
G04 #@! TF.GenerationSoftware,Altium Limited,Altium Designer,26.10.1 (5)*
G04*
G04 Layer_Color=65535*
G04 Board_Origin=17350000|28099997*
%FSLAX44Y44*%
%MOMM*%
G71*
G04*
G04 #@! TF.SameCoordinates,C2C01231-648A-4123-8FF0-497CBD6957D0*
G04*
G04*
G04 #@! TF.FilePolarity,Positive*
G04*
G01*
G75*
%ADD10C,0.2540*%
%ADD11C,0.2500*%
%ADD12C,0.2000*%
%ADD13C,0.3000*%
%ADD14C,0.2997*%
%ADD15C,0.1524*%
%ADD16C,0.1500*%
%ADD17C,0.1270*%
D10*
X840806Y70320D02*
G03*
X840806Y70320I-3607J0D01*
G01*
Y42319D02*
G03*
X840806Y42319I-3607J0D01*
G01*
X812805D02*
G03*
X812805Y42319I-3607J0D01*
G01*
Y70320D02*
G03*
X812805Y70320I-3607J0D01*
G01*
X832419Y56320D02*
G03*
X832419Y56320I-9220J0D01*
G01*
X817215Y33820D02*
X829185D01*
X845699Y35886D02*
Y76754D01*
X817897Y80320D02*
X828503D01*
X800699Y35883D02*
Y76757D01*
X430532Y240029D02*
Y233681D01*
X431802Y232411D01*
X434341D01*
X435610Y233681D01*
Y240029D01*
X438150Y238759D02*
X439419Y240029D01*
X441958D01*
X443228Y238759D01*
Y237490D01*
X441958Y236220D01*
X440689D01*
X441958D01*
X443228Y234950D01*
Y233681D01*
X441958Y232411D01*
X439419D01*
X438150Y233681D01*
X859790Y80009D02*
X857251D01*
X858521D01*
Y73661D01*
X857251Y72391D01*
X855982D01*
X854712Y73661D01*
X866138Y72391D02*
Y80009D01*
X862330Y76200D01*
X867408D01*
X783590Y50799D02*
X782321Y52069D01*
X779782D01*
X778512Y50799D01*
Y45721D01*
X779782Y44451D01*
X782321D01*
X783590Y45721D01*
X791208Y52069D02*
X786130D01*
Y48260D01*
X788669Y49530D01*
X789938D01*
X791208Y48260D01*
Y45721D01*
X789938Y44451D01*
X787399D01*
X786130Y45721D01*
X727078Y119381D02*
Y126999D01*
X730887D01*
X732156Y125729D01*
Y123190D01*
X730887Y121920D01*
X727078D01*
X729617D02*
X732156Y119381D01*
X734696D02*
X737235D01*
X735965D01*
Y126999D01*
X734696Y125729D01*
X741044D02*
X742313Y126999D01*
X744852D01*
X746122Y125729D01*
Y120651D01*
X744852Y119381D01*
X742313D01*
X741044Y120651D01*
Y125729D01*
X809628Y114301D02*
Y121919D01*
X813436D01*
X814706Y120649D01*
Y118110D01*
X813436Y116840D01*
X809628D01*
X812167D02*
X814706Y114301D01*
X817245D02*
X819784D01*
X818515D01*
Y121919D01*
X817245Y120649D01*
X823593Y114301D02*
X826132D01*
X824863D01*
Y121919D01*
X823593Y120649D01*
X687070Y31749D02*
X684531D01*
X685801D01*
Y25401D01*
X684531Y24131D01*
X683262D01*
X681992Y25401D01*
X689610Y30479D02*
X690879Y31749D01*
X693418D01*
X694688Y30479D01*
Y29210D01*
X693418Y27940D01*
X692149D01*
X693418D01*
X694688Y26670D01*
Y25401D01*
X693418Y24131D01*
X690879D01*
X689610Y25401D01*
X852172Y121919D02*
Y114301D01*
X855981D01*
X857250Y115571D01*
Y120649D01*
X855981Y121919D01*
X852172D01*
X864868Y114301D02*
X859790D01*
X864868Y119380D01*
Y120649D01*
X863598Y121919D01*
X861059D01*
X859790Y120649D01*
X912498Y374651D02*
Y382269D01*
X916307D01*
X917576Y380999D01*
Y378460D01*
X916307Y377190D01*
X912498D01*
X915037D02*
X917576Y374651D01*
X920116D02*
X922655D01*
X921385D01*
Y382269D01*
X920116Y380999D01*
X931542Y374651D02*
X926464D01*
X931542Y379730D01*
Y380999D01*
X930272Y382269D01*
X927733D01*
X926464Y380999D01*
X632460Y116841D02*
Y121919D01*
X631190Y123189D01*
X628651D01*
X627382Y121919D01*
Y116841D01*
X628651Y115571D01*
X631190D01*
X629921Y118111D02*
X632460Y115571D01*
X631190D02*
X632460Y116841D01*
X634999Y115571D02*
X637538D01*
X636269D01*
Y123189D01*
X634999Y121919D01*
X89408Y418844D02*
Y411226D01*
Y413765D01*
X94486Y418844D01*
X90678Y415035D01*
X94486Y411226D01*
X97025D02*
X99565D01*
X98295D01*
Y418844D01*
X97025Y417574D01*
X280672Y240029D02*
Y232411D01*
X284480D01*
X285750Y233681D01*
Y238759D01*
X284480Y240029D01*
X280672D01*
X288289Y232411D02*
X290828D01*
X289559D01*
Y240029D01*
X288289Y238759D01*
X657862Y400049D02*
Y393701D01*
X659132Y392431D01*
X661671D01*
X662940Y393701D01*
Y400049D01*
X669288Y392431D02*
Y400049D01*
X665480Y396240D01*
X670558D01*
X544832Y270509D02*
Y264161D01*
X546102Y262891D01*
X548641D01*
X549910Y264161D01*
Y270509D01*
X557528Y262891D02*
X552450D01*
X557528Y267970D01*
Y269239D01*
X556258Y270509D01*
X553719D01*
X552450Y269239D01*
X60706Y222502D02*
Y216154D01*
X61976Y214884D01*
X64515D01*
X65784Y216154D01*
Y222502D01*
X68323Y214884D02*
X70863D01*
X69593D01*
Y222502D01*
X68323Y221232D01*
X451488Y261621D02*
Y269239D01*
X455297D01*
X456566Y267969D01*
Y265430D01*
X455297Y264160D01*
X451488D01*
X454027D02*
X456566Y261621D01*
X459106D02*
X461645D01*
X460375D01*
Y269239D01*
X459106Y267969D01*
X465454D02*
X466723Y269239D01*
X469262D01*
X470532Y267969D01*
Y266700D01*
X469262Y265430D01*
X470532Y264160D01*
Y262891D01*
X469262Y261621D01*
X466723D01*
X465454Y262891D01*
Y264160D01*
X466723Y265430D01*
X465454Y266700D01*
Y267969D01*
X466723Y265430D02*
X469262D01*
X438658Y335280D02*
Y342898D01*
X442467D01*
X443736Y341628D01*
Y339089D01*
X442467Y337819D01*
X438658D01*
X441197D02*
X443736Y335280D01*
X446275D02*
X448815D01*
X447545D01*
Y342898D01*
X446275Y341628D01*
X452623Y342898D02*
X457702D01*
Y341628D01*
X452623Y336550D01*
Y335280D01*
X533400Y388112D02*
Y395730D01*
X537209D01*
X538478Y394460D01*
Y391921D01*
X537209Y390651D01*
X533400D01*
X535939D02*
X538478Y388112D01*
X541017D02*
X543557D01*
X542287D01*
Y395730D01*
X541017Y394460D01*
X552444Y395730D02*
X549905Y394460D01*
X547365Y391921D01*
Y389382D01*
X548635Y388112D01*
X551174D01*
X552444Y389382D01*
Y390651D01*
X551174Y391921D01*
X547365D01*
X439928Y396240D02*
Y403858D01*
X443737D01*
X445006Y402588D01*
Y400049D01*
X443737Y398779D01*
X439928D01*
X442467D02*
X445006Y396240D01*
X447546D02*
X450085D01*
X448815D01*
Y403858D01*
X447546Y402588D01*
X458972Y403858D02*
X453894D01*
Y400049D01*
X456433Y401318D01*
X457702D01*
X458972Y400049D01*
Y397510D01*
X457702Y396240D01*
X455163D01*
X453894Y397510D01*
X351028Y396240D02*
Y403858D01*
X354837D01*
X356106Y402588D01*
Y400049D01*
X354837Y398779D01*
X351028D01*
X353567D02*
X356106Y396240D01*
X358646D02*
X361185D01*
X359915D01*
Y403858D01*
X358646Y402588D01*
X368802Y396240D02*
Y403858D01*
X364994Y400049D01*
X370072D01*
X259588Y396240D02*
Y403858D01*
X263397D01*
X264666Y402588D01*
Y400049D01*
X263397Y398779D01*
X259588D01*
X262127D02*
X264666Y396240D01*
X267206D02*
X269745D01*
X268475D01*
Y403858D01*
X267206Y402588D01*
X273554D02*
X274823Y403858D01*
X277362D01*
X278632Y402588D01*
Y401318D01*
X277362Y400049D01*
X276093D01*
X277362D01*
X278632Y398779D01*
Y397510D01*
X277362Y396240D01*
X274823D01*
X273554Y397510D01*
X495300Y148082D02*
Y155700D01*
X499109D01*
X500378Y154430D01*
Y151891D01*
X499109Y150621D01*
X495300D01*
X497839D02*
X500378Y148082D01*
X502918Y149352D02*
X504187Y148082D01*
X506726D01*
X507996Y149352D01*
Y154430D01*
X506726Y155700D01*
X504187D01*
X502918Y154430D01*
Y153160D01*
X504187Y151891D01*
X507996D01*
X502922Y80011D02*
Y87629D01*
X506731D01*
X508000Y86359D01*
Y83820D01*
X506731Y82550D01*
X502922D01*
X505461D02*
X508000Y80011D01*
X510540Y86359D02*
X511809Y87629D01*
X514348D01*
X515618Y86359D01*
Y85090D01*
X514348Y83820D01*
X515618Y82550D01*
Y81281D01*
X514348Y80011D01*
X511809D01*
X510540Y81281D01*
Y82550D01*
X511809Y83820D01*
X510540Y85090D01*
Y86359D01*
X511809Y83820D02*
X514348D01*
X688342Y88901D02*
Y96519D01*
X692151D01*
X693420Y95249D01*
Y92710D01*
X692151Y91440D01*
X688342D01*
X690881D02*
X693420Y88901D01*
X695960Y96519D02*
X701038D01*
Y95249D01*
X695960Y90171D01*
Y88901D01*
X688342Y50801D02*
Y58419D01*
X692151D01*
X693420Y57149D01*
Y54610D01*
X692151Y53341D01*
X688342D01*
X690881D02*
X693420Y50801D01*
X699768D02*
Y58419D01*
X695960Y54610D01*
X701038D01*
X458724Y148082D02*
Y155700D01*
X462533D01*
X463802Y154430D01*
Y151891D01*
X462533Y150621D01*
X458724D01*
X461263D02*
X463802Y148082D01*
X471420Y155700D02*
X468881Y154430D01*
X466342Y151891D01*
Y149352D01*
X467611Y148082D01*
X470150D01*
X471420Y149352D01*
Y150621D01*
X470150Y151891D01*
X466342D01*
X466092Y77471D02*
Y85089D01*
X469901D01*
X471170Y83819D01*
Y81280D01*
X469901Y80010D01*
X466092D01*
X468631D02*
X471170Y77471D01*
X478788Y85089D02*
X473710D01*
Y81280D01*
X476249Y82550D01*
X477518D01*
X478788Y81280D01*
Y78741D01*
X477518Y77471D01*
X474979D01*
X473710Y78741D01*
X339092Y245111D02*
Y252729D01*
X342901D01*
X344170Y251459D01*
Y248920D01*
X342901Y247651D01*
X339092D01*
X341631D02*
X344170Y245111D01*
X346710Y251459D02*
X347979Y252729D01*
X350518D01*
X351788Y251459D01*
Y250190D01*
X350518Y248920D01*
X349249D01*
X350518D01*
X351788Y247651D01*
Y246381D01*
X350518Y245111D01*
X347979D01*
X346710Y246381D01*
X303532Y226061D02*
Y233679D01*
X307341D01*
X308610Y232409D01*
Y229870D01*
X307341Y228601D01*
X303532D01*
X306071D02*
X308610Y226061D01*
X316228D02*
X311150D01*
X316228Y231140D01*
Y232409D01*
X314958Y233679D01*
X312419D01*
X311150Y232409D01*
X337822Y299721D02*
Y307339D01*
X341630D01*
X342900Y306069D01*
Y303530D01*
X341630Y302260D01*
X337822D01*
X340361D02*
X342900Y299721D01*
X345439D02*
X347978D01*
X346709D01*
Y307339D01*
X345439Y306069D01*
X16762Y360678D02*
X14223D01*
X15493D01*
Y354330D01*
X14223Y353060D01*
X12954D01*
X11684Y354330D01*
X24380Y353060D02*
X19302D01*
X24380Y358138D01*
Y359408D01*
X23110Y360678D01*
X20571D01*
X19302Y359408D01*
X10412Y147318D02*
X7873D01*
X9143D01*
Y140970D01*
X7873Y139700D01*
X6604D01*
X5334Y140970D01*
X12952Y139700D02*
X15491D01*
X14221D01*
Y147318D01*
X12952Y146048D01*
X431800Y67309D02*
X426722D01*
Y63500D01*
X429261D01*
X426722D01*
Y59691D01*
X434339D02*
X436878D01*
X435609D01*
Y67309D01*
X434339Y66039D01*
X459740Y247649D02*
X458471Y248919D01*
X455932D01*
X454662Y247649D01*
Y242571D01*
X455932Y241301D01*
X458471D01*
X459740Y242571D01*
X462280D02*
X463549Y241301D01*
X466088D01*
X467358Y242571D01*
Y247649D01*
X466088Y248919D01*
X463549D01*
X462280Y247649D01*
Y246380D01*
X463549Y245110D01*
X467358D01*
X450850Y161289D02*
X449581Y162559D01*
X447042D01*
X445772Y161289D01*
Y156211D01*
X447042Y154941D01*
X449581D01*
X450850Y156211D01*
X453390Y161289D02*
X454659Y162559D01*
X457198D01*
X458468Y161289D01*
Y160020D01*
X457198Y158750D01*
X458468Y157480D01*
Y156211D01*
X457198Y154941D01*
X454659D01*
X453390Y156211D01*
Y157480D01*
X454659Y158750D01*
X453390Y160020D01*
Y161289D01*
X454659Y158750D02*
X457198D01*
X890270Y339979D02*
X889001Y341249D01*
X886462D01*
X885192Y339979D01*
Y334901D01*
X886462Y333631D01*
X889001D01*
X890270Y334901D01*
X892810Y341249D02*
X897888D01*
Y339979D01*
X892810Y334901D01*
Y333631D01*
X656590Y126999D02*
X655321Y128269D01*
X652782D01*
X651512Y126999D01*
Y121921D01*
X652782Y120651D01*
X655321D01*
X656590Y121921D01*
X664208Y128269D02*
X661669Y126999D01*
X659130Y124460D01*
Y121921D01*
X660399Y120651D01*
X662938D01*
X664208Y121921D01*
Y123190D01*
X662938Y124460D01*
X659130D01*
X391160Y246379D02*
X389891Y247649D01*
X387352D01*
X386082Y246379D01*
Y241301D01*
X387352Y240031D01*
X389891D01*
X391160Y241301D01*
X397508Y240031D02*
Y247649D01*
X393700Y243840D01*
X398778D01*
X391160Y283209D02*
X389891Y284479D01*
X387352D01*
X386082Y283209D01*
Y278131D01*
X387352Y276861D01*
X389891D01*
X391160Y278131D01*
X393700Y283209D02*
X394969Y284479D01*
X397508D01*
X398778Y283209D01*
Y281940D01*
X397508Y280670D01*
X396239D01*
X397508D01*
X398778Y279401D01*
Y278131D01*
X397508Y276861D01*
X394969D01*
X393700Y278131D01*
X476250Y50799D02*
X474981Y52069D01*
X472442D01*
X471172Y50799D01*
Y45721D01*
X472442Y44451D01*
X474981D01*
X476250Y45721D01*
X483868Y44451D02*
X478790D01*
X483868Y49530D01*
Y50799D01*
X482598Y52069D01*
X480059D01*
X478790Y50799D01*
X452120D02*
X450850Y52069D01*
X448311D01*
X447042Y50799D01*
Y45721D01*
X448311Y44451D01*
X450850D01*
X452120Y45721D01*
X454659Y44451D02*
X457198D01*
X455929D01*
Y52069D01*
X454659Y50799D01*
D11*
X648950Y55590D02*
G03*
X648950Y55590I-1250J0D01*
G01*
D12*
X661051Y104429D02*
G03*
X661055Y65753I-13352J-19339D01*
G01*
X61288Y131540D02*
G03*
X61288Y131540I-1000J0D01*
G01*
X9830Y61980D02*
X10830D01*
X9830D02*
Y125980D01*
X63830D01*
Y61980D02*
Y125980D01*
X10830Y61980D02*
X63830D01*
X17780Y123190D02*
X30480D01*
X33020Y125980D01*
X15240D02*
X17780Y123190D01*
X40640Y125980D02*
X43180Y123190D01*
X55880D02*
X58420Y125980D01*
X43180Y123190D02*
X55880D01*
X661050Y65753D02*
Y104427D01*
X761330Y86610D02*
X762330D01*
Y22610D02*
Y86610D01*
X708330Y22610D02*
X762330D01*
X708330D02*
Y86610D01*
X761330D01*
X741680Y25400D02*
X754380D01*
X739140Y22610D02*
X741680Y25400D01*
X754380D02*
X756920Y22610D01*
X728980Y25400D02*
X731520Y22610D01*
X713740D02*
X716280Y25400D01*
X728980D01*
X257490Y248530D02*
Y295030D01*
Y248530D02*
X280990D01*
Y295030D01*
X257490D02*
X280990D01*
X269240D02*
Y307730D01*
Y235830D02*
Y248530D01*
X257490Y261230D02*
X280990D01*
X437780Y22480D02*
Y38480D01*
X423280Y22480D02*
Y38480D01*
X298880Y238240D02*
X301880D01*
X298880D02*
Y284240D01*
X301880D01*
X317880D02*
X320880D01*
Y238240D02*
Y284240D01*
X317880Y238240D02*
X320880D01*
X298880Y261240D02*
X320880D01*
X438330Y379530D02*
Y387530D01*
X524330D01*
Y379530D02*
Y387530D01*
Y346530D02*
Y354530D01*
X438330Y346530D02*
X524330D01*
X438330D02*
Y354530D01*
X481330Y346530D02*
Y387530D01*
X49530Y336550D02*
X62230D01*
X64770Y339340D01*
X46990D02*
X49530Y336550D01*
X21590Y339340D02*
X24130Y336550D01*
X36830D02*
X39370Y339340D01*
X24130Y336550D02*
X36830D01*
X17180Y275340D02*
X70180D01*
Y339340D01*
X16180D02*
X70180D01*
X16180Y275340D02*
Y339340D01*
Y275340D02*
X17180D01*
X523060Y285570D02*
Y293570D01*
X437060Y285570D02*
X523060D01*
X437060D02*
Y293570D01*
Y318570D02*
Y326570D01*
X523060D01*
Y318570D02*
Y326570D01*
X480060Y285570D02*
Y326570D01*
X564950Y379550D02*
X572950D01*
Y293550D02*
Y379550D01*
X564950Y293550D02*
X572950D01*
X531950D02*
X539950D01*
X531950D02*
Y379550D01*
X539950D01*
X531950Y336550D02*
X572950D01*
X349430Y379530D02*
Y387530D01*
X435430D01*
Y379530D02*
Y387530D01*
Y346530D02*
Y354530D01*
X349430Y346530D02*
X435430D01*
X349430D02*
Y354530D01*
X392430Y346530D02*
Y387530D01*
X257990Y379530D02*
Y387530D01*
X343990D01*
Y379530D02*
Y387530D01*
Y346530D02*
Y354530D01*
X257990Y346530D02*
X343990D01*
X257990D02*
Y354530D01*
X300990Y346530D02*
Y387530D01*
D13*
X612846Y157739D02*
G03*
X612846Y157739I-1501J0D01*
G01*
X634659Y150345D02*
G03*
X634659Y150345I-1501J0D01*
G01*
D14*
X471449Y217780D02*
X471957Y217856D01*
X472415Y218135D01*
X472745Y218516D01*
X472923Y219024D01*
Y219532D01*
X472745Y220015D02*
X472923Y219532D01*
X472415Y220421D02*
X472745Y220015D01*
X471957Y220675D02*
X472415Y220421D01*
X471449Y220777D02*
X471957Y220675D01*
X470916D02*
X471449Y220777D01*
X470484Y220421D02*
X470916Y220675D01*
X470129Y220015D02*
X470484Y220421D01*
X469951Y219532D02*
X470129Y220015D01*
X469951Y219024D02*
Y219532D01*
Y219024D02*
X470129Y218516D01*
X470484Y218135D01*
X470916Y217856D01*
X471449Y217780D01*
X455854Y225857D02*
X456362Y225933D01*
X456819Y226213D01*
X457149Y226593D01*
X457327Y227101D01*
Y227610D01*
X457149Y228092D02*
X457327Y227610D01*
X456819Y228498D02*
X457149Y228092D01*
X456362Y228752D02*
X456819Y228498D01*
X455854Y228854D02*
X456362Y228752D01*
X455346D02*
X455854Y228854D01*
X454889Y228498D02*
X455346Y228752D01*
X454558Y228092D02*
X454889Y228498D01*
X454381Y227610D02*
X454558Y228092D01*
X454381Y227101D02*
Y227610D01*
Y227101D02*
X454558Y226593D01*
X454889Y226213D01*
X455346Y225933D01*
X455854Y225857D01*
D15*
X467208Y173533D02*
Y224104D01*
Y173533D02*
X497586D01*
Y224104D01*
X467208D02*
X497586D01*
X552441Y149927D02*
X618869D01*
X552441D02*
Y254451D01*
X618869D01*
Y149927D02*
Y254451D01*
D16*
X775860Y73280D02*
X793860D01*
X789860Y56280D02*
X793860D01*
Y90280D01*
X789860D02*
X793860D01*
X775860D02*
X779860D01*
X775860Y56280D02*
Y90280D01*
Y56280D02*
X779860D01*
X681370Y72880D02*
X683370D01*
Y38880D02*
Y72880D01*
X681370Y38880D02*
X683370D01*
X665370Y72880D02*
X667370D01*
X665370Y38880D02*
Y72880D01*
Y38880D02*
X667370D01*
X665370Y55880D02*
X683370D01*
X681370Y109710D02*
X683370D01*
Y75710D02*
Y109710D01*
X681370Y75710D02*
X683370D01*
X665370Y109710D02*
X667370D01*
X665370Y75710D02*
Y109710D01*
Y75710D02*
X667370D01*
X665370Y92710D02*
X683370D01*
X648860Y131590D02*
X652860D01*
X648860D02*
Y165590D01*
X652860D01*
X662860D02*
X666860D01*
Y131590D02*
Y165590D01*
X662860Y131590D02*
X666860D01*
X648860Y148590D02*
X666860D01*
X722140Y112410D02*
Y114410D01*
X756140D01*
Y112410D02*
Y114410D01*
X722140Y96410D02*
Y98410D01*
Y96410D02*
X756140D01*
Y98410D01*
X739140Y96410D02*
Y114410D01*
X834880Y126890D02*
Y128890D01*
X800880Y126890D02*
X834880D01*
X800880D02*
Y128890D01*
X834880Y142890D02*
Y144890D01*
X800880D02*
X834880D01*
X800880Y142890D02*
Y144890D01*
X817880Y126890D02*
Y144890D01*
X858520Y135890D02*
X861060Y138430D01*
X858520Y135890D02*
X861060Y133350D01*
Y138430D01*
X855980Y135890D02*
X858520D01*
Y126890D02*
Y144890D01*
X839470Y138430D02*
Y144890D01*
X878840D01*
Y142890D02*
Y144890D01*
X839470Y126890D02*
Y133350D01*
Y126890D02*
X878840D01*
Y128890D01*
X838200Y138430D02*
X839470D01*
X838200D02*
Y144890D01*
X839470D01*
X838200Y126890D02*
X839470D01*
X838200D02*
Y133350D01*
X839470D01*
X896620Y388240D02*
Y404240D01*
X879620Y402240D02*
Y404240D01*
X913620D01*
Y402240D02*
Y404240D01*
X879620Y388240D02*
Y390240D01*
Y388240D02*
X913620D01*
Y390240D01*
X883810Y347110D02*
X887810D01*
X883810D02*
Y381110D01*
X887810D01*
X897810D02*
X901810D01*
Y347110D02*
Y381110D01*
X897810Y347110D02*
X901810D01*
X883810Y364110D02*
X901810D01*
X422800Y168910D02*
X440800D01*
X422800Y185910D02*
X426800D01*
X422800Y151910D02*
Y185910D01*
Y151910D02*
X426800D01*
X436800D02*
X440800D01*
Y185910D01*
X436800D02*
X440800D01*
X490600Y234840D02*
Y252840D01*
X507600Y248840D02*
Y252840D01*
X473600D02*
X507600D01*
X473600Y248840D02*
Y252840D01*
Y234840D02*
Y238840D01*
Y234840D02*
X507600D01*
Y238840D01*
X443120Y22860D02*
X461120D01*
X457120Y5860D02*
X461120D01*
Y39860D01*
X457120D02*
X461120D01*
X443120D02*
X447120D01*
X443120Y5860D02*
Y39860D01*
Y5860D02*
X447120D01*
X327170Y240570D02*
Y242570D01*
X361170D01*
Y240570D02*
Y242570D01*
X327170Y226570D02*
Y228570D01*
Y226570D02*
X361170D01*
Y228570D01*
X344170Y226570D02*
Y242570D01*
X325900Y293910D02*
Y295910D01*
X359900D01*
Y293910D02*
Y295910D01*
X325900Y279910D02*
Y281910D01*
Y279910D02*
X359900D01*
Y281910D01*
X342900Y279910D02*
Y295910D01*
X468520Y22860D02*
X486520D01*
X482520Y5860D02*
X486520D01*
Y39860D01*
X482520D02*
X486520D01*
X468520D02*
X472520D01*
X468520Y5860D02*
Y39860D01*
Y5860D02*
X472520D01*
X364380Y280290D02*
X382380D01*
X364380Y297290D02*
X368380D01*
X364380Y263290D02*
Y297290D01*
Y263290D02*
X368380D01*
X378380D02*
X382380D01*
Y297290D01*
X378380D02*
X382380D01*
X364380Y243460D02*
X382380D01*
X364380Y260460D02*
X368380D01*
X364380Y226460D02*
Y260460D01*
Y226460D02*
X368380D01*
X378380D02*
X382380D01*
Y260460D01*
X378380D02*
X382380D01*
X510540Y95140D02*
Y113140D01*
X527540Y95140D02*
Y97140D01*
X493540Y95140D02*
X527540D01*
X493540D02*
Y97140D01*
X527540Y111140D02*
Y113140D01*
X493540D02*
X527540D01*
X493540Y111140D02*
Y113140D01*
X473710Y95140D02*
Y113140D01*
X456710Y111140D02*
Y113140D01*
X490710D01*
Y111140D02*
Y113140D01*
X456710Y95140D02*
Y97140D01*
Y95140D02*
X490710D01*
Y97140D01*
X473850Y121810D02*
Y139810D01*
X456850Y137810D02*
Y139810D01*
X490850D01*
Y137810D02*
Y139810D01*
X456850Y121810D02*
Y123810D01*
Y121810D02*
X490850D01*
Y123810D01*
X490220Y255160D02*
Y273160D01*
X507220Y255160D02*
Y257160D01*
X473220Y255160D02*
X507220D01*
X473220D02*
Y257160D01*
X507220Y271160D02*
Y273160D01*
X473220D02*
X507220D01*
X473220Y271160D02*
Y273160D01*
X510540Y121810D02*
Y139810D01*
X493540Y137810D02*
Y139810D01*
X527540D01*
Y137810D02*
Y139810D01*
X493540Y121810D02*
Y123810D01*
Y121810D02*
X527540D01*
Y123810D01*
D17*
X245640Y208800D02*
Y400800D01*
X89640D02*
X245640D01*
X89640Y208800D02*
Y400800D01*
Y208800D02*
X245640D01*
X74790Y4540D02*
Y204540D01*
X414790D01*
Y4540D02*
Y204540D01*
X74790Y4540D02*
X414790D01*
M02*
