G04*
G04 #@! TF.GenerationSoftware,Altium Limited,Altium Designer,26.10.1 (5)*
G04*
G04 Layer_Color=8421504*
G04 Board_Origin=17350000|28099997*
%FSLAX44Y44*%
%MOMM*%
G71*
G04*
G04 #@! TF.SameCoordinates,C2C01231-648A-4123-8FF0-497CBD6957D0*
G04*
G04*
G04 #@! TF.FilePolarity,Positive*
G04*
G01*
G75*
%ADD18O,1.8136X0.3556*%
%ADD19R,1.4000X1.3000*%
%ADD20R,1.3500X1.1500*%
%ADD21R,1.1500X1.3500*%
%ADD22R,1.2000X1.2000*%
%ADD23R,0.9000X1.2000*%
%ADD24O,2.4005X0.5740*%
%ADD25R,1.6500X1.2500*%
%ADD26R,1.3000X1.4000*%
%ADD27R,1.6500X1.2000*%
%ADD28R,1.6000X3.6500*%
%ADD29R,3.6500X1.6000*%
D18*
X455854Y221056D02*
D03*
Y214706D02*
D03*
Y208356D02*
D03*
Y202006D02*
D03*
Y195656D02*
D03*
Y189306D02*
D03*
Y182956D02*
D03*
Y176606D02*
D03*
X508965Y221056D02*
D03*
Y214706D02*
D03*
Y208356D02*
D03*
Y202006D02*
D03*
Y195656D02*
D03*
Y189306D02*
D03*
Y182956D02*
D03*
Y176606D02*
D03*
D19*
X784860Y81280D02*
D03*
Y65280D02*
D03*
X657860Y140590D02*
D03*
Y156590D02*
D03*
X892810Y356110D02*
D03*
Y372110D02*
D03*
X477520Y30860D02*
D03*
X452120D02*
D03*
X431800Y160910D02*
D03*
Y176910D02*
D03*
X452120Y14860D02*
D03*
X477520D02*
D03*
X373380Y272290D02*
D03*
Y288290D02*
D03*
Y235460D02*
D03*
Y251460D02*
D03*
D20*
X674370Y64630D02*
D03*
Y47130D02*
D03*
Y101460D02*
D03*
Y83960D02*
D03*
D21*
X730390Y105410D02*
D03*
X747890D02*
D03*
X826630Y135890D02*
D03*
X809130D02*
D03*
X519290Y104140D02*
D03*
X501790D02*
D03*
X464960D02*
D03*
X482460D02*
D03*
X465100Y130810D02*
D03*
X482600D02*
D03*
X501790D02*
D03*
X498970Y264160D02*
D03*
X481470D02*
D03*
X519290Y130810D02*
D03*
D22*
X848020Y135890D02*
D03*
X869020D02*
D03*
D23*
X886120Y396240D02*
D03*
X907120D02*
D03*
X333670Y234570D02*
D03*
X354670D02*
D03*
X332400Y287910D02*
D03*
X353400D02*
D03*
D24*
X633158Y157739D02*
D03*
Y170439D02*
D03*
Y183139D02*
D03*
Y195839D02*
D03*
Y208539D02*
D03*
Y221239D02*
D03*
Y233939D02*
D03*
Y246639D02*
D03*
X538152Y157739D02*
D03*
Y170439D02*
D03*
Y183139D02*
D03*
Y195839D02*
D03*
Y208539D02*
D03*
Y221239D02*
D03*
Y233939D02*
D03*
Y246639D02*
D03*
D25*
X430530Y47730D02*
D03*
Y13230D02*
D03*
D26*
X482600Y243840D02*
D03*
X498600D02*
D03*
D27*
X309880Y247240D02*
D03*
Y275240D02*
D03*
D28*
X449580Y367030D02*
D03*
X513080D02*
D03*
X511810Y306070D02*
D03*
X448310D02*
D03*
X360680Y367030D02*
D03*
X424180D02*
D03*
X269240D02*
D03*
X332740D02*
D03*
D29*
X552450Y368300D02*
D03*
Y304800D02*
D03*
M02*
