G04*
G04 #@! TF.GenerationSoftware,Altium Limited,Altium Designer,26.10.1 (5)*
G04*
G04 Layer_Color=16711935*
G04 Board_Origin=17350000|28099997*
%FSLAX44Y44*%
%MOMM*%
G71*
G04*
G04 #@! TF.SameCoordinates,C2C01231-648A-4123-8FF0-497CBD6957D0*
G04*
G04*
G04 #@! TF.FilePolarity,Negative*
G04*
G01*
G75*
%ADD43C,1.7500*%
%ADD44O,1.9000X2.6500*%
%ADD45C,1.8500*%
%ADD46C,1.2000*%
%ADD47R,1.2000X1.2000*%
%ADD48C,2.1000*%
%ADD49C,1.7000*%
%ADD50C,1.6580*%
%ADD51R,1.6580X1.6580*%
D43*
X838200Y83820D02*
D03*
X808200D02*
D03*
X838200Y28820D02*
D03*
X808200D02*
D03*
D44*
X24130Y93980D02*
D03*
X49530D02*
D03*
X748030Y54610D02*
D03*
X722630D02*
D03*
X55880Y307340D02*
D03*
X30480D02*
D03*
D45*
X852170Y168910D02*
D03*
Y194310D02*
D03*
Y219710D02*
D03*
Y245110D02*
D03*
Y270510D02*
D03*
Y295910D02*
D03*
Y321310D02*
D03*
Y346710D02*
D03*
Y372110D02*
D03*
X699770Y168910D02*
D03*
Y194310D02*
D03*
Y219710D02*
D03*
Y245110D02*
D03*
Y270510D02*
D03*
Y295910D02*
D03*
Y321310D02*
D03*
Y346710D02*
D03*
Y372110D02*
D03*
D46*
X647700Y97790D02*
D03*
Y85090D02*
D03*
D47*
Y72390D02*
D03*
D48*
X227640Y244800D02*
D03*
X107640Y366800D02*
D03*
X227640D02*
D03*
X167640Y224800D02*
D03*
X107640Y244800D02*
D03*
D49*
X269240Y224080D02*
D03*
Y319480D02*
D03*
D50*
X391790Y27540D02*
D03*
Y181540D02*
D03*
X97790Y79540D02*
D03*
D51*
Y129540D02*
D03*
M02*
