M48
;Layer_Color=9474304
;FILE_FORMAT=4:4
METRIC,LZ
;TYPE=PLATED
T01F00S00C0.3000
T02F00S00C0.7620
T03F00S00C1.0000
T04F00S00C1.0500
T05F00S00C1.1000
T06F00S00C1.3000
%
T01
X0078486Y00052324
X00523494Y0001397
X00470154
X00297688Y00142748
X00299902Y00205922
X0029972Y0021336
X0030734
Y0022098
Y002286
X0031496
Y0023622
X0032258
Y0024384
Y0025146
X003302
X0033782
Y0024384
Y0023622
X003302
Y0024384
X0031496
Y0025146
X0030734
Y0024384
X0029972
Y0025146
Y0023622
X0030734
X0029972Y002286
Y0022098
X0031496
X0032258
X003302
X0033782
Y002286
X003302
X0032258
Y0021336
X003302
X0033782
Y0020574
X003302
X0032258
X0031496
Y0021336
X0030734Y0020574
Y0028702
X0029972
Y0029464
Y0030226
Y0030988
Y003175
Y0032512
X0030734
Y003175
Y0030988
Y0030226
Y0029464
X0031496
Y0030226
X0032258
X003302
X0033782
Y0030988
Y003175
Y0032512
X003302
X0032258
X0031496
Y003175
X0032258
X003302
Y0030988
X0032258
X0031496
Y0028702
X0032258
X003302
X0033782
Y0029464
X003302
X0032258
X0023622Y0033528
X0038735Y00272288
Y0025146
X00453136Y00247904
X00452374Y00268224
X00505714Y00266192
X0052324Y0024638
X00522989Y00190323
X00521716Y00169571
X00495262Y00195667
X004953Y0020193
X00470154Y0018923
X004699Y0017653
X00431546Y00149352
X00452374Y00124714
X00493014Y00125222
X00652272Y00116078
X0067437Y00111506
X00689102Y0009779
X00688848Y00125984
X0065024Y00169926
X00645002Y00233937
X00644652Y0024638
X00664718Y00233426
X0074803Y0020066
X00733504Y00291386
X0071755Y0032258
X00746554Y00328247
X0073279Y0035306
X0076327
X0079375
X0082423
Y002921
X0080899Y0026162
X0077851
X0076327Y002921
X0077851Y00328247
X0076327Y0023114
X0079375
X0082423
X0080899Y0020066
X0077851
X00912876Y00250444
X00893064Y00343154
X00865632Y00101854
T02
X0069977Y0016891
Y0019431
Y0021971
Y0024511
Y0027051
Y0029591
Y0032131
Y0034671
Y0037211
X0085217
Y0034671
Y0032131
Y0029591
Y0027051
Y0024511
Y0021971
Y0019431
Y0016891
T03
X008082Y0002882
X008382
X0039179Y0002754
X0009779Y0007954
Y0012954
X0039179Y0018154
X008082Y0008382
X008382
T04
X0026924Y0022408
Y0031948
T05
X0072263Y0005461
X0074803
X0004953Y0009398
X0002413
X0003048Y0030734
X0005588
T06
X0010764Y0024534
X0022764
Y0036734
X0016764Y0038734
X0010764Y0036734
M30
