M48
;Layer_Color=9474304
;FILE_FORMAT=4:4
METRIC,LZ
;TYPE=PLATED
T01F00S00C0.3000
T02F00S00C0.7620
T03F00S00C1.0000
T04F00S00C1.0500
T05F00S00C1.1000
T06F00S00C1.3000
%
T01
X0078486Y00052324
X00520954Y00014478
X00491236Y00014606
X0033782Y0020574
Y0021336
Y0022098
Y002286
Y0023622
Y0024384
Y0025146
X003302
Y0024384
X0032258
Y0025146
X0031496
X0030734
X0029972
Y0024384
Y0023622
Y002286
Y0022098
Y0021336
X00299902Y00205922
X0030734Y0020574
Y0021336
Y0022098
Y002286
Y0023622
X0031496
X0032258
X003302
Y002286
Y0022098
X0032258
Y002286
X0031496
Y0022098
Y0021336
X0032258
X003302
Y0020574
X0032258
X0031496
Y0024384
X0030734
Y0028702
X0029972
Y0029464
Y0030226
Y0030988
Y003175
Y0032512
X0030734
Y003175
Y0030988
Y0030226
Y0029464
X0031496
Y0030226
X0032258
X003302
X0033782
Y0030988
Y003175
Y0032512
X003302
X0032258
X0031496
Y003175
X0032258
X003302
Y0030988
X0032258
X0031496
Y0028702
X0032258
X003302
X0033782
Y0029464
X003302
X0032258
X0023622Y0033528
X0038735Y00272288
Y0025146
X0046736Y0024384
Y0026416
X0052324Y0024638
X00522989Y00190323
X00521716Y00169571
X004953Y0019558
Y0020193
X00470154Y0018923
X004699Y0017653
X00431546Y00149352
X00452374Y00124714
X00493014Y00125222
X00354076Y00130556
X0065786Y00130048
X0067437Y00111506
X00689102Y00117602
X00715518Y00161798
X0065024Y00169926
X00649478Y00233934
X00649224Y00246888
X00743458Y00231902
X00799084Y00135128
X00906272Y00356362
T02
X0069977Y0016891
Y0019431
Y0021971
Y0024511
Y0027051
Y0029591
Y0032131
Y0034671
Y0037211
X0085217
Y0034671
Y0032131
Y0029591
Y0027051
Y0024511
Y0021971
Y0019431
Y0016891
T03
X008082Y0002882
X008382
X0039179Y0002754
X0009779Y0007954
Y0012954
X0039179Y0018154
X008082Y0008382
X008382
T04
X0026924Y0022408
Y0031948
T05
X0072263Y0005461
X0074803
X0004953Y0009398
X0002413
X0003048Y0030734
X0005588
T06
X0010764Y0024534
X0022764
Y0036734
X0016764Y0038734
X0010764Y0036734
M30
