M48
;Layer_Color=9474304
;FILE_FORMAT=4:4
METRIC,LZ
;TYPE=PLATED
T01F00S00C0.7620
T02F00S00C0.8000
T03F00S00C1.0000
T04F00S00C1.0500
T05F00S00C1.1000
T06F00S00C1.3000
%
T01
X0069977Y0016891
Y0019431
Y0021971
Y0024511
Y0027051
Y0029591
Y0032131
Y0034671
Y0037211
X0085217
Y0034671
Y0032131
Y0029591
Y0027051
Y0024511
Y0021971
Y0019431
Y0016891
T02
X006477Y0007239
Y0008509
Y0009779
T03
X008082Y0002882
X008382
X0039179Y0002754
X0009779Y0007954
Y0012954
X0039179Y0018154
X008082Y0008382
X008382
T04
X0026924Y0022408
Y0031948
T05
X0072263Y0005461
X0074803
X0004953Y0009398
X0002413
X0003048Y0030734
X0005588
T06
X0010764Y002448
X0016764Y002248
X0022764Y002448
Y003668
X0010764
M30
