G04*
G04 #@! TF.GenerationSoftware,Altium Limited,Altium Designer,26.10.1 (5)*
G04*
G04 Layer_Physical_Order=2*
G04 Layer_Color=16711680*
G04 Board_Origin=17350000|28099997*
%FSLAX44Y44*%
%MOMM*%
G71*
G04*
G04 #@! TF.SameCoordinates,511BB809-57DB-4399-977C-E770D7055A2C*
G04*
G04*
G04 #@! TF.FilePolarity,Positive*
G04*
G01*
G75*
%ADD51C,0.3810*%
%ADD52C,0.7620*%
%ADD53C,1.0160*%
%ADD55C,1.9500*%
%ADD56R,1.5080X1.5080*%
%ADD57C,1.5080*%
%ADD58O,1.7500X2.5000*%
%ADD59C,1.7000*%
%ADD60C,1.6000*%
%ADD61C,1.5500*%
%ADD62C,0.6000*%
G36*
X342900Y281940D02*
X40640D01*
Y299944D01*
X40985Y300775D01*
X41355Y303590D01*
Y311090D01*
X40985Y313905D01*
X40640Y314736D01*
Y330200D01*
X233307D01*
X233941Y329777D01*
X236220Y329324D01*
X238499Y329777D01*
X239133Y330200D01*
X256356D01*
X261287Y325269D01*
X260125Y323256D01*
X259458Y320768D01*
Y318192D01*
X260125Y315704D01*
X261413Y313474D01*
X263234Y311653D01*
X265464Y310365D01*
X267952Y309698D01*
X270528D01*
X273016Y310365D01*
X275246Y311653D01*
X277068Y313474D01*
X278355Y315704D01*
X279022Y318192D01*
Y320768D01*
X278355Y323256D01*
X277068Y325486D01*
X275246Y327308D01*
X275242Y327310D01*
X275097Y328168D01*
X276813Y330200D01*
X342900D01*
Y281940D01*
D02*
G37*
G36*
X553720Y200660D02*
Y91440D01*
X421640D01*
Y200660D01*
X292396D01*
X276704Y216352D01*
Y217710D01*
X277068Y218074D01*
X278355Y220304D01*
X279022Y222792D01*
Y225368D01*
X278355Y227856D01*
X277068Y230086D01*
X275246Y231908D01*
X273016Y233195D01*
X270528Y233862D01*
X267952D01*
X265464Y233195D01*
X263234Y231908D01*
X261413Y230086D01*
X260125Y227856D01*
X259458Y225368D01*
Y222792D01*
X260125Y220304D01*
X261413Y218074D01*
X263234Y216252D01*
X264791Y215353D01*
Y213884D01*
X265245Y211605D01*
X266536Y209672D01*
X273671Y202537D01*
X272893Y200660D01*
X127000D01*
Y2039D01*
X69596D01*
Y59690D01*
X2039D01*
Y274574D01*
X553720D01*
Y200660D01*
D02*
G37*
G36*
X931480Y409031D02*
X933420Y408228D01*
X935166Y407061D01*
X936651Y405576D01*
X937818Y403830D01*
X938621Y401890D01*
X939031Y399830D01*
Y398780D01*
Y12700D01*
Y11650D01*
X938621Y9590D01*
X937818Y7650D01*
X936651Y5904D01*
X935166Y4419D01*
X933420Y3252D01*
X931480Y2449D01*
X929420Y2039D01*
X928370D01*
X642112Y2039D01*
Y409441D01*
X929420D01*
X931480Y409031D01*
D02*
G37*
%LPC*%
G36*
X229191Y257122D02*
X226089D01*
X223092Y256319D01*
X220406Y254768D01*
X218212Y252574D01*
X216661Y249888D01*
X215858Y246891D01*
Y243789D01*
X216661Y240792D01*
X218212Y238106D01*
X220406Y235912D01*
X223092Y234361D01*
X226089Y233558D01*
X229191D01*
X232188Y234361D01*
X234874Y235912D01*
X237068Y238106D01*
X238619Y240792D01*
X239422Y243789D01*
Y246891D01*
X238619Y249888D01*
X237068Y252574D01*
X234874Y254768D01*
X232188Y256319D01*
X229191Y257122D01*
D02*
G37*
G36*
X109191D02*
X106089D01*
X103092Y256319D01*
X100406Y254768D01*
X98212Y252574D01*
X96661Y249888D01*
X95858Y246891D01*
Y243789D01*
X96661Y240792D01*
X98212Y238106D01*
X100406Y235912D01*
X103092Y234361D01*
X106089Y233558D01*
X109191D01*
X112188Y234361D01*
X114874Y235912D01*
X117068Y238106D01*
X118619Y240792D01*
X119422Y243789D01*
Y246891D01*
X118619Y249888D01*
X117068Y252574D01*
X114874Y254768D01*
X112188Y256319D01*
X109191Y257122D01*
D02*
G37*
G36*
X523990Y195355D02*
X521988D01*
X520138Y194589D01*
X518723Y193174D01*
X517957Y191324D01*
Y190968D01*
X507533Y180544D01*
X473002D01*
X472750Y180796D01*
X470901Y181562D01*
X468899D01*
X467050Y180796D01*
X465634Y179380D01*
X464868Y177531D01*
Y175529D01*
X465634Y173680D01*
X467050Y172264D01*
X468899Y171498D01*
X470901D01*
X472750Y172264D01*
X473002Y172516D01*
X509196D01*
X510732Y172821D01*
X512034Y173692D01*
X523633Y185291D01*
X523990D01*
X525839Y186057D01*
X527254Y187473D01*
X528021Y189322D01*
Y191324D01*
X527254Y193174D01*
X525839Y194589D01*
X523990Y195355D01*
D02*
G37*
G36*
X107362Y139112D02*
X88218D01*
Y119968D01*
X107362D01*
Y139112D01*
D02*
G37*
G36*
X24130Y108605D02*
X21315Y108235D01*
X18693Y107148D01*
X16440Y105420D01*
X14712Y103168D01*
X13626Y100545D01*
X13255Y97730D01*
Y90230D01*
X13626Y87415D01*
X14712Y84792D01*
X16440Y82540D01*
X18693Y80812D01*
X21315Y79726D01*
X24130Y79355D01*
X26945Y79726D01*
X29567Y80812D01*
X31820Y82540D01*
X33548Y84792D01*
X34634Y87415D01*
X35005Y90230D01*
Y97730D01*
X34634Y100545D01*
X33548Y103168D01*
X31820Y105420D01*
X29567Y107148D01*
X26945Y108235D01*
X24130Y108605D01*
D02*
G37*
G36*
X853557Y382642D02*
X850783D01*
X848105Y381924D01*
X845703Y380538D01*
X843742Y378577D01*
X842356Y376175D01*
X841638Y373497D01*
Y370723D01*
X842356Y368045D01*
X843742Y365643D01*
X845703Y363682D01*
X848105Y362296D01*
X850783Y361578D01*
X853557D01*
X856235Y362296D01*
X858637Y363682D01*
X860598Y365643D01*
X861984Y368045D01*
X862702Y370723D01*
Y373497D01*
X861984Y376175D01*
X860598Y378577D01*
X858637Y380538D01*
X856235Y381924D01*
X853557Y382642D01*
D02*
G37*
G36*
X701157D02*
X698383D01*
X695705Y381924D01*
X693303Y380538D01*
X691342Y378577D01*
X689956Y376175D01*
X689238Y373497D01*
Y370723D01*
X689956Y368045D01*
X691342Y365643D01*
X693303Y363682D01*
X695705Y362296D01*
X698383Y361578D01*
X701157D01*
X703835Y362296D01*
X706237Y363682D01*
X708198Y365643D01*
X709584Y368045D01*
X710302Y370723D01*
Y373497D01*
X709584Y376175D01*
X708198Y378577D01*
X706237Y380538D01*
X703835Y381924D01*
X701157Y382642D01*
D02*
G37*
G36*
X853557Y357242D02*
X853186D01*
Y347726D01*
X862702D01*
Y348097D01*
X861984Y350775D01*
X860598Y353177D01*
X858637Y355138D01*
X856235Y356524D01*
X853557Y357242D01*
D02*
G37*
G36*
X851154D02*
X850783D01*
X848105Y356524D01*
X845703Y355138D01*
X843742Y353177D01*
X842356Y350775D01*
X841638Y348097D01*
Y347726D01*
X851154D01*
Y357242D01*
D02*
G37*
G36*
X862702Y345694D02*
X853186D01*
Y336178D01*
X853557D01*
X856235Y336896D01*
X858637Y338282D01*
X860598Y340243D01*
X861984Y342645D01*
X862702Y345323D01*
Y345694D01*
D02*
G37*
G36*
X851154D02*
X841638D01*
Y345323D01*
X842356Y342645D01*
X843742Y340243D01*
X845703Y338282D01*
X848105Y336896D01*
X850783Y336178D01*
X851154D01*
Y345694D01*
D02*
G37*
G36*
X701157Y357242D02*
X698383D01*
X695705Y356524D01*
X693303Y355138D01*
X691342Y353177D01*
X689956Y350775D01*
X689238Y348097D01*
Y345323D01*
X689956Y342645D01*
X691342Y340243D01*
X693303Y338282D01*
X695705Y336896D01*
X698383Y336178D01*
X701157D01*
X703835Y336896D01*
X706237Y338282D01*
X708198Y340243D01*
X709584Y342645D01*
X710302Y345323D01*
Y348097D01*
X709584Y350775D01*
X708198Y353177D01*
X706237Y355138D01*
X703835Y356524D01*
X701157Y357242D01*
D02*
G37*
G36*
X853557Y331842D02*
X850783D01*
X848105Y331124D01*
X845703Y329738D01*
X843742Y327777D01*
X842356Y325375D01*
X841638Y322697D01*
Y319923D01*
X842356Y317245D01*
X843742Y314843D01*
X845703Y312882D01*
X848105Y311496D01*
X850783Y310778D01*
X853557D01*
X856235Y311496D01*
X858637Y312882D01*
X860598Y314843D01*
X861984Y317245D01*
X862702Y319923D01*
Y322697D01*
X861984Y325375D01*
X860598Y327777D01*
X858637Y329738D01*
X856235Y331124D01*
X853557Y331842D01*
D02*
G37*
G36*
X701157D02*
X698383D01*
X695705Y331124D01*
X693303Y329738D01*
X691342Y327777D01*
X689956Y325375D01*
X689238Y322697D01*
Y319923D01*
X689956Y317245D01*
X691342Y314843D01*
X693303Y312882D01*
X695705Y311496D01*
X698383Y310778D01*
X701157D01*
X703835Y311496D01*
X706237Y312882D01*
X708198Y314843D01*
X709584Y317245D01*
X710302Y319923D01*
Y322697D01*
X709584Y325375D01*
X708198Y327777D01*
X706237Y329738D01*
X703835Y331124D01*
X701157Y331842D01*
D02*
G37*
G36*
X912646Y322364D02*
X909494D01*
X909294Y322324D01*
X909090D01*
X905999Y321709D01*
X905810Y321631D01*
X905610Y321591D01*
X902698Y320385D01*
X902529Y320272D01*
X902340Y320194D01*
X899720Y318443D01*
X899575Y318298D01*
X899406Y318185D01*
X897177Y315956D01*
X897064Y315787D01*
X896919Y315642D01*
X895168Y313022D01*
X895090Y312833D01*
X894977Y312664D01*
X893771Y309752D01*
X893731Y309552D01*
X893653Y309363D01*
X893038Y306272D01*
Y306068D01*
X892998Y305868D01*
Y302716D01*
X893038Y302516D01*
Y302312D01*
X893653Y299221D01*
X893731Y299032D01*
X893771Y298832D01*
X894977Y295920D01*
X895090Y295751D01*
X895168Y295562D01*
X896919Y292942D01*
X897064Y292797D01*
X897177Y292628D01*
X899406Y290399D01*
X899575Y290286D01*
X899720Y290141D01*
X902340Y288390D01*
X902529Y288312D01*
X902698Y288199D01*
X905610Y286993D01*
X905810Y286953D01*
X905999Y286875D01*
X909090Y286260D01*
X909294D01*
X909494Y286220D01*
X912646D01*
X912846Y286260D01*
X913050D01*
X916141Y286875D01*
X916330Y286953D01*
X916530Y286993D01*
X919442Y288199D01*
X919611Y288312D01*
X919800Y288390D01*
X922420Y290141D01*
X922565Y290286D01*
X922734Y290399D01*
X924963Y292628D01*
X925076Y292797D01*
X925221Y292942D01*
X926972Y295562D01*
X927050Y295751D01*
X927163Y295920D01*
X928369Y298832D01*
X928409Y299032D01*
X928487Y299221D01*
X929102Y302312D01*
Y302516D01*
X929142Y302716D01*
Y305868D01*
X929102Y306068D01*
Y306272D01*
X928487Y309363D01*
X928409Y309552D01*
X928369Y309752D01*
X927163Y312664D01*
X927050Y312833D01*
X926972Y313022D01*
X925221Y315642D01*
X925076Y315787D01*
X924963Y315956D01*
X922734Y318185D01*
X922565Y318298D01*
X922420Y318443D01*
X919800Y320194D01*
X919611Y320272D01*
X919442Y320385D01*
X916530Y321591D01*
X916330Y321631D01*
X916141Y321709D01*
X913050Y322324D01*
X912846D01*
X912646Y322364D01*
D02*
G37*
G36*
X853557Y306442D02*
X850783D01*
X848105Y305724D01*
X845703Y304338D01*
X843742Y302377D01*
X842356Y299975D01*
X841638Y297297D01*
Y294524D01*
X842356Y291845D01*
X843742Y289443D01*
X845703Y287482D01*
X848105Y286096D01*
X850783Y285378D01*
X853557D01*
X856235Y286096D01*
X858637Y287482D01*
X860598Y289443D01*
X861984Y291845D01*
X862702Y294524D01*
Y297297D01*
X861984Y299975D01*
X860598Y302377D01*
X858637Y304338D01*
X856235Y305724D01*
X853557Y306442D01*
D02*
G37*
G36*
X701157D02*
X698383D01*
X695705Y305724D01*
X693303Y304338D01*
X691342Y302377D01*
X689956Y299975D01*
X689238Y297297D01*
Y294524D01*
X689956Y291845D01*
X691342Y289443D01*
X693303Y287482D01*
X695705Y286096D01*
X698383Y285378D01*
X701157D01*
X703835Y286096D01*
X706237Y287482D01*
X708198Y289443D01*
X709584Y291845D01*
X710302Y294524D01*
Y297297D01*
X709584Y299975D01*
X708198Y302377D01*
X706237Y304338D01*
X703835Y305724D01*
X701157Y306442D01*
D02*
G37*
G36*
X853557Y281042D02*
X850783D01*
X848105Y280324D01*
X845703Y278938D01*
X843742Y276977D01*
X842356Y274575D01*
X841638Y271897D01*
Y269123D01*
X842356Y266445D01*
X843742Y264043D01*
X845703Y262082D01*
X848105Y260696D01*
X850783Y259978D01*
X853557D01*
X856235Y260696D01*
X858637Y262082D01*
X860598Y264043D01*
X861984Y266445D01*
X862702Y269123D01*
Y271897D01*
X861984Y274575D01*
X860598Y276977D01*
X858637Y278938D01*
X856235Y280324D01*
X853557Y281042D01*
D02*
G37*
G36*
X701157D02*
X698383D01*
X695705Y280324D01*
X693303Y278938D01*
X691342Y276977D01*
X689956Y274575D01*
X689238Y271897D01*
Y269123D01*
X689956Y266445D01*
X691342Y264043D01*
X693303Y262082D01*
X695705Y260696D01*
X698383Y259978D01*
X701157D01*
X703835Y260696D01*
X706237Y262082D01*
X708198Y264043D01*
X709584Y266445D01*
X710302Y269123D01*
Y271897D01*
X709584Y274575D01*
X708198Y276977D01*
X706237Y278938D01*
X703835Y280324D01*
X701157Y281042D01*
D02*
G37*
G36*
Y255642D02*
X698383D01*
X695705Y254924D01*
X693303Y253538D01*
X691342Y251577D01*
X689956Y249175D01*
X689238Y246497D01*
Y243724D01*
X689956Y241045D01*
X691342Y238643D01*
X691537Y238449D01*
X690695Y236417D01*
X653896D01*
X653744Y236784D01*
X652328Y238200D01*
X650479Y238966D01*
X648477D01*
X646628Y238200D01*
X645212Y236784D01*
X644446Y234935D01*
Y232933D01*
X645212Y231084D01*
X646628Y229668D01*
X648477Y228902D01*
X649755D01*
X650066Y228694D01*
X651602Y228389D01*
X690680D01*
X691522Y226357D01*
X691342Y226177D01*
X689956Y223775D01*
X689238Y221097D01*
Y218323D01*
X689956Y215645D01*
X691342Y213243D01*
X693303Y211282D01*
X695705Y209896D01*
X698383Y209178D01*
X701157D01*
X703835Y209896D01*
X706237Y211282D01*
X708198Y213243D01*
X709584Y215645D01*
X710302Y218323D01*
Y221097D01*
X709584Y223775D01*
X708198Y226177D01*
X708018Y226357D01*
X708860Y228389D01*
X739855D01*
X740608Y227636D01*
X742457Y226870D01*
X744459D01*
X746308Y227636D01*
X747724Y229052D01*
X748490Y230901D01*
Y232903D01*
X747724Y234752D01*
X746308Y236168D01*
X744459Y236934D01*
X742457D01*
X741208Y236417D01*
X708845D01*
X708003Y238449D01*
X708198Y238643D01*
X709584Y241045D01*
X710302Y243724D01*
Y246497D01*
X709584Y249175D01*
X708198Y251577D01*
X706237Y253538D01*
X703835Y254924D01*
X701157Y255642D01*
D02*
G37*
G36*
X853557D02*
X850783D01*
X848105Y254924D01*
X845703Y253538D01*
X843742Y251577D01*
X842356Y249175D01*
X841638Y246497D01*
Y243724D01*
X842356Y241045D01*
X843742Y238643D01*
X845703Y236682D01*
X848105Y235296D01*
X850783Y234578D01*
X853557D01*
X856235Y235296D01*
X858637Y236682D01*
X860598Y238643D01*
X861984Y241045D01*
X862702Y243724D01*
Y246497D01*
X861984Y249175D01*
X860598Y251577D01*
X858637Y253538D01*
X856235Y254924D01*
X853557Y255642D01*
D02*
G37*
G36*
Y230242D02*
X850783D01*
X848105Y229524D01*
X845703Y228138D01*
X843742Y226177D01*
X842356Y223775D01*
X841638Y221097D01*
Y218323D01*
X842356Y215645D01*
X843742Y213243D01*
X845703Y211282D01*
X848105Y209896D01*
X850783Y209178D01*
X853557D01*
X856235Y209896D01*
X858637Y211282D01*
X860598Y213243D01*
X861984Y215645D01*
X862702Y218323D01*
Y221097D01*
X861984Y223775D01*
X860598Y226177D01*
X858637Y228138D01*
X856235Y229524D01*
X853557Y230242D01*
D02*
G37*
G36*
Y204842D02*
X850783D01*
X848105Y204124D01*
X845703Y202738D01*
X843742Y200777D01*
X842356Y198375D01*
X841638Y195697D01*
Y192924D01*
X842356Y190245D01*
X843742Y187843D01*
X845703Y185882D01*
X848105Y184496D01*
X850783Y183778D01*
X853557D01*
X856235Y184496D01*
X858637Y185882D01*
X860598Y187843D01*
X861984Y190245D01*
X862702Y192924D01*
Y195697D01*
X861984Y198375D01*
X860598Y200777D01*
X858637Y202738D01*
X856235Y204124D01*
X853557Y204842D01*
D02*
G37*
G36*
X701157D02*
X698383D01*
X695705Y204124D01*
X693303Y202738D01*
X691342Y200777D01*
X689956Y198375D01*
X689238Y195697D01*
Y192924D01*
X689956Y190245D01*
X691342Y187843D01*
X693303Y185882D01*
X695705Y184496D01*
X698383Y183778D01*
X701157D01*
X703835Y184496D01*
X706237Y185882D01*
X708198Y187843D01*
X709584Y190245D01*
X710302Y192924D01*
Y195697D01*
X709584Y198375D01*
X708198Y200777D01*
X706237Y202738D01*
X703835Y204124D01*
X701157Y204842D01*
D02*
G37*
G36*
X853557Y179442D02*
X850783D01*
X848105Y178724D01*
X845703Y177338D01*
X843742Y175377D01*
X842356Y172975D01*
X841638Y170297D01*
Y167523D01*
X842356Y164845D01*
X843742Y162443D01*
X845703Y160482D01*
X848105Y159096D01*
X850783Y158378D01*
X853557D01*
X856235Y159096D01*
X858637Y160482D01*
X860598Y162443D01*
X861984Y164845D01*
X862702Y167523D01*
Y170297D01*
X861984Y172975D01*
X860598Y175377D01*
X858637Y177338D01*
X856235Y178724D01*
X853557Y179442D01*
D02*
G37*
G36*
X839521Y93852D02*
X836879D01*
X834328Y93168D01*
X832040Y91848D01*
X830172Y89980D01*
X828852Y87692D01*
X828168Y85141D01*
Y82499D01*
X828852Y79948D01*
X830172Y77660D01*
X832040Y75792D01*
X834328Y74472D01*
X836879Y73788D01*
X839521D01*
X842072Y74472D01*
X844360Y75792D01*
X846228Y77660D01*
X847548Y79948D01*
X848232Y82499D01*
Y85141D01*
X847548Y87692D01*
X846228Y89980D01*
X844360Y91848D01*
X842072Y93168D01*
X839521Y93852D01*
D02*
G37*
G36*
X701157Y179442D02*
X698383D01*
X695705Y178724D01*
X693303Y177338D01*
X691342Y175377D01*
X689956Y172975D01*
X689238Y170297D01*
Y167523D01*
X689956Y164845D01*
X691342Y162443D01*
X693303Y160482D01*
X695705Y159096D01*
X698383Y158378D01*
X701157D01*
X703835Y159096D01*
X704853Y159683D01*
X706100Y158057D01*
X686264Y138220D01*
X685393Y136918D01*
X685088Y135382D01*
Y120704D01*
X684836Y120452D01*
X684070Y118603D01*
Y116601D01*
X684836Y114752D01*
X686252Y113336D01*
X688101Y112570D01*
X690103D01*
X691952Y113336D01*
X693368Y114752D01*
X694134Y116601D01*
Y118603D01*
X693368Y120452D01*
X693116Y120704D01*
Y133719D01*
X716163Y156766D01*
X716519D01*
X718368Y157532D01*
X719784Y158948D01*
X720550Y160797D01*
Y162799D01*
X722325Y163717D01*
X722542Y163801D01*
X798809Y87534D01*
X798168Y85141D01*
Y82499D01*
X798852Y79948D01*
X800173Y77660D01*
X802040Y75792D01*
X804328Y74472D01*
X806879Y73788D01*
X809521D01*
X812072Y74472D01*
X814360Y75792D01*
X816228Y77660D01*
X817548Y79948D01*
X818232Y82499D01*
Y85141D01*
X817548Y87692D01*
X816228Y89980D01*
X814360Y91848D01*
X812072Y93168D01*
X809521Y93852D01*
X806879D01*
X804486Y93211D01*
X725948Y171749D01*
X724646Y172619D01*
X723110Y172924D01*
X709598D01*
X709584Y172975D01*
X708198Y175377D01*
X706237Y177338D01*
X703835Y178724D01*
X701157Y179442D01*
D02*
G37*
G36*
X723646Y69101D02*
Y55626D01*
X733505D01*
Y58360D01*
X733135Y61175D01*
X732048Y63798D01*
X730320Y66050D01*
X728067Y67778D01*
X725445Y68865D01*
X723646Y69101D01*
D02*
G37*
G36*
X721614D02*
X719815Y68865D01*
X717193Y67778D01*
X714940Y66050D01*
X713212Y63798D01*
X712125Y61175D01*
X711755Y58360D01*
Y55626D01*
X721614D01*
Y69101D01*
D02*
G37*
G36*
X733505Y53594D02*
X723646D01*
Y40119D01*
X725445Y40356D01*
X728067Y41442D01*
X730320Y43170D01*
X732048Y45423D01*
X733135Y48045D01*
X733505Y50860D01*
Y53594D01*
D02*
G37*
G36*
X721614D02*
X711755D01*
Y50860D01*
X712125Y48045D01*
X713212Y45423D01*
X714940Y43170D01*
X717193Y41442D01*
X719815Y40356D01*
X721614Y40119D01*
Y53594D01*
D02*
G37*
G36*
X748030Y69235D02*
X745215Y68865D01*
X742592Y67778D01*
X740340Y66050D01*
X738612Y63798D01*
X737525Y61175D01*
X737155Y58360D01*
Y50860D01*
X737525Y48045D01*
X738612Y45423D01*
X740340Y43170D01*
X742592Y41442D01*
X745215Y40356D01*
X748030Y39985D01*
X750845Y40356D01*
X753467Y41442D01*
X755720Y43170D01*
X757448Y45423D01*
X758534Y48045D01*
X758905Y50860D01*
Y58360D01*
X758534Y61175D01*
X757448Y63798D01*
X755720Y66050D01*
X753467Y67778D01*
X750845Y68865D01*
X748030Y69235D01*
D02*
G37*
G36*
X839521Y38852D02*
X839216D01*
Y29836D01*
X848232D01*
Y30141D01*
X847548Y32692D01*
X846228Y34980D01*
X844360Y36847D01*
X842072Y38168D01*
X839521Y38852D01*
D02*
G37*
G36*
X837184D02*
X836879D01*
X834328Y38168D01*
X832040Y36847D01*
X830172Y34980D01*
X828852Y32692D01*
X828168Y30141D01*
Y29836D01*
X837184D01*
Y38852D01*
D02*
G37*
G36*
X848232Y27804D02*
X839216D01*
Y18788D01*
X839521D01*
X842072Y19471D01*
X844360Y20792D01*
X846228Y22660D01*
X847548Y24948D01*
X848232Y27499D01*
Y27804D01*
D02*
G37*
G36*
X837184D02*
X828168D01*
Y27499D01*
X828852Y24948D01*
X830172Y22660D01*
X832040Y20792D01*
X834328Y19471D01*
X836879Y18788D01*
X837184D01*
Y27804D01*
D02*
G37*
G36*
X809521Y38852D02*
X806879D01*
X804328Y38168D01*
X802040Y36847D01*
X800173Y34980D01*
X798852Y32692D01*
X798168Y30141D01*
Y27499D01*
X798852Y24948D01*
X800173Y22660D01*
X802040Y20792D01*
X804328Y19471D01*
X806879Y18788D01*
X809521D01*
X812072Y19471D01*
X814360Y20792D01*
X816228Y22660D01*
X817548Y24948D01*
X818232Y27499D01*
Y30141D01*
X817548Y32692D01*
X816228Y34980D01*
X814360Y36847D01*
X812072Y38168D01*
X809521Y38852D01*
D02*
G37*
G36*
X912646Y48072D02*
X909494D01*
X909294Y48032D01*
X909090D01*
X905999Y47417D01*
X905810Y47339D01*
X905610Y47299D01*
X902698Y46093D01*
X902529Y45980D01*
X902340Y45902D01*
X899720Y44151D01*
X899575Y44006D01*
X899406Y43893D01*
X897177Y41664D01*
X897064Y41495D01*
X896919Y41350D01*
X895168Y38730D01*
X895090Y38541D01*
X894977Y38372D01*
X893771Y35460D01*
X893731Y35260D01*
X893653Y35071D01*
X893038Y31980D01*
Y31776D01*
X892998Y31576D01*
Y28424D01*
X893038Y28224D01*
Y28020D01*
X893653Y24929D01*
X893731Y24740D01*
X893771Y24540D01*
X894977Y21628D01*
X895090Y21459D01*
X895168Y21270D01*
X896919Y18649D01*
X897064Y18505D01*
X897177Y18336D01*
X899406Y16107D01*
X899575Y15993D01*
X899720Y15849D01*
X902340Y14098D01*
X902529Y14020D01*
X902698Y13907D01*
X905610Y12701D01*
X905810Y12661D01*
X905999Y12583D01*
X909090Y11968D01*
X909294D01*
X909494Y11928D01*
X912646D01*
X912846Y11968D01*
X913050D01*
X916141Y12583D01*
X916330Y12661D01*
X916530Y12701D01*
X919442Y13907D01*
X919611Y14020D01*
X919800Y14098D01*
X922420Y15849D01*
X922565Y15994D01*
X922734Y16107D01*
X924963Y18336D01*
X925076Y18505D01*
X925221Y18649D01*
X926972Y21270D01*
X927050Y21459D01*
X927163Y21628D01*
X928369Y24540D01*
X928409Y24740D01*
X928487Y24929D01*
X929102Y28020D01*
Y28224D01*
X929142Y28424D01*
Y31576D01*
X929102Y31776D01*
Y31980D01*
X928487Y35071D01*
X928409Y35260D01*
X928369Y35460D01*
X927163Y38372D01*
X927050Y38541D01*
X926972Y38730D01*
X925221Y41350D01*
X925076Y41495D01*
X924963Y41664D01*
X922734Y43893D01*
X922565Y44006D01*
X922420Y44151D01*
X919800Y45902D01*
X919611Y45980D01*
X919442Y46093D01*
X916530Y47299D01*
X916330Y47339D01*
X916141Y47417D01*
X913050Y48032D01*
X912846D01*
X912646Y48072D01*
D02*
G37*
%LPD*%
D51*
X651602Y232403D02*
X741382D01*
X743039Y232321D02*
X743458Y231902D01*
X741463Y232321D02*
X743039D01*
X649478Y233934D02*
X650071D01*
X741382Y232403D02*
X741463Y232321D01*
X650071Y233934D02*
X651602Y232403D01*
X689102Y135382D02*
X715518Y161798D01*
X689102Y117602D02*
Y135382D01*
X699770Y168910D02*
X723110D01*
X808200Y83820D01*
X469900Y176530D02*
X509196D01*
X522989Y190323D01*
D52*
X269240Y224080D02*
X270748Y222572D01*
Y213884D02*
X354076Y130556D01*
X270748Y213884D02*
Y222572D01*
X354076Y130556D02*
X354076D01*
X205590Y367340D02*
X236220Y336710D01*
Y335280D02*
Y336710D01*
X107640Y367340D02*
X205590D01*
X267732Y320988D02*
Y327248D01*
X227640Y367340D02*
X267732Y327248D01*
Y320988D02*
X269240Y319480D01*
D53*
X682752Y14732D02*
X722630Y54610D01*
X429260Y14732D02*
X682752D01*
X391790Y52202D02*
X429260Y14732D01*
X391790Y52202D02*
Y181540D01*
D55*
X227640Y367340D02*
D03*
X167640Y387340D02*
D03*
X107640Y245340D02*
D03*
X227640D02*
D03*
X107640Y367340D02*
D03*
D56*
X97790Y129540D02*
D03*
D57*
Y79540D02*
D03*
X391790Y181540D02*
D03*
Y27540D02*
D03*
D58*
X49530Y93980D02*
D03*
X30480Y307340D02*
D03*
X24130Y93980D02*
D03*
X722630Y54610D02*
D03*
X748030D02*
D03*
X55880Y307340D02*
D03*
D59*
X852170Y346710D02*
D03*
Y168910D02*
D03*
Y194310D02*
D03*
Y219710D02*
D03*
Y245110D02*
D03*
Y270510D02*
D03*
Y295910D02*
D03*
Y321310D02*
D03*
Y372110D02*
D03*
X699770Y168910D02*
D03*
Y194310D02*
D03*
Y219710D02*
D03*
Y245110D02*
D03*
Y270510D02*
D03*
Y295910D02*
D03*
Y321310D02*
D03*
Y346710D02*
D03*
Y372110D02*
D03*
D60*
X838200Y28820D02*
D03*
Y83820D02*
D03*
X808200D02*
D03*
Y28820D02*
D03*
D61*
X269240Y224080D02*
D03*
Y319480D02*
D03*
D62*
X491236Y14606D02*
D03*
X520954Y14478D02*
D03*
X743458Y231902D02*
D03*
X649478Y233934D02*
D03*
X715518Y161798D02*
D03*
X799084Y135128D02*
D03*
X784860Y52324D02*
D03*
X650240Y169926D02*
D03*
X689102Y117602D02*
D03*
X649224Y246888D02*
D03*
X657860Y130048D02*
D03*
X674370Y111506D02*
D03*
X906272Y356362D02*
D03*
X469900Y176530D02*
D03*
X522989Y190323D02*
D03*
X495300Y195580D02*
D03*
Y201930D02*
D03*
X521716Y169571D02*
D03*
X493014Y125222D02*
D03*
X452374Y124714D02*
D03*
X354076Y130556D02*
D03*
X299902Y205922D02*
D03*
X299720Y294640D02*
D03*
Y251460D02*
D03*
Y220980D02*
D03*
Y302260D02*
D03*
Y287020D02*
D03*
Y325120D02*
D03*
Y243840D02*
D03*
Y228600D02*
D03*
Y236220D02*
D03*
Y317500D02*
D03*
Y309880D02*
D03*
Y213360D02*
D03*
X307340Y294640D02*
D03*
Y287020D02*
D03*
Y228600D02*
D03*
Y302260D02*
D03*
Y236220D02*
D03*
Y220980D02*
D03*
Y309880D02*
D03*
Y317500D02*
D03*
Y205740D02*
D03*
Y213360D02*
D03*
X387350Y251460D02*
D03*
Y272288D02*
D03*
X470154Y189230D02*
D03*
X431546Y149352D02*
D03*
X523240Y246380D02*
D03*
X467360Y264160D02*
D03*
Y243840D02*
D03*
X337820Y251460D02*
D03*
Y243840D02*
D03*
Y213360D02*
D03*
Y220980D02*
D03*
Y205740D02*
D03*
Y236220D02*
D03*
Y228600D02*
D03*
X330200Y251460D02*
D03*
X322580Y243840D02*
D03*
X330200D02*
D03*
X322580Y251460D02*
D03*
X330200Y236220D02*
D03*
X322580D02*
D03*
X314960D02*
D03*
Y228600D02*
D03*
Y251460D02*
D03*
X307340D02*
D03*
Y243840D02*
D03*
X314960D02*
D03*
X330200Y228600D02*
D03*
X322580Y220980D02*
D03*
X330200D02*
D03*
X322580Y228600D02*
D03*
X314960Y213360D02*
D03*
X330200D02*
D03*
X322580Y205740D02*
D03*
X330200D02*
D03*
X322580Y213360D02*
D03*
X314960Y205740D02*
D03*
Y220980D02*
D03*
X236220Y335280D02*
D03*
X307340Y325120D02*
D03*
X314960D02*
D03*
X322580D02*
D03*
X330200D02*
D03*
X337820D02*
D03*
Y317500D02*
D03*
X330200D02*
D03*
X322580D02*
D03*
X314960D02*
D03*
Y302260D02*
D03*
X322580D02*
D03*
X330200D02*
D03*
X337820D02*
D03*
Y309880D02*
D03*
X330200D02*
D03*
X322580D02*
D03*
X314960D02*
D03*
Y287020D02*
D03*
X322580D02*
D03*
X330200D02*
D03*
X337820D02*
D03*
Y294640D02*
D03*
X330200D02*
D03*
X322580D02*
D03*
X314960D02*
D03*
M02*
