G04*
G04 #@! TF.GenerationSoftware,Altium Limited,Altium Designer,26.10.1 (5)*
G04*
G04 Layer_Color=0*
G04 Board_Origin=17350000|28099997*
%FSLAX44Y44*%
%MOMM*%
G71*
G04*
G04 #@! TF.SameCoordinates,4052EFD6-7243-4EC4-BE30-6AAA83A439E8*
G04*
G04*
G04 #@! TF.FilePolarity,Positive*
G04*
G01*
G75*
%ADD67C,0.0254*%
G36*
X895070Y304292D02*
Y302716D01*
X895685Y299625D01*
X896891Y296713D01*
X898642Y294093D01*
X900871Y291864D01*
X903491Y290113D01*
X906403Y288907D01*
X909494Y288292D01*
X911070D01*
X912646D01*
X915737Y288907D01*
X918649Y290113D01*
X921269Y291864D01*
X923498Y294093D01*
X925249Y296713D01*
X926455Y299625D01*
X927070Y302716D01*
Y304292D01*
Y305868D01*
X926455Y308959D01*
X925249Y311871D01*
X923498Y314491D01*
X921269Y316720D01*
X918649Y318471D01*
X915737Y319677D01*
X912646Y320292D01*
X911070D01*
X909494D01*
X906403Y319677D01*
X903491Y318471D01*
X900871Y316720D01*
X898642Y314491D01*
X896891Y311871D01*
X895685Y308959D01*
X895070Y305868D01*
Y304292D01*
D01*
D02*
G37*
G36*
X30050Y365325D02*
X31626D01*
X34717Y365939D01*
X37629Y367146D01*
X40249Y368896D01*
X42478Y371125D01*
X44229Y373746D01*
X45435Y376657D01*
X46050Y379749D01*
Y381325D01*
Y382900D01*
X45435Y385992D01*
X44229Y388903D01*
X42478Y391524D01*
X40249Y393753D01*
X37629Y395504D01*
X34717Y396710D01*
X31626Y397324D01*
X30050D01*
X28474D01*
X25383Y396710D01*
X22471Y395504D01*
X19851Y393753D01*
X17622Y391524D01*
X15871Y388903D01*
X14665Y385992D01*
X14050Y382900D01*
Y381325D01*
Y379749D01*
X14665Y376657D01*
X15871Y373746D01*
X17622Y371125D01*
X19851Y368896D01*
X22471Y367146D01*
X25383Y365939D01*
X28474Y365325D01*
X30050D01*
D01*
D02*
G37*
G36*
X566420Y134620D02*
Y266700D01*
Y267710D01*
X567193Y269578D01*
X568622Y271007D01*
X570490Y271780D01*
X571500D01*
D01*
X599440D01*
X600451D01*
X602318Y271007D01*
X603747Y269578D01*
X604520Y267710D01*
Y266700D01*
D01*
Y134620D01*
Y133610D01*
X603747Y131742D01*
X602318Y130313D01*
X600451Y129540D01*
X599440D01*
D01*
X571500D01*
X570490D01*
X568622Y130313D01*
X567193Y131742D01*
X566420Y133610D01*
Y134620D01*
D01*
D02*
G37*
G36*
X895070Y30000D02*
Y28424D01*
X895685Y25333D01*
X896891Y22421D01*
X898642Y19801D01*
X900871Y17572D01*
X903491Y15821D01*
X906403Y14615D01*
X909494Y14000D01*
X911070D01*
X912646D01*
X915737Y14615D01*
X918649Y15821D01*
X921269Y17572D01*
X923498Y19801D01*
X925249Y22421D01*
X926455Y25333D01*
X927070Y28424D01*
Y30000D01*
Y31576D01*
X926455Y34667D01*
X925249Y37579D01*
X923498Y40199D01*
X921269Y42428D01*
X918649Y44179D01*
X915737Y45385D01*
X912646Y46000D01*
X911070D01*
X909494D01*
X906403Y45385D01*
X903491Y44179D01*
X900871Y42428D01*
X898642Y40199D01*
X896891Y37579D01*
X895685Y34667D01*
X895070Y31576D01*
Y30000D01*
D01*
D02*
G37*
G36*
X30000Y14000D02*
X28424D01*
X25333Y14615D01*
X22421Y15821D01*
X19801Y17572D01*
X17572Y19801D01*
X15821Y22421D01*
X14615Y25333D01*
X14000Y28424D01*
Y30000D01*
Y31576D01*
X14615Y34667D01*
X15821Y37579D01*
X17572Y40199D01*
X19801Y42428D01*
X22421Y44179D01*
X25333Y45385D01*
X28424Y46000D01*
X30000D01*
X31576D01*
X34667Y45385D01*
X37579Y44179D01*
X40199Y42428D01*
X42428Y40199D01*
X44179Y37579D01*
X45385Y34667D01*
X46000Y31576D01*
Y30000D01*
Y28424D01*
X45385Y25333D01*
X44179Y22421D01*
X42428Y19801D01*
X40199Y17572D01*
X37579Y15821D01*
X34667Y14615D01*
X31576Y14000D01*
X30000D01*
D01*
D02*
G37*
D67*
X12700Y0D02*
G02*
X0Y12700I0J12700D01*
G01*
Y398780D01*
D02*
G02*
X12700Y411480I12700J0D01*
G01*
X928370D01*
D02*
G02*
X941070Y398780I0J-12700D01*
G01*
Y12700D01*
D02*
G02*
X928370Y0I-12700J0D01*
G01*
X29210Y0D01*
X12700D01*
M02*
