G04*
G04 #@! TF.GenerationSoftware,Altium Limited,Altium Designer,26.10.1 (5)*
G04*
G04 Layer_Color=8388736*
G04 Board_Origin=17350000|28099997*
%FSLAX44Y44*%
%MOMM*%
G71*
G04*
G04 #@! TF.SameCoordinates,511BB809-57DB-4399-977C-E770D7055A2C*
G04*
G04*
G04 #@! TF.FilePolarity,Negative*
G04*
G01*
G75*
%ADD17R,1.6552X0.6025*%
G04:AMPARAMS|DCode=18|XSize=1.6552mm|YSize=0.6025mm|CornerRadius=0.3012mm|HoleSize=0mm|Usage=FLASHONLY|Rotation=180.000|XOffset=0mm|YOffset=0mm|HoleType=Round|Shape=RoundedRectangle|*
%AMROUNDEDRECTD18*
21,1,1.6552,0.0000,0,0,180.0*
21,1,1.0528,0.6025,0,0,180.0*
1,1,0.6025,-0.5264,0.0000*
1,1,0.6025,0.5264,0.0000*
1,1,0.6025,0.5264,0.0000*
1,1,0.6025,-0.5264,0.0000*
%
%ADD18ROUNDEDRECTD18*%
%ADD31R,2.9310X1.5494*%
%ADD32R,1.5000X1.3000*%
%ADD33O,2.5021X0.6756*%
%ADD34R,1.3000X1.5000*%
%ADD35R,1.4500X1.5500*%
%ADD36R,1.5500X1.4500*%
%ADD37O,1.9636X0.5056*%
%ADD38R,1.8000X1.3500*%
%ADD39R,1.0500X1.3500*%
%ADD40R,1.8000X1.4000*%
%ADD41R,1.7500X3.8000*%
%ADD42R,1.3500X1.3500*%
%ADD43R,3.8000X1.7500*%
%ADD44C,2.1000*%
%ADD45R,1.6580X1.6580*%
%ADD46C,1.6580*%
%ADD47O,1.9000X2.6500*%
%ADD48C,1.8500*%
%ADD49C,1.7500*%
%ADD50C,1.7000*%
D17*
X656693Y82702D02*
D03*
D18*
Y101702D02*
D03*
X637183Y92202D02*
D03*
D31*
X686315Y372135D02*
D03*
Y346735D02*
D03*
Y321335D02*
D03*
Y295935D02*
D03*
Y270535D02*
D03*
Y245135D02*
D03*
Y219735D02*
D03*
Y194335D02*
D03*
Y168935D02*
D03*
X865625Y372085D02*
D03*
Y346685D02*
D03*
Y321285D02*
D03*
Y295885D02*
D03*
Y270485D02*
D03*
Y245085D02*
D03*
Y219685D02*
D03*
Y194285D02*
D03*
Y168885D02*
D03*
D32*
X674370Y83960D02*
D03*
Y101460D02*
D03*
X513189Y155165D02*
D03*
Y137665D02*
D03*
X493014Y137554D02*
D03*
Y155054D02*
D03*
X452120Y137554D02*
D03*
Y155054D02*
D03*
X471932Y155168D02*
D03*
X674370Y64630D02*
D03*
Y47130D02*
D03*
X471932Y137668D02*
D03*
D33*
X538152Y246639D02*
D03*
Y170439D02*
D03*
X633158Y246639D02*
D03*
Y170439D02*
D03*
Y157739D02*
D03*
Y183139D02*
D03*
Y195839D02*
D03*
Y208539D02*
D03*
Y221239D02*
D03*
Y233939D02*
D03*
X538152Y157739D02*
D03*
Y183139D02*
D03*
Y195839D02*
D03*
Y208539D02*
D03*
Y221239D02*
D03*
Y233939D02*
D03*
D34*
X481470Y264160D02*
D03*
X809130Y135890D02*
D03*
X730390Y105410D02*
D03*
X747890D02*
D03*
X826630Y135890D02*
D03*
X498970Y264160D02*
D03*
D35*
X482600Y243840D02*
D03*
X498600D02*
D03*
D36*
X373380Y272290D02*
D03*
Y251460D02*
D03*
X431800Y160910D02*
D03*
X503936Y14606D02*
D03*
X478536D02*
D03*
X892810Y356110D02*
D03*
X657860Y140590D02*
D03*
X784860Y65280D02*
D03*
Y81280D02*
D03*
X657860Y156590D02*
D03*
X892810Y372110D02*
D03*
X503936Y30606D02*
D03*
X478536D02*
D03*
X431800Y176910D02*
D03*
X373380Y288290D02*
D03*
Y235460D02*
D03*
D37*
X508965Y202006D02*
D03*
Y195656D02*
D03*
X455854Y189306D02*
D03*
X508965D02*
D03*
X455854Y221056D02*
D03*
Y214706D02*
D03*
Y208356D02*
D03*
Y202006D02*
D03*
Y195656D02*
D03*
Y182956D02*
D03*
Y176606D02*
D03*
X508965Y221056D02*
D03*
Y214706D02*
D03*
Y208356D02*
D03*
Y182956D02*
D03*
Y176606D02*
D03*
D38*
X309880Y247240D02*
D03*
Y275240D02*
D03*
D39*
X332060Y233680D02*
D03*
X886120Y396240D02*
D03*
X907120D02*
D03*
X353060Y233680D02*
D03*
X332400Y287910D02*
D03*
X353400D02*
D03*
D40*
X456946Y12976D02*
D03*
Y47476D02*
D03*
D41*
X269240Y367030D02*
D03*
X449580D02*
D03*
X513080D02*
D03*
X511810Y306070D02*
D03*
X448310D02*
D03*
X360680Y367030D02*
D03*
X424180D02*
D03*
X332740D02*
D03*
D42*
X848020Y135890D02*
D03*
X869020D02*
D03*
D43*
X552450Y368300D02*
D03*
Y304800D02*
D03*
D44*
X227640Y367340D02*
D03*
X167640Y387340D02*
D03*
X107640Y245340D02*
D03*
X227640D02*
D03*
X107640Y367340D02*
D03*
D45*
X97790Y129540D02*
D03*
D46*
Y79540D02*
D03*
X391790Y181540D02*
D03*
Y27540D02*
D03*
D47*
X49530Y93980D02*
D03*
X30480Y307340D02*
D03*
X24130Y93980D02*
D03*
X722630Y54610D02*
D03*
X748030D02*
D03*
X55880Y307340D02*
D03*
D48*
X852170Y346710D02*
D03*
Y168910D02*
D03*
Y194310D02*
D03*
Y219710D02*
D03*
Y245110D02*
D03*
Y270510D02*
D03*
Y295910D02*
D03*
Y321310D02*
D03*
Y372110D02*
D03*
X699770Y168910D02*
D03*
Y194310D02*
D03*
Y219710D02*
D03*
Y245110D02*
D03*
Y270510D02*
D03*
Y295910D02*
D03*
Y321310D02*
D03*
Y346710D02*
D03*
Y372110D02*
D03*
D49*
X838200Y28820D02*
D03*
Y83820D02*
D03*
X808200D02*
D03*
Y28820D02*
D03*
D50*
X269240Y224080D02*
D03*
Y319480D02*
D03*
M02*
