G04*
G04 #@! TF.GenerationSoftware,Altium Limited,Altium Designer,26.10.1 (5)*
G04*
G04 Layer_Physical_Order=1*
G04 Layer_Color=255*
G04 Board_Origin=17350000|28099997*
%FSLAX44Y44*%
%MOMM*%
G71*
G04*
G04 #@! TF.SameCoordinates,511BB809-57DB-4399-977C-E770D7055A2C*
G04*
G04*
G04 #@! TF.FilePolarity,Positive*
G04*
G01*
G75*
%ADD17R,1.6552X0.6025*%
G04:AMPARAMS|DCode=18|XSize=1.6552mm|YSize=0.6025mm|CornerRadius=0.3012mm|HoleSize=0mm|Usage=FLASHONLY|Rotation=180.000|XOffset=0mm|YOffset=0mm|HoleType=Round|Shape=RoundedRectangle|*
%AMROUNDEDRECTD18*
21,1,1.6552,0.0000,0,0,180.0*
21,1,1.0528,0.6025,0,0,180.0*
1,1,0.6025,-0.5264,0.0000*
1,1,0.6025,0.5264,0.0000*
1,1,0.6025,0.5264,0.0000*
1,1,0.6025,-0.5264,0.0000*
%
%ADD18ROUNDEDRECTD18*%
%ADD19R,1.3500X1.1500*%
%ADD20O,2.4005X0.5740*%
%ADD21R,1.1500X1.3500*%
%ADD22R,1.3000X1.4000*%
%ADD23R,1.4000X1.3000*%
%ADD24O,1.8136X0.3556*%
%ADD25R,1.6500X1.2000*%
%ADD26R,0.9000X1.2000*%
%ADD27R,1.6500X1.2500*%
%ADD28R,1.6000X3.6500*%
%ADD29R,1.2000X1.2000*%
%ADD30R,3.6500X1.6000*%
%ADD51C,0.3810*%
%ADD52C,0.7620*%
%ADD53C,1.0160*%
%ADD54R,3.0000X1.7000*%
%ADD55C,1.9500*%
%ADD56R,1.5080X1.5080*%
%ADD57C,1.5080*%
%ADD58O,1.7500X2.5000*%
%ADD59C,1.7000*%
%ADD60C,1.6000*%
%ADD61C,1.5500*%
%ADD62C,0.6000*%
G36*
X185420Y287782D02*
X2039D01*
Y345948D01*
X78994D01*
Y409441D01*
X185420D01*
Y287782D01*
D02*
G37*
G36*
X342900Y266700D02*
X294640D01*
Y330200D01*
X342900D01*
Y266700D01*
D02*
G37*
G36*
X127000Y248321D02*
X119994D01*
X119620Y248570D01*
X117341Y249023D01*
X112380D01*
X111852Y249552D01*
X109919Y250843D01*
X107640Y251296D01*
X105361Y250843D01*
X103428Y249552D01*
X102137Y247619D01*
X101684Y245340D01*
X102137Y243061D01*
X103428Y241128D01*
X105701Y238855D01*
X107634Y237564D01*
X109913Y237110D01*
X115391D01*
X115764Y236861D01*
X118044Y236408D01*
X127000D01*
Y200660D01*
Y2039D01*
X69492D01*
Y59779D01*
X2039D01*
Y268986D01*
X127000D01*
Y248321D01*
D02*
G37*
G36*
X342900Y200660D02*
X294640D01*
Y256540D01*
X342900D01*
Y200660D01*
D02*
G37*
%LPC*%
G36*
X109191Y379122D02*
X106089D01*
X103092Y378319D01*
X100406Y376768D01*
X98212Y374574D01*
X96661Y371888D01*
X95858Y368891D01*
Y365789D01*
X96661Y362792D01*
X98212Y360106D01*
X100406Y357912D01*
X103092Y356361D01*
X106089Y355558D01*
X109191D01*
X112188Y356361D01*
X114874Y357912D01*
X117068Y360106D01*
X118619Y362792D01*
X119422Y365789D01*
Y368891D01*
X118619Y371888D01*
X117068Y374574D01*
X114874Y376768D01*
X112188Y378319D01*
X109191Y379122D01*
D02*
G37*
G36*
X55880Y321965D02*
X53065Y321595D01*
X50443Y320508D01*
X48190Y318780D01*
X46462Y316528D01*
X45375Y313905D01*
X45005Y311090D01*
Y303590D01*
X45375Y300775D01*
X46462Y298153D01*
X48190Y295900D01*
X50443Y294172D01*
X53065Y293086D01*
X55880Y292715D01*
X58695Y293086D01*
X61318Y294172D01*
X63570Y295900D01*
X65298Y298153D01*
X66385Y300775D01*
X66755Y303590D01*
Y311090D01*
X66385Y313905D01*
X65298Y316528D01*
X63570Y318780D01*
X61318Y320508D01*
X58695Y321595D01*
X55880Y321965D01*
D02*
G37*
G36*
X49530Y108605D02*
X46715Y108235D01*
X44092Y107148D01*
X41840Y105420D01*
X40112Y103168D01*
X39025Y100545D01*
X38655Y97730D01*
Y90230D01*
X39025Y87415D01*
X40112Y84792D01*
X41840Y82540D01*
X44092Y80812D01*
X46715Y79726D01*
X49530Y79355D01*
X52345Y79726D01*
X54967Y80812D01*
X57220Y82540D01*
X58948Y84792D01*
X60034Y87415D01*
X60405Y90230D01*
Y97730D01*
X60034Y100545D01*
X58948Y103168D01*
X57220Y105420D01*
X54967Y107148D01*
X52345Y108235D01*
X49530Y108605D01*
D02*
G37*
G36*
X99050Y89112D02*
X96530D01*
X94095Y88460D01*
X91913Y87200D01*
X90131Y85417D01*
X88870Y83235D01*
X88218Y80800D01*
Y78280D01*
X88870Y75845D01*
X90131Y73663D01*
X91913Y71881D01*
X94095Y70620D01*
X96530Y69968D01*
X99050D01*
X101485Y70620D01*
X103667Y71881D01*
X105449Y73663D01*
X106710Y75845D01*
X107362Y78280D01*
Y80800D01*
X106710Y83235D01*
X105449Y85417D01*
X103667Y87200D01*
X101485Y88460D01*
X99050Y89112D01*
D02*
G37*
%LPD*%
D17*
X656693Y82702D02*
D03*
D18*
Y101702D02*
D03*
X637183Y92202D02*
D03*
D19*
X674370Y83960D02*
D03*
Y101460D02*
D03*
X513189Y155165D02*
D03*
Y137665D02*
D03*
X493014Y137554D02*
D03*
Y155054D02*
D03*
X452120Y137554D02*
D03*
Y155054D02*
D03*
X471932Y155168D02*
D03*
X674370Y64630D02*
D03*
Y47130D02*
D03*
X471932Y137668D02*
D03*
D20*
X538152Y246639D02*
D03*
Y170439D02*
D03*
X633158Y246639D02*
D03*
Y170439D02*
D03*
Y157739D02*
D03*
Y183139D02*
D03*
Y195839D02*
D03*
Y208539D02*
D03*
Y221239D02*
D03*
Y233939D02*
D03*
X538152Y157739D02*
D03*
Y183139D02*
D03*
Y195839D02*
D03*
Y208539D02*
D03*
Y221239D02*
D03*
Y233939D02*
D03*
D21*
X481470Y264160D02*
D03*
X809130Y135890D02*
D03*
X730390Y105410D02*
D03*
X747890D02*
D03*
X826630Y135890D02*
D03*
X498970Y264160D02*
D03*
D22*
X482600Y243840D02*
D03*
X498600D02*
D03*
D23*
X373380Y272290D02*
D03*
Y251460D02*
D03*
X431800Y160910D02*
D03*
X503936Y14606D02*
D03*
X478536D02*
D03*
X892810Y356110D02*
D03*
X657860Y140590D02*
D03*
X784860Y65280D02*
D03*
Y81280D02*
D03*
X657860Y156590D02*
D03*
X892810Y372110D02*
D03*
X503936Y30606D02*
D03*
X478536D02*
D03*
X431800Y176910D02*
D03*
X373380Y288290D02*
D03*
Y235460D02*
D03*
D24*
X508965Y202006D02*
D03*
Y195656D02*
D03*
X455854Y189306D02*
D03*
X508965D02*
D03*
X455854Y221056D02*
D03*
Y214706D02*
D03*
Y208356D02*
D03*
Y202006D02*
D03*
Y195656D02*
D03*
Y182956D02*
D03*
Y176606D02*
D03*
X508965Y221056D02*
D03*
Y214706D02*
D03*
Y208356D02*
D03*
Y182956D02*
D03*
Y176606D02*
D03*
D25*
X309880Y247240D02*
D03*
Y275240D02*
D03*
D26*
X332060Y233680D02*
D03*
X886120Y396240D02*
D03*
X907120D02*
D03*
X353060Y233680D02*
D03*
X332400Y287910D02*
D03*
X353400D02*
D03*
D27*
X456946Y12976D02*
D03*
Y47476D02*
D03*
D28*
X269240Y367030D02*
D03*
X449580D02*
D03*
X513080D02*
D03*
X511810Y306070D02*
D03*
X448310D02*
D03*
X360680Y367030D02*
D03*
X424180D02*
D03*
X332740D02*
D03*
D29*
X848020Y135890D02*
D03*
X869020D02*
D03*
D30*
X552450Y368300D02*
D03*
Y304800D02*
D03*
D51*
X656693Y101702D02*
X674128D01*
X674370Y101460D01*
X656693Y82702D02*
X673112D01*
X674370Y83960D01*
X730390Y105410D02*
Y137808D01*
X743458Y150876D02*
Y231902D01*
X730390Y137808D02*
X743458Y150876D01*
Y231902D02*
X743903D01*
X833311Y321310D01*
X852170D01*
X633158Y233939D02*
X633160Y233937D01*
X649475D01*
X649478Y233934D01*
X715518Y162077D02*
X718566Y165125D01*
Y302514D01*
X699770Y321310D02*
X718566Y302514D01*
X715518Y161798D02*
Y162077D01*
X852170Y168910D02*
X869020Y152060D01*
Y135890D02*
Y152060D01*
X826630Y135890D02*
X848020D01*
X799084Y135128D02*
X808368D01*
X809130Y135890D01*
X784860Y81280D02*
X787400Y83820D01*
X808200D01*
X784860Y52324D02*
Y65280D01*
X748030Y54610D02*
X773820Y28820D01*
X808200D01*
X748030Y54610D02*
Y105270D01*
X747890Y105410D02*
X748030Y105270D01*
X633158Y170439D02*
X633414Y170183D01*
X649983D01*
X650240Y169926D01*
X689102Y60862D02*
Y117602D01*
X675370Y47130D02*
X689102Y60862D01*
X674370Y47130D02*
X675370D01*
X674370Y64630D02*
Y83960D01*
X649100Y246764D02*
X649224Y246888D01*
X633282Y246764D02*
X649100D01*
X633158Y246639D02*
X633282Y246764D01*
X682302Y372110D02*
X699770D01*
X617218Y307026D02*
X682302Y372110D01*
X617218Y189946D02*
Y307026D01*
Y189946D02*
X624025Y183139D01*
X633158D01*
X656952Y210501D02*
Y321360D01*
X682302Y346710D02*
X699770D01*
X656952Y321360D02*
X682302Y346710D01*
X642290Y195839D02*
X656952Y210501D01*
X633158Y195839D02*
X642290D01*
X657860Y130048D02*
Y140590D01*
X674370Y101460D02*
Y111506D01*
X892810Y356110D02*
X906272D01*
Y356362D01*
X472932Y124206D02*
X482838Y114300D01*
X499618D02*
X508344Y123026D01*
X482838Y114300D02*
X499618D01*
X508344Y123026D02*
Y133820D01*
X472932Y124206D02*
Y136668D01*
X471932Y137668D02*
X472932Y136668D01*
X512189Y137665D02*
X514189D01*
X529542Y157739D02*
X538152D01*
X528651Y156848D02*
X529542Y157739D01*
X528651Y152126D02*
Y156848D01*
X514189Y137665D02*
X528651Y152126D01*
X508344Y133820D02*
X512189Y137665D01*
X538152Y157739D02*
X547285D01*
X554092Y164546D01*
Y214432D01*
X547285Y221239D02*
X554092Y214432D01*
X538152Y221239D02*
X547285D01*
X455854Y176606D02*
X455892Y176568D01*
X469862D01*
X469900Y176530D01*
X522989Y190323D02*
X523246D01*
X528762Y195839D01*
X538152D01*
X495300Y195580D02*
X495338Y195618D01*
X508927D01*
X508965Y195656D01*
X498710Y189179D02*
X508838D01*
X476777Y168052D02*
X497368Y188643D01*
X498173D02*
X498710Y189179D01*
X497368Y188643D02*
X498173D01*
X495300Y201930D02*
X495338Y201968D01*
X508927D01*
X508965Y202006D01*
X499816Y182829D02*
X508965D01*
X493014Y176027D02*
X499816Y182829D01*
X508965Y176606D02*
X521965D01*
X528498Y183139D01*
X538152D01*
X537783Y170070D02*
X538152Y170439D01*
X522808Y170070D02*
X537783D01*
X522309Y169571D02*
X522808Y170070D01*
X521716Y169571D02*
X522309D01*
X508965Y221056D02*
X537970D01*
X494005Y222225D02*
Y239245D01*
X467563Y195783D02*
X494005Y222225D01*
X513079Y155054D02*
X513189Y155165D01*
X493014Y155054D02*
X513079D01*
X493014D02*
Y176027D01*
X476777Y159013D02*
Y168052D01*
X452120Y155054D02*
X452234Y155168D01*
X471932D01*
X472932D02*
X476777Y159013D01*
X508838Y189179D02*
X508965Y189306D01*
X493014Y125222D02*
Y137554D01*
X452374Y124714D02*
Y137300D01*
X452120Y137554D02*
X452374Y137300D01*
X424023Y214706D02*
X455854D01*
X403270Y235460D02*
X424023Y214706D01*
X373380Y235460D02*
X403270D01*
X371600Y233680D02*
X373380Y235460D01*
X353060Y233680D02*
X371600D01*
X448818Y221056D02*
X455854D01*
X386179Y283695D02*
X448818Y221056D01*
X377975Y283695D02*
X386179D01*
X373380Y288290D02*
X377975Y283695D01*
X373000Y287910D02*
X373380Y288290D01*
X353400Y287910D02*
X373000D01*
X431800Y176910D02*
X432300D01*
X438346Y182956D01*
X455854D01*
X387350Y251460D02*
Y251460D01*
X373380D02*
X387350D01*
Y272288D02*
Y272290D01*
X373380D02*
X387350D01*
X470154Y189230D02*
Y189306D01*
X455854D02*
X470154D01*
X431546Y160656D02*
X431800Y160910D01*
X431546Y149352D02*
Y160656D01*
X538023Y246510D02*
X538152Y246639D01*
X523370Y246510D02*
X538023D01*
X523240Y246380D02*
X523370Y246510D01*
X467360Y243840D02*
X482600D01*
X482600Y243840D01*
X481470Y264160D02*
X481470Y264160D01*
X467360Y264160D02*
X481470D01*
X455981Y195783D02*
X467563D01*
X494005Y239245D02*
X495910Y241150D01*
X455854Y195656D02*
X455981Y195783D01*
D52*
X603289Y61976D02*
X632717Y91404D01*
X422656Y61976D02*
X603289D01*
X354076Y130556D02*
X422656Y61976D01*
X269240Y224080D02*
Y255270D01*
X236220Y288290D02*
Y335280D01*
Y288290D02*
X269240Y255270D01*
X633158Y157739D02*
X656711D01*
X660550Y153900D01*
X669060D02*
X699770Y123190D01*
X660550Y153900D02*
X669060D01*
X907120Y385920D02*
Y396240D01*
X893310Y372110D02*
X907120Y385920D01*
X892810Y372110D02*
X893310D01*
X852170D02*
X892810D01*
X498600Y243840D02*
X498785Y244025D01*
Y263975D01*
X498970Y264160D01*
X497030Y266100D02*
X498970Y264160D01*
X497030Y266100D02*
Y269362D01*
X474762Y291630D02*
X497030Y269362D01*
X452500Y291630D02*
X474762D01*
X448310Y295820D02*
X452500Y291630D01*
X448310Y295820D02*
Y306070D01*
X511810D02*
X513080Y304800D01*
X552450D01*
X514350Y368300D02*
X552450D01*
X513080Y367030D02*
X514350Y368300D01*
X424180Y367030D02*
X449580D01*
X332740D02*
X360680D01*
X182368Y242364D02*
X200660Y260656D01*
Y314960D02*
X249754Y364054D01*
X200660Y260656D02*
Y314960D01*
X249754Y364054D02*
X266264D01*
X117341Y243067D02*
X118044Y242364D01*
X107640Y245340D02*
X109913Y243067D01*
X117341D01*
X118044Y242364D02*
X182368D01*
X266264Y364054D02*
X269240Y367030D01*
D53*
X284102Y130178D02*
Y274952D01*
X269240Y289814D02*
Y319480D01*
Y289814D02*
X284102Y274952D01*
X520826Y14606D02*
X520954Y14478D01*
X503936Y14606D02*
X520826D01*
X478536D02*
X503936D01*
X699770Y123190D02*
X729742Y153162D01*
Y271761D02*
X854221Y396240D01*
X729742Y153162D02*
Y271761D01*
X684656Y30606D02*
X699770Y45720D01*
Y123190D01*
X503936Y30606D02*
X684656D01*
X854221Y396240D02*
X886120D01*
X478536Y30606D02*
X503936D01*
X454946Y12976D02*
X456946D01*
X453776Y14146D02*
X454946Y12976D01*
X453776Y14146D02*
Y16146D01*
X392140Y27190D02*
X442732D01*
X453776Y16146D01*
X366804Y47476D02*
X456946D01*
X284102Y130178D02*
X366804Y47476D01*
X391790Y27540D02*
X392140Y27190D01*
X477116Y32026D02*
X478536Y30606D01*
X474396Y32026D02*
X477116D01*
X458946Y47476D02*
X474396Y32026D01*
X456946Y47476D02*
X458946D01*
D54*
X865970Y346710D02*
D03*
X866238Y168910D02*
D03*
X865970Y194310D02*
D03*
Y219710D02*
D03*
Y245110D02*
D03*
Y270510D02*
D03*
Y295910D02*
D03*
Y321310D02*
D03*
Y372110D02*
D03*
X686238Y168910D02*
D03*
X685970Y194310D02*
D03*
Y219710D02*
D03*
Y245110D02*
D03*
Y270510D02*
D03*
Y295910D02*
D03*
Y321310D02*
D03*
Y346710D02*
D03*
Y372110D02*
D03*
D55*
X227640Y367340D02*
D03*
X167640Y387340D02*
D03*
X107640Y245340D02*
D03*
X227640D02*
D03*
X107640Y367340D02*
D03*
D56*
X97790Y129540D02*
D03*
D57*
Y79540D02*
D03*
X391790Y181540D02*
D03*
Y27540D02*
D03*
D58*
X49530Y93980D02*
D03*
X30480Y307340D02*
D03*
X24130Y93980D02*
D03*
X722630Y54610D02*
D03*
X748030D02*
D03*
X55880Y307340D02*
D03*
D59*
X852170Y346710D02*
D03*
Y168910D02*
D03*
Y194310D02*
D03*
Y219710D02*
D03*
Y245110D02*
D03*
Y270510D02*
D03*
Y295910D02*
D03*
Y321310D02*
D03*
Y372110D02*
D03*
X699770Y168910D02*
D03*
Y194310D02*
D03*
Y219710D02*
D03*
Y245110D02*
D03*
Y270510D02*
D03*
Y295910D02*
D03*
Y321310D02*
D03*
Y346710D02*
D03*
Y372110D02*
D03*
D60*
X838200Y28820D02*
D03*
Y83820D02*
D03*
X808200D02*
D03*
Y28820D02*
D03*
D61*
X269240Y224080D02*
D03*
Y319480D02*
D03*
D62*
X491236Y14606D02*
D03*
X520954Y14478D02*
D03*
X743458Y231902D02*
D03*
X649478Y233934D02*
D03*
X715518Y161798D02*
D03*
X799084Y135128D02*
D03*
X784860Y52324D02*
D03*
X650240Y169926D02*
D03*
X689102Y117602D02*
D03*
X649224Y246888D02*
D03*
X657860Y130048D02*
D03*
X674370Y111506D02*
D03*
X906272Y356362D02*
D03*
X469900Y176530D02*
D03*
X522989Y190323D02*
D03*
X495300Y195580D02*
D03*
Y201930D02*
D03*
X521716Y169571D02*
D03*
X493014Y125222D02*
D03*
X452374Y124714D02*
D03*
X354076Y130556D02*
D03*
X299902Y205922D02*
D03*
X299720Y294640D02*
D03*
Y251460D02*
D03*
Y220980D02*
D03*
Y302260D02*
D03*
Y287020D02*
D03*
Y325120D02*
D03*
Y243840D02*
D03*
Y228600D02*
D03*
Y236220D02*
D03*
Y317500D02*
D03*
Y309880D02*
D03*
Y213360D02*
D03*
X307340Y294640D02*
D03*
Y287020D02*
D03*
Y228600D02*
D03*
Y302260D02*
D03*
Y236220D02*
D03*
Y220980D02*
D03*
Y309880D02*
D03*
Y317500D02*
D03*
Y205740D02*
D03*
Y213360D02*
D03*
X387350Y251460D02*
D03*
Y272288D02*
D03*
X470154Y189230D02*
D03*
X431546Y149352D02*
D03*
X523240Y246380D02*
D03*
X467360Y264160D02*
D03*
Y243840D02*
D03*
X337820Y251460D02*
D03*
Y243840D02*
D03*
Y213360D02*
D03*
Y220980D02*
D03*
Y205740D02*
D03*
Y236220D02*
D03*
Y228600D02*
D03*
X330200Y251460D02*
D03*
X322580Y243840D02*
D03*
X330200D02*
D03*
X322580Y251460D02*
D03*
X330200Y236220D02*
D03*
X322580D02*
D03*
X314960D02*
D03*
Y228600D02*
D03*
Y251460D02*
D03*
X307340D02*
D03*
Y243840D02*
D03*
X314960D02*
D03*
X330200Y228600D02*
D03*
X322580Y220980D02*
D03*
X330200D02*
D03*
X322580Y228600D02*
D03*
X314960Y213360D02*
D03*
X330200D02*
D03*
X322580Y205740D02*
D03*
X330200D02*
D03*
X322580Y213360D02*
D03*
X314960Y205740D02*
D03*
Y220980D02*
D03*
X236220Y335280D02*
D03*
X307340Y325120D02*
D03*
X314960D02*
D03*
X322580D02*
D03*
X330200D02*
D03*
X337820D02*
D03*
Y317500D02*
D03*
X330200D02*
D03*
X322580D02*
D03*
X314960D02*
D03*
Y302260D02*
D03*
X322580D02*
D03*
X330200D02*
D03*
X337820D02*
D03*
Y309880D02*
D03*
X330200D02*
D03*
X322580D02*
D03*
X314960D02*
D03*
Y287020D02*
D03*
X322580D02*
D03*
X330200D02*
D03*
X337820D02*
D03*
Y294640D02*
D03*
X330200D02*
D03*
X322580D02*
D03*
X314960D02*
D03*
M02*
