G04*
G04 #@! TF.GenerationSoftware,Altium Limited,Altium Designer,26.10.1 (5)*
G04*
G04 Layer_Color=16711935*
G04 Board_Origin=17350000|28099997*
%FSLAX44Y44*%
%MOMM*%
G71*
G04*
G04 #@! TF.SameCoordinates,4052EFD6-7243-4EC4-BE30-6AAA83A439E8*
G04*
G04*
G04 #@! TF.FilePolarity,Negative*
G04*
G01*
G75*
%ADD48C,1.7000*%
%ADD49C,2.1000*%
%ADD50C,1.8500*%
%ADD51C,1.7500*%
%ADD52O,1.9000X2.6500*%
%ADD53C,1.6580*%
%ADD54R,1.6580X1.6580*%
D48*
X269240Y319480D02*
D03*
Y224080D02*
D03*
D49*
X227640Y367340D02*
D03*
X167640Y387340D02*
D03*
X107640Y245340D02*
D03*
X227640D02*
D03*
X107640Y367340D02*
D03*
D50*
X852170Y346710D02*
D03*
X699770Y372110D02*
D03*
Y346710D02*
D03*
Y321310D02*
D03*
Y295910D02*
D03*
Y270510D02*
D03*
Y245110D02*
D03*
Y219710D02*
D03*
Y194310D02*
D03*
Y168910D02*
D03*
X852170Y372110D02*
D03*
Y321310D02*
D03*
Y295910D02*
D03*
Y270510D02*
D03*
Y245110D02*
D03*
Y219710D02*
D03*
Y194310D02*
D03*
Y168910D02*
D03*
D51*
X838200Y28820D02*
D03*
Y83820D02*
D03*
X808200D02*
D03*
Y28820D02*
D03*
D52*
X722630Y54610D02*
D03*
X49530Y93980D02*
D03*
X30480Y307340D02*
D03*
X24130Y93980D02*
D03*
X748030Y54610D02*
D03*
X55880Y307340D02*
D03*
D53*
X391790Y181540D02*
D03*
X97790Y79540D02*
D03*
X391790Y27540D02*
D03*
D54*
X97790Y129540D02*
D03*
M02*
