G04*
G04 #@! TF.GenerationSoftware,Altium Limited,Altium Designer,26.10.1 (5)*
G04*
G04 Layer_Color=65535*
G04 Board_Origin=17350000|28099997*
%FSLAX44Y44*%
%MOMM*%
G71*
G04*
G04 #@! TF.SameCoordinates,4052EFD6-7243-4EC4-BE30-6AAA83A439E8*
G04*
G04*
G04 #@! TF.FilePolarity,Positive*
G04*
G01*
G75*
%ADD10C,0.2000*%
%ADD11C,0.2540*%
%ADD12C,0.3000*%
%ADD13C,0.1500*%
%ADD14C,0.1270*%
%ADD15C,0.2997*%
%ADD16C,0.1524*%
G36*
X493276Y169778D02*
X493313D01*
X493365Y169771D01*
X493476Y169741D01*
X493616Y169704D01*
X493771Y169645D01*
X493934Y169564D01*
X494015Y169512D01*
X494104Y169453D01*
X494185Y169386D01*
X494267Y169312D01*
X494355Y169231D01*
X494436Y169142D01*
X494510Y169039D01*
X494584Y168928D01*
X494658Y168803D01*
X494725Y168669D01*
X494784Y168522D01*
X494836Y168366D01*
X494887Y168196D01*
X494932Y168012D01*
X494961Y167819D01*
X494983Y167605D01*
X494998Y167383D01*
X495006Y167139D01*
Y167125D01*
Y167080D01*
Y167014D01*
X494998Y166925D01*
X494991Y166814D01*
X494976Y166681D01*
X494961Y166541D01*
X494947Y166393D01*
X494917Y166230D01*
X494887Y166060D01*
X494843Y165898D01*
X494799Y165728D01*
X494739Y165565D01*
X494673Y165402D01*
X494599Y165255D01*
X494510Y165114D01*
X494503Y165107D01*
X494488Y165085D01*
X494459Y165048D01*
X494422Y165003D01*
X494370Y164951D01*
X494303Y164892D01*
X494230Y164833D01*
X494148Y164767D01*
X494052Y164700D01*
X493949Y164641D01*
X493830Y164582D01*
X493705Y164530D01*
X493564Y164486D01*
X493416Y164449D01*
X493261Y164427D01*
X493091Y164419D01*
X493047D01*
X493010Y164427D01*
X492973D01*
X492921Y164434D01*
X492803Y164464D01*
X492663Y164501D01*
X492507Y164560D01*
X492337Y164641D01*
X492249Y164685D01*
X492167Y164745D01*
X492079Y164811D01*
X491990Y164885D01*
X491909Y164966D01*
X491820Y165055D01*
X491746Y165159D01*
X491665Y165262D01*
X491591Y165388D01*
X491524Y165521D01*
X491465Y165661D01*
X491406Y165816D01*
X491362Y165979D01*
X491317Y166164D01*
X491280Y166356D01*
X491258Y166563D01*
X491243Y166785D01*
X491236Y167021D01*
Y167029D01*
Y167036D01*
Y167080D01*
Y167154D01*
X491243Y167243D01*
X491251Y167354D01*
X491266Y167487D01*
X491280Y167627D01*
X491302Y167782D01*
X491325Y167952D01*
X491362Y168115D01*
X491399Y168285D01*
X491450Y168463D01*
X491510Y168625D01*
X491576Y168788D01*
X491650Y168936D01*
X491739Y169076D01*
X491746Y169083D01*
X491761Y169105D01*
X491790Y169142D01*
X491835Y169187D01*
X491886Y169238D01*
X491946Y169298D01*
X492020Y169364D01*
X492108Y169431D01*
X492204Y169497D01*
X492315Y169564D01*
X492433Y169623D01*
X492566Y169675D01*
X492707Y169719D01*
X492862Y169756D01*
X493025Y169778D01*
X493195Y169785D01*
X493239D01*
X493276Y169778D01*
D02*
G37*
G36*
X514057Y164478D02*
X512919D01*
Y168499D01*
X512911Y168492D01*
X512904Y168485D01*
X512882Y168470D01*
X512852Y168448D01*
X512778Y168396D01*
X512690Y168337D01*
X512682D01*
X512667Y168322D01*
X512645Y168307D01*
X512608Y168292D01*
X512520Y168248D01*
X512416Y168204D01*
X512409D01*
X512394Y168196D01*
X512364Y168182D01*
X512327Y168167D01*
X512231Y168137D01*
X512120Y168100D01*
X512113D01*
X512091Y168093D01*
X512061Y168085D01*
X512024Y168078D01*
X511921Y168063D01*
X511810Y168041D01*
Y169009D01*
X511817D01*
X511832Y169017D01*
X511854Y169024D01*
X511884Y169032D01*
X511928Y169046D01*
X511973Y169061D01*
X512084Y169098D01*
X512216Y169142D01*
X512357Y169202D01*
X512505Y169261D01*
X512653Y169335D01*
X512660D01*
X512667Y169342D01*
X512690Y169357D01*
X512719Y169372D01*
X512793Y169416D01*
X512889Y169468D01*
X513000Y169534D01*
X513126Y169615D01*
X513251Y169697D01*
X513370Y169785D01*
X514057D01*
Y164478D01*
D02*
G37*
G36*
X472401D02*
X471263D01*
Y168499D01*
X471255Y168492D01*
X471248Y168485D01*
X471226Y168470D01*
X471196Y168448D01*
X471122Y168396D01*
X471034Y168337D01*
X471026D01*
X471011Y168322D01*
X470989Y168307D01*
X470952Y168292D01*
X470864Y168248D01*
X470760Y168204D01*
X470753D01*
X470738Y168196D01*
X470708Y168182D01*
X470671Y168167D01*
X470575Y168137D01*
X470464Y168100D01*
X470457D01*
X470435Y168093D01*
X470405Y168085D01*
X470368Y168078D01*
X470265Y168063D01*
X470154Y168041D01*
Y169009D01*
X470161D01*
X470176Y169017D01*
X470198Y169024D01*
X470228Y169032D01*
X470272Y169046D01*
X470317Y169061D01*
X470428Y169098D01*
X470560Y169142D01*
X470701Y169202D01*
X470849Y169261D01*
X470997Y169335D01*
X471004D01*
X471011Y169342D01*
X471034Y169357D01*
X471063Y169372D01*
X471137Y169416D01*
X471233Y169468D01*
X471344Y169534D01*
X471470Y169615D01*
X471595Y169697D01*
X471714Y169785D01*
X472401D01*
Y164478D01*
D02*
G37*
G36*
X452128Y169778D02*
X452165D01*
X452217Y169771D01*
X452328Y169741D01*
X452468Y169704D01*
X452623Y169645D01*
X452786Y169564D01*
X452867Y169512D01*
X452956Y169453D01*
X453037Y169386D01*
X453119Y169312D01*
X453207Y169231D01*
X453288Y169142D01*
X453362Y169039D01*
X453436Y168928D01*
X453510Y168803D01*
X453577Y168669D01*
X453636Y168522D01*
X453688Y168366D01*
X453739Y168196D01*
X453784Y168012D01*
X453813Y167819D01*
X453835Y167605D01*
X453850Y167383D01*
X453858Y167139D01*
Y167125D01*
Y167080D01*
Y167014D01*
X453850Y166925D01*
X453843Y166814D01*
X453828Y166681D01*
X453813Y166541D01*
X453798Y166393D01*
X453769Y166230D01*
X453739Y166060D01*
X453695Y165898D01*
X453651Y165728D01*
X453591Y165565D01*
X453525Y165402D01*
X453451Y165255D01*
X453362Y165114D01*
X453355Y165107D01*
X453340Y165085D01*
X453311Y165048D01*
X453274Y165003D01*
X453222Y164951D01*
X453155Y164892D01*
X453082Y164833D01*
X453000Y164767D01*
X452904Y164700D01*
X452801Y164641D01*
X452682Y164582D01*
X452557Y164530D01*
X452416Y164486D01*
X452268Y164449D01*
X452113Y164427D01*
X451943Y164419D01*
X451899D01*
X451862Y164427D01*
X451825D01*
X451773Y164434D01*
X451655Y164464D01*
X451515Y164501D01*
X451359Y164560D01*
X451189Y164641D01*
X451101Y164685D01*
X451019Y164745D01*
X450931Y164811D01*
X450842Y164885D01*
X450761Y164966D01*
X450672Y165055D01*
X450598Y165159D01*
X450517Y165262D01*
X450443Y165388D01*
X450376Y165521D01*
X450317Y165661D01*
X450258Y165816D01*
X450214Y165979D01*
X450169Y166164D01*
X450132Y166356D01*
X450110Y166563D01*
X450095Y166785D01*
X450088Y167021D01*
Y167029D01*
Y167036D01*
Y167080D01*
Y167154D01*
X450095Y167243D01*
X450103Y167354D01*
X450118Y167487D01*
X450132Y167627D01*
X450154Y167782D01*
X450177Y167952D01*
X450214Y168115D01*
X450251Y168285D01*
X450302Y168463D01*
X450362Y168625D01*
X450428Y168788D01*
X450502Y168936D01*
X450591Y169076D01*
X450598Y169083D01*
X450613Y169105D01*
X450642Y169142D01*
X450687Y169187D01*
X450738Y169238D01*
X450798Y169298D01*
X450872Y169364D01*
X450960Y169431D01*
X451056Y169497D01*
X451167Y169564D01*
X451285Y169623D01*
X451418Y169675D01*
X451559Y169719D01*
X451714Y169756D01*
X451877Y169778D01*
X452047Y169785D01*
X452091D01*
X452128Y169778D01*
D02*
G37*
G36*
X490732Y114073D02*
X490954Y114058D01*
X491191Y114043D01*
X491442Y114013D01*
X491679Y113984D01*
X491709D01*
X491783Y113969D01*
X491902Y113939D01*
X492065Y113910D01*
X492242Y113880D01*
X492435Y113821D01*
X492835Y113688D01*
Y111526D01*
X492820Y111540D01*
X492790Y111555D01*
X492731Y111585D01*
X492657Y111629D01*
X492479Y111733D01*
X492257Y111837D01*
X492242D01*
X492213Y111866D01*
X492153Y111896D01*
X492065Y111925D01*
X491976Y111955D01*
X491872Y111999D01*
X491635Y112073D01*
X491620D01*
X491576Y112088D01*
X491517Y112103D01*
X491428Y112118D01*
X491339Y112148D01*
X491220Y112162D01*
X490984Y112207D01*
X490969D01*
X490924Y112221D01*
X490865D01*
X490791Y112236D01*
X490584Y112251D01*
X490213D01*
X490125Y112236D01*
X490006D01*
X489888Y112221D01*
X489636Y112162D01*
X489621D01*
X489577Y112148D01*
X489518Y112133D01*
X489443Y112103D01*
X489266Y112044D01*
X489088Y111955D01*
X489073D01*
X489058Y111925D01*
X488955Y111866D01*
X488851Y111763D01*
X488733Y111629D01*
Y111614D01*
X488718Y111600D01*
X488673Y111511D01*
X488629Y111363D01*
X488614Y111200D01*
Y111185D01*
Y111155D01*
X488629Y111111D01*
Y111037D01*
X488673Y110889D01*
X488747Y110726D01*
Y110711D01*
X488777Y110696D01*
X488851Y110593D01*
X488984Y110474D01*
X489147Y110326D01*
X489162Y110311D01*
X489192Y110296D01*
X489251Y110267D01*
X489325Y110222D01*
X489414Y110163D01*
X489518Y110104D01*
X489754Y109971D01*
X489769Y109956D01*
X489814Y109941D01*
X489902Y109911D01*
X489991Y109852D01*
X490125Y109808D01*
X490258Y109734D01*
X490421Y109675D01*
X490584Y109600D01*
X490613Y109586D01*
X490687Y109556D01*
X490806Y109512D01*
X490954Y109438D01*
X491132Y109364D01*
X491309Y109260D01*
X491694Y109053D01*
X491724Y109038D01*
X491783Y109008D01*
X491872Y108934D01*
X491990Y108860D01*
X492124Y108756D01*
X492272Y108653D01*
X492553Y108386D01*
X492568Y108371D01*
X492612Y108327D01*
X492686Y108238D01*
X492761Y108149D01*
X492849Y108016D01*
X492938Y107868D01*
X493027Y107720D01*
X493101Y107542D01*
X493116Y107527D01*
X493131Y107453D01*
X493160Y107365D01*
X493205Y107231D01*
X493234Y107068D01*
X493264Y106876D01*
X493279Y106669D01*
X493294Y106432D01*
Y106417D01*
Y106387D01*
Y106343D01*
Y106284D01*
X493279Y106121D01*
X493249Y105928D01*
X493205Y105691D01*
X493145Y105439D01*
X493071Y105203D01*
X492953Y104965D01*
X492938Y104936D01*
X492894Y104862D01*
X492820Y104758D01*
X492716Y104625D01*
X492598Y104477D01*
X492435Y104314D01*
X492272Y104151D01*
X492065Y104003D01*
X492035Y103988D01*
X491961Y103944D01*
X491842Y103884D01*
X491694Y103811D01*
X491502Y103722D01*
X491265Y103648D01*
X491013Y103559D01*
X490746Y103499D01*
X490717D01*
X490672Y103485D01*
X490613Y103470D01*
X490465Y103455D01*
X490273Y103426D01*
X490021Y103396D01*
X489754Y103366D01*
X489473Y103351D01*
X489162Y103337D01*
X489014D01*
X488851Y103351D01*
X488644D01*
X488392Y103366D01*
X488111Y103396D01*
X487533Y103485D01*
X487504D01*
X487459Y103499D01*
X487400Y103514D01*
X487267Y103544D01*
X487074Y103588D01*
X486867Y103648D01*
X486645Y103722D01*
X486423Y103796D01*
X486200Y103899D01*
Y106224D01*
X486230Y106195D01*
X486304Y106135D01*
X486437Y106046D01*
X486600Y105928D01*
X486808Y105810D01*
X487044Y105676D01*
X487296Y105543D01*
X487563Y105439D01*
X487578D01*
X487592Y105425D01*
X487637Y105410D01*
X487696Y105395D01*
X487844Y105351D01*
X488022Y105306D01*
X488259Y105262D01*
X488511Y105217D01*
X488777Y105188D01*
X489058Y105173D01*
X489221D01*
X489325Y105188D01*
X489443D01*
X489577Y105203D01*
X489828Y105247D01*
X489843D01*
X489888Y105262D01*
X489947Y105276D01*
X490021Y105306D01*
X490213Y105380D01*
X490391Y105469D01*
X490406D01*
X490421Y105499D01*
X490510Y105573D01*
X490628Y105676D01*
X490717Y105810D01*
Y105824D01*
X490732Y105839D01*
X490776Y105928D01*
X490806Y106061D01*
X490821Y106224D01*
Y106239D01*
Y106269D01*
X490806Y106328D01*
Y106402D01*
X490746Y106580D01*
X490702Y106669D01*
X490643Y106757D01*
Y106772D01*
X490613Y106802D01*
X490569Y106846D01*
X490524Y106905D01*
X490376Y107053D01*
X490169Y107202D01*
X490154Y107216D01*
X490110Y107231D01*
X490051Y107276D01*
X489977Y107335D01*
X489873Y107394D01*
X489740Y107453D01*
X489606Y107527D01*
X489458Y107601D01*
X489443Y107616D01*
X489384Y107631D01*
X489295Y107675D01*
X489192Y107720D01*
X489058Y107779D01*
X488910Y107838D01*
X488570Y107986D01*
X488555D01*
X488511Y108016D01*
X488451Y108031D01*
X488362Y108075D01*
X488274Y108120D01*
X488155Y108179D01*
X487889Y108327D01*
X487592Y108505D01*
X487281Y108712D01*
X487000Y108949D01*
X486867Y109082D01*
X486748Y109215D01*
Y109230D01*
X486719Y109245D01*
X486689Y109290D01*
X486660Y109349D01*
X486556Y109512D01*
X486452Y109719D01*
X486348Y109971D01*
X486245Y110282D01*
X486186Y110622D01*
X486156Y110992D01*
Y111007D01*
Y111022D01*
Y111067D01*
Y111126D01*
X486171Y111274D01*
X486200Y111466D01*
X486230Y111688D01*
X486289Y111925D01*
X486378Y112162D01*
X486482Y112384D01*
X486497Y112414D01*
X486541Y112488D01*
X486615Y112592D01*
X486719Y112725D01*
X486837Y112873D01*
X487000Y113036D01*
X487178Y113199D01*
X487370Y113347D01*
X487400Y113362D01*
X487474Y113406D01*
X487592Y113480D01*
X487741Y113569D01*
X487933Y113658D01*
X488155Y113747D01*
X488407Y113836D01*
X488673Y113910D01*
X488688D01*
X488703Y113925D01*
X488747D01*
X488807Y113939D01*
X488955Y113969D01*
X489147Y113998D01*
X489384Y114028D01*
X489651Y114058D01*
X489932Y114087D01*
X490539D01*
X490732Y114073D01*
D02*
G37*
G36*
X500283D02*
X500431D01*
X500609Y114058D01*
X500787Y114043D01*
X501201Y113998D01*
X501631Y113925D01*
X502060Y113836D01*
X502475Y113702D01*
Y111452D01*
X502460Y111466D01*
X502430Y111481D01*
X502371Y111511D01*
X502297Y111555D01*
X502193Y111600D01*
X502075Y111644D01*
X501941Y111703D01*
X501779Y111763D01*
X501616Y111822D01*
X501438Y111881D01*
X501023Y111970D01*
X500579Y112044D01*
X500090Y112073D01*
X499942D01*
X499854Y112059D01*
X499720Y112044D01*
X499572Y112029D01*
X499424Y111999D01*
X499246Y111955D01*
X498861Y111851D01*
X498669Y111777D01*
X498476Y111674D01*
X498269Y111570D01*
X498077Y111452D01*
X497899Y111303D01*
X497721Y111140D01*
X497706Y111126D01*
X497677Y111096D01*
X497632Y111052D01*
X497588Y110978D01*
X497514Y110874D01*
X497440Y110770D01*
X497351Y110637D01*
X497277Y110489D01*
X497188Y110311D01*
X497099Y110134D01*
X497025Y109926D01*
X496966Y109704D01*
X496907Y109467D01*
X496862Y109215D01*
X496833Y108934D01*
X496818Y108653D01*
Y108638D01*
Y108594D01*
Y108505D01*
X496833Y108401D01*
X496847Y108283D01*
X496862Y108134D01*
X496892Y107957D01*
X496922Y107779D01*
X497025Y107394D01*
X497099Y107202D01*
X497173Y106994D01*
X497277Y106802D01*
X497381Y106609D01*
X497514Y106417D01*
X497662Y106239D01*
X497677Y106224D01*
X497706Y106195D01*
X497751Y106150D01*
X497825Y106106D01*
X497899Y106032D01*
X498003Y105958D01*
X498136Y105884D01*
X498269Y105795D01*
X498432Y105706D01*
X498595Y105632D01*
X498787Y105558D01*
X498995Y105484D01*
X499217Y105439D01*
X499454Y105395D01*
X499691Y105365D01*
X499957Y105351D01*
X500090D01*
X500194Y105365D01*
X500313D01*
X500461Y105380D01*
X500609Y105410D01*
X500787Y105439D01*
X501171Y105513D01*
X501601Y105632D01*
X502045Y105795D01*
X502253Y105898D01*
X502475Y106017D01*
Y103884D01*
X502460D01*
X502415Y103855D01*
X502356Y103840D01*
X502267Y103796D01*
X502149Y103751D01*
X502016Y103707D01*
X501853Y103662D01*
X501675Y103618D01*
X501468Y103559D01*
X501246Y103514D01*
X501009Y103470D01*
X500742Y103426D01*
X500461Y103381D01*
X500150Y103366D01*
X499839Y103337D01*
X499394D01*
X499261Y103351D01*
X499098Y103366D01*
X498906Y103381D01*
X498669Y103411D01*
X498402Y103455D01*
X498121Y103514D01*
X497825Y103588D01*
X497529Y103677D01*
X497203Y103796D01*
X496892Y103929D01*
X496581Y104077D01*
X496285Y104270D01*
X495989Y104477D01*
X495722Y104729D01*
X495707Y104743D01*
X495663Y104788D01*
X495604Y104877D01*
X495515Y104980D01*
X495411Y105128D01*
X495293Y105291D01*
X495174Y105499D01*
X495041Y105721D01*
X494908Y105987D01*
X494789Y106269D01*
X494671Y106580D01*
X494567Y106905D01*
X494493Y107276D01*
X494419Y107646D01*
X494375Y108060D01*
X494360Y108490D01*
Y108519D01*
Y108594D01*
X494375Y108727D01*
X494389Y108904D01*
X494404Y109112D01*
X494449Y109364D01*
X494493Y109630D01*
X494552Y109926D01*
X494641Y110237D01*
X494730Y110578D01*
X494863Y110904D01*
X495011Y111244D01*
X495189Y111585D01*
X495396Y111911D01*
X495633Y112236D01*
X495900Y112533D01*
X495915Y112547D01*
X495974Y112607D01*
X496063Y112681D01*
X496181Y112769D01*
X496329Y112888D01*
X496522Y113021D01*
X496729Y113169D01*
X496981Y113317D01*
X497247Y113451D01*
X497558Y113599D01*
X497884Y113732D01*
X498240Y113850D01*
X498610Y113939D01*
X499024Y114028D01*
X499454Y114073D01*
X499898Y114087D01*
X500150D01*
X500283Y114073D01*
D02*
G37*
G36*
X516587Y108949D02*
X520526Y103514D01*
X517564D01*
X514529Y108031D01*
X514514Y108060D01*
X514499Y108090D01*
X514469Y108149D01*
X514425Y108238D01*
X514380Y108327D01*
X514321Y108460D01*
X514262Y108608D01*
X514217D01*
Y103514D01*
X511878D01*
Y113925D01*
X514217D01*
Y108993D01*
X514262D01*
Y109008D01*
X514277Y109038D01*
X514306Y109082D01*
X514336Y109141D01*
X514366Y109230D01*
X514425Y109319D01*
X514469Y109438D01*
X514543Y109571D01*
X517416Y113925D01*
X520215D01*
X516587Y108949D01*
D02*
G37*
G36*
X506621Y105410D02*
X510486D01*
Y103514D01*
X504281D01*
Y113925D01*
X506621D01*
Y105410D01*
D02*
G37*
G36*
X465159Y114073D02*
X465381Y114058D01*
X465618Y114043D01*
X465869Y114013D01*
X466106Y113984D01*
X466136D01*
X466210Y113969D01*
X466329Y113939D01*
X466491Y113910D01*
X466669Y113880D01*
X466862Y113821D01*
X467261Y113688D01*
Y111526D01*
X467247Y111540D01*
X467217Y111555D01*
X467158Y111585D01*
X467084Y111629D01*
X466906Y111733D01*
X466684Y111837D01*
X466669D01*
X466640Y111866D01*
X466580Y111896D01*
X466491Y111925D01*
X466403Y111955D01*
X466299Y111999D01*
X466062Y112073D01*
X466047D01*
X466003Y112088D01*
X465943Y112103D01*
X465855Y112118D01*
X465766Y112148D01*
X465647Y112162D01*
X465410Y112207D01*
X465396D01*
X465351Y112221D01*
X465292D01*
X465218Y112236D01*
X465011Y112251D01*
X464640D01*
X464552Y112236D01*
X464433D01*
X464315Y112221D01*
X464063Y112162D01*
X464048D01*
X464004Y112148D01*
X463944Y112133D01*
X463870Y112103D01*
X463693Y112044D01*
X463515Y111955D01*
X463500D01*
X463485Y111925D01*
X463382Y111866D01*
X463278Y111763D01*
X463160Y111629D01*
Y111614D01*
X463145Y111600D01*
X463100Y111511D01*
X463056Y111363D01*
X463041Y111200D01*
Y111185D01*
Y111155D01*
X463056Y111111D01*
Y111037D01*
X463100Y110889D01*
X463174Y110726D01*
Y110711D01*
X463204Y110696D01*
X463278Y110593D01*
X463411Y110474D01*
X463574Y110326D01*
X463589Y110311D01*
X463619Y110296D01*
X463678Y110267D01*
X463752Y110222D01*
X463841Y110163D01*
X463944Y110104D01*
X464181Y109971D01*
X464196Y109956D01*
X464241Y109941D01*
X464329Y109911D01*
X464418Y109852D01*
X464552Y109808D01*
X464685Y109734D01*
X464848Y109675D01*
X465011Y109600D01*
X465040Y109586D01*
X465114Y109556D01*
X465233Y109512D01*
X465381Y109438D01*
X465559Y109364D01*
X465736Y109260D01*
X466121Y109053D01*
X466151Y109038D01*
X466210Y109008D01*
X466299Y108934D01*
X466417Y108860D01*
X466551Y108756D01*
X466699Y108653D01*
X466980Y108386D01*
X466995Y108371D01*
X467039Y108327D01*
X467113Y108238D01*
X467187Y108149D01*
X467276Y108016D01*
X467365Y107868D01*
X467454Y107720D01*
X467528Y107542D01*
X467543Y107527D01*
X467558Y107453D01*
X467587Y107365D01*
X467632Y107231D01*
X467661Y107068D01*
X467691Y106876D01*
X467706Y106669D01*
X467720Y106432D01*
Y106417D01*
Y106387D01*
Y106343D01*
Y106284D01*
X467706Y106121D01*
X467676Y105928D01*
X467632Y105691D01*
X467572Y105439D01*
X467498Y105203D01*
X467380Y104965D01*
X467365Y104936D01*
X467321Y104862D01*
X467247Y104758D01*
X467143Y104625D01*
X467024Y104477D01*
X466862Y104314D01*
X466699Y104151D01*
X466491Y104003D01*
X466462Y103988D01*
X466388Y103944D01*
X466269Y103884D01*
X466121Y103811D01*
X465929Y103722D01*
X465692Y103648D01*
X465440Y103559D01*
X465173Y103499D01*
X465144D01*
X465099Y103485D01*
X465040Y103470D01*
X464892Y103455D01*
X464700Y103426D01*
X464448Y103396D01*
X464181Y103366D01*
X463900Y103351D01*
X463589Y103337D01*
X463441D01*
X463278Y103351D01*
X463071D01*
X462819Y103366D01*
X462538Y103396D01*
X461960Y103485D01*
X461931D01*
X461886Y103499D01*
X461827Y103514D01*
X461694Y103544D01*
X461501Y103588D01*
X461294Y103648D01*
X461072Y103722D01*
X460849Y103796D01*
X460627Y103899D01*
Y106224D01*
X460657Y106195D01*
X460731Y106135D01*
X460864Y106046D01*
X461027Y105928D01*
X461235Y105810D01*
X461471Y105676D01*
X461723Y105543D01*
X461990Y105439D01*
X462005D01*
X462019Y105425D01*
X462064Y105410D01*
X462123Y105395D01*
X462271Y105351D01*
X462449Y105306D01*
X462686Y105262D01*
X462938Y105217D01*
X463204Y105188D01*
X463485Y105173D01*
X463648D01*
X463752Y105188D01*
X463870D01*
X464004Y105203D01*
X464255Y105247D01*
X464270D01*
X464315Y105262D01*
X464374Y105276D01*
X464448Y105306D01*
X464640Y105380D01*
X464818Y105469D01*
X464833D01*
X464848Y105499D01*
X464937Y105573D01*
X465055Y105676D01*
X465144Y105810D01*
Y105824D01*
X465159Y105839D01*
X465203Y105928D01*
X465233Y106061D01*
X465247Y106224D01*
Y106239D01*
Y106269D01*
X465233Y106328D01*
Y106402D01*
X465173Y106580D01*
X465129Y106669D01*
X465070Y106757D01*
Y106772D01*
X465040Y106802D01*
X464996Y106846D01*
X464951Y106905D01*
X464803Y107053D01*
X464596Y107202D01*
X464581Y107216D01*
X464537Y107231D01*
X464478Y107276D01*
X464403Y107335D01*
X464300Y107394D01*
X464166Y107453D01*
X464033Y107527D01*
X463885Y107601D01*
X463870Y107616D01*
X463811Y107631D01*
X463722Y107675D01*
X463619Y107720D01*
X463485Y107779D01*
X463337Y107838D01*
X462997Y107986D01*
X462982D01*
X462938Y108016D01*
X462878Y108031D01*
X462789Y108075D01*
X462701Y108120D01*
X462582Y108179D01*
X462315Y108327D01*
X462019Y108505D01*
X461708Y108712D01*
X461427Y108949D01*
X461294Y109082D01*
X461175Y109215D01*
Y109230D01*
X461146Y109245D01*
X461116Y109290D01*
X461086Y109349D01*
X460983Y109512D01*
X460879Y109719D01*
X460775Y109971D01*
X460672Y110282D01*
X460613Y110622D01*
X460583Y110992D01*
Y111007D01*
Y111022D01*
Y111067D01*
Y111126D01*
X460598Y111274D01*
X460627Y111466D01*
X460657Y111688D01*
X460716Y111925D01*
X460805Y112162D01*
X460909Y112384D01*
X460924Y112414D01*
X460968Y112488D01*
X461042Y112592D01*
X461146Y112725D01*
X461264Y112873D01*
X461427Y113036D01*
X461605Y113199D01*
X461797Y113347D01*
X461827Y113362D01*
X461901Y113406D01*
X462019Y113480D01*
X462167Y113569D01*
X462360Y113658D01*
X462582Y113747D01*
X462834Y113836D01*
X463100Y113910D01*
X463115D01*
X463130Y113925D01*
X463174D01*
X463234Y113939D01*
X463382Y113969D01*
X463574Y113998D01*
X463811Y114028D01*
X464078Y114058D01*
X464359Y114087D01*
X464966D01*
X465159Y114073D01*
D02*
G37*
G36*
X447552D02*
X447774Y114058D01*
X448011Y114043D01*
X448262Y114013D01*
X448499Y113984D01*
X448529D01*
X448603Y113969D01*
X448722Y113939D01*
X448885Y113910D01*
X449062Y113880D01*
X449255Y113821D01*
X449655Y113688D01*
Y111526D01*
X449640Y111540D01*
X449610Y111555D01*
X449551Y111585D01*
X449477Y111629D01*
X449299Y111733D01*
X449077Y111837D01*
X449062D01*
X449033Y111866D01*
X448973Y111896D01*
X448885Y111925D01*
X448796Y111955D01*
X448692Y111999D01*
X448455Y112073D01*
X448440D01*
X448396Y112088D01*
X448337Y112103D01*
X448248Y112118D01*
X448159Y112148D01*
X448040Y112162D01*
X447803Y112207D01*
X447789D01*
X447744Y112221D01*
X447685D01*
X447611Y112236D01*
X447404Y112251D01*
X447033D01*
X446945Y112236D01*
X446826D01*
X446708Y112221D01*
X446456Y112162D01*
X446441D01*
X446397Y112148D01*
X446338Y112133D01*
X446263Y112103D01*
X446086Y112044D01*
X445908Y111955D01*
X445893D01*
X445878Y111925D01*
X445775Y111866D01*
X445671Y111763D01*
X445553Y111629D01*
Y111614D01*
X445538Y111600D01*
X445493Y111511D01*
X445449Y111363D01*
X445434Y111200D01*
Y111185D01*
Y111155D01*
X445449Y111111D01*
Y111037D01*
X445493Y110889D01*
X445567Y110726D01*
Y110711D01*
X445597Y110696D01*
X445671Y110593D01*
X445804Y110474D01*
X445967Y110326D01*
X445982Y110311D01*
X446012Y110296D01*
X446071Y110267D01*
X446145Y110222D01*
X446234Y110163D01*
X446338Y110104D01*
X446574Y109971D01*
X446589Y109956D01*
X446634Y109941D01*
X446722Y109911D01*
X446811Y109852D01*
X446945Y109808D01*
X447078Y109734D01*
X447241Y109675D01*
X447404Y109600D01*
X447433Y109586D01*
X447507Y109556D01*
X447626Y109512D01*
X447774Y109438D01*
X447952Y109364D01*
X448129Y109260D01*
X448514Y109053D01*
X448544Y109038D01*
X448603Y109008D01*
X448692Y108934D01*
X448810Y108860D01*
X448944Y108756D01*
X449092Y108653D01*
X449373Y108386D01*
X449388Y108371D01*
X449432Y108327D01*
X449506Y108238D01*
X449580Y108149D01*
X449669Y108016D01*
X449758Y107868D01*
X449847Y107720D01*
X449921Y107542D01*
X449936Y107527D01*
X449951Y107453D01*
X449980Y107365D01*
X450025Y107231D01*
X450054Y107068D01*
X450084Y106876D01*
X450099Y106669D01*
X450114Y106432D01*
Y106417D01*
Y106387D01*
Y106343D01*
Y106284D01*
X450099Y106121D01*
X450069Y105928D01*
X450025Y105691D01*
X449966Y105439D01*
X449891Y105203D01*
X449773Y104965D01*
X449758Y104936D01*
X449714Y104862D01*
X449640Y104758D01*
X449536Y104625D01*
X449418Y104477D01*
X449255Y104314D01*
X449092Y104151D01*
X448885Y104003D01*
X448855Y103988D01*
X448781Y103944D01*
X448662Y103884D01*
X448514Y103811D01*
X448322Y103722D01*
X448085Y103648D01*
X447833Y103559D01*
X447566Y103499D01*
X447537D01*
X447492Y103485D01*
X447433Y103470D01*
X447285Y103455D01*
X447093Y103426D01*
X446841Y103396D01*
X446574Y103366D01*
X446293Y103351D01*
X445982Y103337D01*
X445834D01*
X445671Y103351D01*
X445464D01*
X445212Y103366D01*
X444931Y103396D01*
X444353Y103485D01*
X444324D01*
X444279Y103499D01*
X444220Y103514D01*
X444087Y103544D01*
X443894Y103588D01*
X443687Y103648D01*
X443465Y103722D01*
X443242Y103796D01*
X443020Y103899D01*
Y106224D01*
X443050Y106195D01*
X443124Y106135D01*
X443257Y106046D01*
X443420Y105928D01*
X443628Y105810D01*
X443865Y105676D01*
X444116Y105543D01*
X444383Y105439D01*
X444398D01*
X444412Y105425D01*
X444457Y105410D01*
X444516Y105395D01*
X444664Y105351D01*
X444842Y105306D01*
X445079Y105262D01*
X445331Y105217D01*
X445597Y105188D01*
X445878Y105173D01*
X446041D01*
X446145Y105188D01*
X446263D01*
X446397Y105203D01*
X446648Y105247D01*
X446663D01*
X446708Y105262D01*
X446767Y105276D01*
X446841Y105306D01*
X447033Y105380D01*
X447211Y105469D01*
X447226D01*
X447241Y105499D01*
X447330Y105573D01*
X447448Y105676D01*
X447537Y105810D01*
Y105824D01*
X447552Y105839D01*
X447596Y105928D01*
X447626Y106061D01*
X447641Y106224D01*
Y106239D01*
Y106269D01*
X447626Y106328D01*
Y106402D01*
X447566Y106580D01*
X447522Y106669D01*
X447463Y106757D01*
Y106772D01*
X447433Y106802D01*
X447389Y106846D01*
X447344Y106905D01*
X447196Y107053D01*
X446989Y107202D01*
X446974Y107216D01*
X446930Y107231D01*
X446871Y107276D01*
X446796Y107335D01*
X446693Y107394D01*
X446560Y107453D01*
X446426Y107527D01*
X446278Y107601D01*
X446263Y107616D01*
X446204Y107631D01*
X446115Y107675D01*
X446012Y107720D01*
X445878Y107779D01*
X445730Y107838D01*
X445390Y107986D01*
X445375D01*
X445331Y108016D01*
X445271Y108031D01*
X445182Y108075D01*
X445094Y108120D01*
X444975Y108179D01*
X444709Y108327D01*
X444412Y108505D01*
X444101Y108712D01*
X443820Y108949D01*
X443687Y109082D01*
X443568Y109215D01*
Y109230D01*
X443539Y109245D01*
X443509Y109290D01*
X443479Y109349D01*
X443376Y109512D01*
X443272Y109719D01*
X443168Y109971D01*
X443065Y110282D01*
X443006Y110622D01*
X442976Y110992D01*
Y111007D01*
Y111022D01*
Y111067D01*
Y111126D01*
X442991Y111274D01*
X443020Y111466D01*
X443050Y111688D01*
X443109Y111925D01*
X443198Y112162D01*
X443302Y112384D01*
X443317Y112414D01*
X443361Y112488D01*
X443435Y112592D01*
X443539Y112725D01*
X443657Y112873D01*
X443820Y113036D01*
X443998Y113199D01*
X444190Y113347D01*
X444220Y113362D01*
X444294Y113406D01*
X444412Y113480D01*
X444561Y113569D01*
X444753Y113658D01*
X444975Y113747D01*
X445227Y113836D01*
X445493Y113910D01*
X445508D01*
X445523Y113925D01*
X445567D01*
X445627Y113939D01*
X445775Y113969D01*
X445967Y113998D01*
X446204Y114028D01*
X446471Y114058D01*
X446752Y114087D01*
X447359D01*
X447552Y114073D01*
D02*
G37*
G36*
X457103D02*
X457251D01*
X457429Y114058D01*
X457607Y114043D01*
X458021Y113998D01*
X458451Y113925D01*
X458880Y113836D01*
X459295Y113702D01*
Y111452D01*
X459280Y111466D01*
X459250Y111481D01*
X459191Y111511D01*
X459117Y111555D01*
X459013Y111600D01*
X458895Y111644D01*
X458761Y111703D01*
X458599Y111763D01*
X458436Y111822D01*
X458258Y111881D01*
X457843Y111970D01*
X457399Y112044D01*
X456911Y112073D01*
X456762D01*
X456674Y112059D01*
X456540Y112044D01*
X456392Y112029D01*
X456244Y111999D01*
X456066Y111955D01*
X455681Y111851D01*
X455489Y111777D01*
X455296Y111674D01*
X455089Y111570D01*
X454897Y111452D01*
X454719Y111303D01*
X454541Y111140D01*
X454526Y111126D01*
X454497Y111096D01*
X454452Y111052D01*
X454408Y110978D01*
X454334Y110874D01*
X454260Y110770D01*
X454171Y110637D01*
X454097Y110489D01*
X454008Y110311D01*
X453919Y110134D01*
X453845Y109926D01*
X453786Y109704D01*
X453727Y109467D01*
X453682Y109215D01*
X453653Y108934D01*
X453638Y108653D01*
Y108638D01*
Y108594D01*
Y108505D01*
X453653Y108401D01*
X453667Y108283D01*
X453682Y108134D01*
X453712Y107957D01*
X453742Y107779D01*
X453845Y107394D01*
X453919Y107202D01*
X453993Y106994D01*
X454097Y106802D01*
X454201Y106609D01*
X454334Y106417D01*
X454482Y106239D01*
X454497Y106224D01*
X454526Y106195D01*
X454571Y106150D01*
X454645Y106106D01*
X454719Y106032D01*
X454823Y105958D01*
X454956Y105884D01*
X455089Y105795D01*
X455252Y105706D01*
X455415Y105632D01*
X455607Y105558D01*
X455815Y105484D01*
X456037Y105439D01*
X456274Y105395D01*
X456511Y105365D01*
X456777Y105351D01*
X456911D01*
X457014Y105365D01*
X457133D01*
X457281Y105380D01*
X457429Y105410D01*
X457607Y105439D01*
X457991Y105513D01*
X458421Y105632D01*
X458865Y105795D01*
X459072Y105898D01*
X459295Y106017D01*
Y103884D01*
X459280D01*
X459235Y103855D01*
X459176Y103840D01*
X459087Y103796D01*
X458969Y103751D01*
X458836Y103707D01*
X458673Y103662D01*
X458495Y103618D01*
X458288Y103559D01*
X458066Y103514D01*
X457829Y103470D01*
X457562Y103426D01*
X457281Y103381D01*
X456970Y103366D01*
X456659Y103337D01*
X456214D01*
X456081Y103351D01*
X455918Y103366D01*
X455726Y103381D01*
X455489Y103411D01*
X455222Y103455D01*
X454941Y103514D01*
X454645Y103588D01*
X454349Y103677D01*
X454023Y103796D01*
X453712Y103929D01*
X453401Y104077D01*
X453105Y104270D01*
X452809Y104477D01*
X452542Y104729D01*
X452527Y104743D01*
X452483Y104788D01*
X452424Y104877D01*
X452335Y104980D01*
X452231Y105128D01*
X452113Y105291D01*
X451994Y105499D01*
X451861Y105721D01*
X451728Y105987D01*
X451609Y106269D01*
X451491Y106580D01*
X451387Y106905D01*
X451313Y107276D01*
X451239Y107646D01*
X451195Y108060D01*
X451180Y108490D01*
Y108519D01*
Y108594D01*
X451195Y108727D01*
X451209Y108904D01*
X451224Y109112D01*
X451269Y109364D01*
X451313Y109630D01*
X451372Y109926D01*
X451461Y110237D01*
X451550Y110578D01*
X451683Y110904D01*
X451831Y111244D01*
X452009Y111585D01*
X452216Y111911D01*
X452453Y112236D01*
X452720Y112533D01*
X452735Y112547D01*
X452794Y112607D01*
X452883Y112681D01*
X453001Y112769D01*
X453149Y112888D01*
X453342Y113021D01*
X453549Y113169D01*
X453801Y113317D01*
X454067Y113451D01*
X454378Y113599D01*
X454704Y113732D01*
X455060Y113850D01*
X455430Y113939D01*
X455844Y114028D01*
X456274Y114073D01*
X456718Y114087D01*
X456970D01*
X457103Y114073D01*
D02*
G37*
G36*
X478797Y103514D02*
X476428D01*
X472148Y110045D01*
X472133Y110074D01*
X472089Y110134D01*
X472015Y110237D01*
X471941Y110371D01*
X471763Y110652D01*
X471674Y110800D01*
X471615Y110918D01*
X471600D01*
Y110889D01*
X471615Y110815D01*
Y110681D01*
X471630Y110504D01*
Y110267D01*
X471645Y109971D01*
Y109630D01*
Y109230D01*
Y103514D01*
X469438D01*
Y113925D01*
X471970D01*
X476087Y107587D01*
X476102Y107572D01*
X476132Y107513D01*
X476191Y107424D01*
X476265Y107320D01*
X476354Y107187D01*
X476442Y107039D01*
X476620Y106728D01*
X476650D01*
Y106742D01*
X476635Y106802D01*
Y106905D01*
X476620Y107053D01*
X476605Y107246D01*
Y107498D01*
X476591Y107631D01*
Y107794D01*
Y107972D01*
Y108164D01*
Y113925D01*
X478797D01*
Y103514D01*
D02*
G37*
%LPC*%
G36*
X493143Y168913D02*
X493113D01*
X493077Y168899D01*
X493025Y168884D01*
X492973Y168854D01*
X492906Y168817D01*
X492840Y168758D01*
X492773Y168684D01*
X492707Y168581D01*
X492640Y168463D01*
X492603Y168389D01*
X492574Y168307D01*
X492544Y168218D01*
X492522Y168130D01*
X492492Y168026D01*
X492470Y167915D01*
X492456Y167797D01*
X492433Y167664D01*
X492426Y167524D01*
X492411Y167376D01*
X492404Y167221D01*
Y167051D01*
Y167043D01*
Y167029D01*
Y167006D01*
Y166977D01*
Y166932D01*
X492411Y166888D01*
X492419Y166777D01*
X492426Y166644D01*
X492441Y166496D01*
X492463Y166334D01*
X492492Y166171D01*
X492529Y166008D01*
X492581Y165846D01*
X492640Y165698D01*
X492707Y165565D01*
X492796Y165454D01*
X492840Y165410D01*
X492892Y165366D01*
X492943Y165336D01*
X493003Y165314D01*
X493062Y165299D01*
X493128Y165292D01*
X493136D01*
X493158Y165299D01*
X493195Y165306D01*
X493239Y165321D01*
X493291Y165351D01*
X493350Y165388D01*
X493416Y165447D01*
X493483Y165521D01*
X493549Y165617D01*
X493616Y165735D01*
X493675Y165883D01*
X493705Y165964D01*
X493727Y166053D01*
X493749Y166156D01*
X493771Y166260D01*
X493793Y166378D01*
X493808Y166504D01*
X493823Y166637D01*
X493830Y166785D01*
X493838Y166940D01*
Y167102D01*
Y167110D01*
Y167125D01*
Y167147D01*
Y167184D01*
Y167221D01*
X493830Y167272D01*
Y167383D01*
X493816Y167524D01*
X493801Y167679D01*
X493779Y167842D01*
X493749Y168012D01*
X493712Y168174D01*
X493668Y168344D01*
X493609Y168492D01*
X493542Y168633D01*
X493468Y168743D01*
X493424Y168795D01*
X493372Y168839D01*
X493320Y168869D01*
X493269Y168891D01*
X493209Y168906D01*
X493143Y168913D01*
D02*
G37*
G36*
X451995D02*
X451965D01*
X451928Y168899D01*
X451877Y168884D01*
X451825Y168854D01*
X451758Y168817D01*
X451692Y168758D01*
X451625Y168684D01*
X451559Y168581D01*
X451492Y168463D01*
X451455Y168389D01*
X451426Y168307D01*
X451396Y168218D01*
X451374Y168130D01*
X451344Y168026D01*
X451322Y167915D01*
X451308Y167797D01*
X451285Y167664D01*
X451278Y167524D01*
X451263Y167376D01*
X451256Y167221D01*
Y167051D01*
Y167043D01*
Y167029D01*
Y167006D01*
Y166977D01*
Y166932D01*
X451263Y166888D01*
X451271Y166777D01*
X451278Y166644D01*
X451293Y166496D01*
X451315Y166334D01*
X451344Y166171D01*
X451381Y166008D01*
X451433Y165846D01*
X451492Y165698D01*
X451559Y165565D01*
X451648Y165454D01*
X451692Y165410D01*
X451744Y165366D01*
X451795Y165336D01*
X451855Y165314D01*
X451914Y165299D01*
X451980Y165292D01*
X451988D01*
X452010Y165299D01*
X452047Y165306D01*
X452091Y165321D01*
X452143Y165351D01*
X452202Y165388D01*
X452268Y165447D01*
X452335Y165521D01*
X452402Y165617D01*
X452468Y165735D01*
X452527Y165883D01*
X452557Y165964D01*
X452579Y166053D01*
X452601Y166156D01*
X452623Y166260D01*
X452645Y166378D01*
X452660Y166504D01*
X452675Y166637D01*
X452682Y166785D01*
X452690Y166940D01*
Y167102D01*
Y167110D01*
Y167125D01*
Y167147D01*
Y167184D01*
Y167221D01*
X452682Y167272D01*
Y167383D01*
X452668Y167524D01*
X452653Y167679D01*
X452631Y167842D01*
X452601Y168012D01*
X452564Y168174D01*
X452520Y168344D01*
X452461Y168492D01*
X452394Y168633D01*
X452320Y168743D01*
X452276Y168795D01*
X452224Y168839D01*
X452172Y168869D01*
X452121Y168891D01*
X452062Y168906D01*
X451995Y168913D01*
D02*
G37*
%LPD*%
D10*
X61288Y131540D02*
G03*
X61288Y131540I-1000J0D01*
G01*
X640438Y77702D02*
X644667D01*
X640438Y98964D02*
Y106702D01*
Y77702D02*
Y85440D01*
Y106702D02*
X644667D01*
X653438Y89464D02*
Y94940D01*
X9830Y61980D02*
X10830D01*
X9830D02*
Y125980D01*
X63830D01*
Y61980D02*
Y125980D01*
X10830Y61980D02*
X63830D01*
X17780Y123190D02*
X30480D01*
X33020Y125980D01*
X15240D02*
X17780Y123190D01*
X40640Y125980D02*
X43180Y123190D01*
X55880D02*
X58420Y125980D01*
X43180Y123190D02*
X55880D01*
X761330Y86610D02*
X762330D01*
Y22610D02*
Y86610D01*
X708330Y22610D02*
X762330D01*
X708330D02*
Y86610D01*
X761330D01*
X741680Y25400D02*
X754380D01*
X739140Y22610D02*
X741680Y25400D01*
X754380D02*
X756920Y22610D01*
X728980Y25400D02*
X731520Y22610D01*
X713740D02*
X716280Y25400D01*
X728980D01*
X257490Y248530D02*
Y295030D01*
Y248530D02*
X280990D01*
Y295030D01*
X257490D02*
X280990D01*
X269240D02*
Y307730D01*
Y235830D02*
Y248530D01*
X257490Y261230D02*
X280990D01*
X454290Y22226D02*
Y38226D01*
X439790Y22226D02*
Y38226D01*
X298880Y238240D02*
X301880D01*
X298880D02*
Y284240D01*
X301880D01*
X317880D02*
X320880D01*
Y238240D02*
Y284240D01*
X317880Y238240D02*
X320880D01*
X298880Y261240D02*
X320880D01*
X438330Y379530D02*
Y387530D01*
X524330D01*
Y379530D02*
Y387530D01*
Y346530D02*
Y354530D01*
X438330Y346530D02*
X524330D01*
X438330D02*
Y354530D01*
X481330Y346530D02*
Y387530D01*
X49530Y336550D02*
X62230D01*
X64770Y339340D01*
X46990D02*
X49530Y336550D01*
X21590Y339340D02*
X24130Y336550D01*
X36830D02*
X39370Y339340D01*
X24130Y336550D02*
X36830D01*
X17180Y275340D02*
X70180D01*
Y339340D01*
X16180D02*
X70180D01*
X16180Y275340D02*
Y339340D01*
Y275340D02*
X17180D01*
X523060Y285570D02*
Y293570D01*
X437060Y285570D02*
X523060D01*
X437060D02*
Y293570D01*
Y318570D02*
Y326570D01*
X523060D01*
Y318570D02*
Y326570D01*
X480060Y285570D02*
Y326570D01*
X564950Y379550D02*
X572950D01*
Y293550D02*
Y379550D01*
X564950Y293550D02*
X572950D01*
X531950D02*
X539950D01*
X531950D02*
Y379550D01*
X539950D01*
X531950Y336550D02*
X572950D01*
X349430Y379530D02*
Y387530D01*
X435430D01*
Y379530D02*
Y387530D01*
Y346530D02*
Y354530D01*
X349430Y346530D02*
X435430D01*
X349430D02*
Y354530D01*
X392430Y346530D02*
Y387530D01*
X257990Y379530D02*
Y387530D01*
X343990D01*
Y379530D02*
Y387530D01*
Y346530D02*
Y354530D01*
X257990Y346530D02*
X343990D01*
X257990D02*
Y354530D01*
X300990Y346530D02*
Y387530D01*
D11*
X840806Y70320D02*
G03*
X840806Y70320I-3607J0D01*
G01*
Y42319D02*
G03*
X840806Y42319I-3607J0D01*
G01*
X812805D02*
G03*
X812805Y42319I-3607J0D01*
G01*
Y70320D02*
G03*
X812805Y70320I-3607J0D01*
G01*
X832419Y56320D02*
G03*
X832419Y56320I-9220J0D01*
G01*
X817215Y33820D02*
X829185D01*
X845699Y35886D02*
Y76754D01*
X817897Y80320D02*
X828503D01*
X800699Y35883D02*
Y76757D01*
X905258Y167893D02*
Y160275D01*
X909067D01*
X910336Y161545D01*
Y166623D01*
X909067Y167893D01*
X905258D01*
X912876Y166623D02*
X914145Y167893D01*
X916684D01*
X917954Y166623D01*
Y165354D01*
X916684Y164084D01*
X915415D01*
X916684D01*
X917954Y162814D01*
Y161545D01*
X916684Y160275D01*
X914145D01*
X912876Y161545D01*
X903608Y251207D02*
Y258825D01*
X907417D01*
X908686Y257555D01*
Y255016D01*
X907417Y253746D01*
X903608D01*
X906147D02*
X908686Y251207D01*
X911226D02*
X913765D01*
X912495D01*
Y258825D01*
X911226Y257555D01*
X917574Y252477D02*
X918843Y251207D01*
X921382D01*
X922652Y252477D01*
Y257555D01*
X921382Y258825D01*
X918843D01*
X917574Y257555D01*
Y256286D01*
X918843Y255016D01*
X922652D01*
X657862Y400049D02*
Y393701D01*
X659132Y392431D01*
X661671D01*
X662940Y393701D01*
Y400049D01*
X669288Y392431D02*
Y400049D01*
X665480Y396240D01*
X670558D01*
X503556Y271525D02*
X502287Y272795D01*
X499748D01*
X498478Y271525D01*
Y266447D01*
X499748Y265177D01*
X502287D01*
X503556Y266447D01*
X506096Y265177D02*
X508635D01*
X507365D01*
Y272795D01*
X506096Y271525D01*
X512444D02*
X513713Y272795D01*
X516252D01*
X517522Y271525D01*
Y266447D01*
X516252Y265177D01*
X513713D01*
X512444Y266447D01*
Y271525D01*
X442722Y251205D02*
X441453Y252475D01*
X438914D01*
X437644Y251205D01*
Y246127D01*
X438914Y244857D01*
X441453D01*
X442722Y246127D01*
X445262D02*
X446531Y244857D01*
X449070D01*
X450340Y246127D01*
Y251205D01*
X449070Y252475D01*
X446531D01*
X445262Y251205D01*
Y249936D01*
X446531Y248666D01*
X450340D01*
X434470Y265177D02*
Y272795D01*
X438279D01*
X439548Y271525D01*
Y268986D01*
X438279Y267716D01*
X434470D01*
X437009D02*
X439548Y265177D01*
X442088D02*
X444627D01*
X443357D01*
Y272795D01*
X442088Y271525D01*
X448436D02*
X449705Y272795D01*
X452244D01*
X453514Y271525D01*
Y270256D01*
X452244Y268986D01*
X453514Y267716D01*
Y266447D01*
X452244Y265177D01*
X449705D01*
X448436Y266447D01*
Y267716D01*
X449705Y268986D01*
X448436Y270256D01*
Y271525D01*
X449705Y268986D02*
X452244D01*
X60706Y222502D02*
Y216154D01*
X61976Y214884D01*
X64515D01*
X65784Y216154D01*
Y222502D01*
X68323Y214884D02*
X70863D01*
X69593D01*
Y222502D01*
X68323Y221232D01*
X647192Y66041D02*
Y71119D01*
X645922Y72389D01*
X643383D01*
X642114Y71119D01*
Y66041D01*
X643383Y64771D01*
X645922D01*
X644653Y67310D02*
X647192Y64771D01*
X645922D02*
X647192Y66041D01*
X649731Y64771D02*
X652270D01*
X651001D01*
Y72389D01*
X649731Y71119D01*
X905386Y334011D02*
Y341629D01*
X909195D01*
X910464Y340359D01*
Y337820D01*
X909195Y336550D01*
X905386D01*
X907925D02*
X910464Y334011D01*
X913004D02*
X915543D01*
X914273D01*
Y341629D01*
X913004Y340359D01*
X924430Y334011D02*
X919352D01*
X924430Y339090D01*
Y340359D01*
X923160Y341629D01*
X920621D01*
X919352Y340359D01*
X74932Y400303D02*
Y392685D01*
Y395224D01*
X80010Y400303D01*
X76201Y396494D01*
X80010Y392685D01*
X82549D02*
X85088D01*
X83819D01*
Y400303D01*
X82549Y399033D01*
X688342Y88901D02*
Y96519D01*
X692151D01*
X693420Y95249D01*
Y92710D01*
X692151Y91440D01*
X688342D01*
X690881D02*
X693420Y88901D01*
X695960Y96519D02*
X701038D01*
Y95249D01*
X695960Y90171D01*
Y88901D01*
X506986Y117603D02*
Y125221D01*
X510795D01*
X512064Y123951D01*
Y121412D01*
X510795Y120142D01*
X506986D01*
X509525D02*
X512064Y117603D01*
X519682Y125221D02*
X517143Y123951D01*
X514604Y121412D01*
Y118873D01*
X515873Y117603D01*
X518412D01*
X519682Y118873D01*
Y120142D01*
X518412Y121412D01*
X514604D01*
X486158Y117603D02*
Y125221D01*
X489967D01*
X491236Y123951D01*
Y121412D01*
X489967Y120142D01*
X486158D01*
X488697D02*
X491236Y117603D01*
X493776Y118873D02*
X495045Y117603D01*
X497584D01*
X498854Y118873D01*
Y123951D01*
X497584Y125221D01*
X495045D01*
X493776Y123951D01*
Y122682D01*
X495045Y121412D01*
X498854D01*
X445772Y117857D02*
Y125475D01*
X449581D01*
X450850Y124205D01*
Y121666D01*
X449581Y120396D01*
X445772D01*
X448311D02*
X450850Y117857D01*
X453390Y124205D02*
X454659Y125475D01*
X457198D01*
X458468Y124205D01*
Y122936D01*
X457198Y121666D01*
X458468Y120396D01*
Y119127D01*
X457198Y117857D01*
X454659D01*
X453390Y119127D01*
Y120396D01*
X454659Y121666D01*
X453390Y122936D01*
Y124205D01*
X454659Y121666D02*
X457198D01*
X859790Y80009D02*
X857251D01*
X858521D01*
Y73661D01*
X857251Y72391D01*
X855982D01*
X854712Y73661D01*
X866138Y72391D02*
Y80009D01*
X862330Y76200D01*
X867408D01*
X783590Y50799D02*
X782321Y52069D01*
X779782D01*
X778512Y50799D01*
Y45721D01*
X779782Y44451D01*
X782321D01*
X783590Y45721D01*
X791208Y52069D02*
X786130D01*
Y48260D01*
X788669Y49530D01*
X789938D01*
X791208Y48260D01*
Y45721D01*
X789938Y44451D01*
X787399D01*
X786130Y45721D01*
X727078Y119381D02*
Y126999D01*
X730887D01*
X732156Y125729D01*
Y123190D01*
X730887Y121920D01*
X727078D01*
X729617D02*
X732156Y119381D01*
X734696D02*
X737235D01*
X735965D01*
Y126999D01*
X734696Y125729D01*
X741044D02*
X742313Y126999D01*
X744852D01*
X746122Y125729D01*
Y120651D01*
X744852Y119381D01*
X742313D01*
X741044Y120651D01*
Y125729D01*
X818772Y112523D02*
Y120141D01*
X822580D01*
X823850Y118871D01*
Y116332D01*
X822580Y115062D01*
X818772D01*
X821311D02*
X823850Y112523D01*
X826389D02*
X828928D01*
X827659D01*
Y120141D01*
X826389Y118871D01*
X832737Y112523D02*
X835276D01*
X834007D01*
Y120141D01*
X832737Y118871D01*
X670814Y37337D02*
X668275D01*
X669545D01*
Y30989D01*
X668275Y29719D01*
X667006D01*
X665736Y30989D01*
X673354Y36067D02*
X674623Y37337D01*
X677162D01*
X678432Y36067D01*
Y34798D01*
X677162Y33528D01*
X675893D01*
X677162D01*
X678432Y32258D01*
Y30989D01*
X677162Y29719D01*
X674623D01*
X673354Y30989D01*
X821692Y140461D02*
Y132843D01*
X825501D01*
X826770Y134113D01*
Y139191D01*
X825501Y140461D01*
X821692D01*
X834388Y132843D02*
X829310D01*
X834388Y137922D01*
Y139191D01*
X833118Y140461D01*
X830579D01*
X829310Y139191D01*
X280672Y240029D02*
Y232411D01*
X284480D01*
X285750Y233681D01*
Y238759D01*
X284480Y240029D01*
X280672D01*
X288289Y232411D02*
X290828D01*
X289559D01*
Y240029D01*
X288289Y238759D01*
X430532Y240029D02*
Y233681D01*
X431802Y232411D01*
X434341D01*
X435610Y233681D01*
Y240029D01*
X438150Y238759D02*
X439419Y240029D01*
X441958D01*
X443228Y238759D01*
Y237490D01*
X441958Y236220D01*
X440689D01*
X441958D01*
X443228Y234950D01*
Y233681D01*
X441958Y232411D01*
X439419D01*
X438150Y233681D01*
X544832Y270509D02*
Y264161D01*
X546102Y262891D01*
X548641D01*
X549910Y264161D01*
Y270509D01*
X557528Y262891D02*
X552450D01*
X557528Y267970D01*
Y269239D01*
X556258Y270509D01*
X553719D01*
X552450Y269239D01*
X438658Y335280D02*
Y342898D01*
X442467D01*
X443736Y341628D01*
Y339089D01*
X442467Y337819D01*
X438658D01*
X441197D02*
X443736Y335280D01*
X446275D02*
X448815D01*
X447545D01*
Y342898D01*
X446275Y341628D01*
X452623Y342898D02*
X457702D01*
Y341628D01*
X452623Y336550D01*
Y335280D01*
X533400Y388112D02*
Y395730D01*
X537209D01*
X538478Y394460D01*
Y391921D01*
X537209Y390651D01*
X533400D01*
X535939D02*
X538478Y388112D01*
X541017D02*
X543557D01*
X542287D01*
Y395730D01*
X541017Y394460D01*
X552444Y395730D02*
X549905Y394460D01*
X547365Y391921D01*
Y389382D01*
X548635Y388112D01*
X551174D01*
X552444Y389382D01*
Y390651D01*
X551174Y391921D01*
X547365D01*
X439928Y396240D02*
Y403858D01*
X443737D01*
X445006Y402588D01*
Y400049D01*
X443737Y398779D01*
X439928D01*
X442467D02*
X445006Y396240D01*
X447546D02*
X450085D01*
X448815D01*
Y403858D01*
X447546Y402588D01*
X458972Y403858D02*
X453894D01*
Y400049D01*
X456433Y401318D01*
X457702D01*
X458972Y400049D01*
Y397510D01*
X457702Y396240D01*
X455163D01*
X453894Y397510D01*
X351028Y396240D02*
Y403858D01*
X354837D01*
X356106Y402588D01*
Y400049D01*
X354837Y398779D01*
X351028D01*
X353567D02*
X356106Y396240D01*
X358646D02*
X361185D01*
X359915D01*
Y403858D01*
X358646Y402588D01*
X368802Y396240D02*
Y403858D01*
X364994Y400049D01*
X370072D01*
X259588Y396240D02*
Y403858D01*
X263397D01*
X264666Y402588D01*
Y400049D01*
X263397Y398779D01*
X259588D01*
X262127D02*
X264666Y396240D01*
X267206D02*
X269745D01*
X268475D01*
Y403858D01*
X267206Y402588D01*
X273554D02*
X274823Y403858D01*
X277362D01*
X278632Y402588D01*
Y401318D01*
X277362Y400049D01*
X276093D01*
X277362D01*
X278632Y398779D01*
Y397510D01*
X277362Y396240D01*
X274823D01*
X273554Y397510D01*
X688342Y50801D02*
Y58419D01*
X692151D01*
X693420Y57149D01*
Y54610D01*
X692151Y53341D01*
X688342D01*
X690881D02*
X693420Y50801D01*
X699768D02*
Y58419D01*
X695960Y54610D01*
X701038D01*
X465838Y117603D02*
Y125221D01*
X469647D01*
X470916Y123951D01*
Y121412D01*
X469647Y120142D01*
X465838D01*
X468377D02*
X470916Y117603D01*
X478534Y125221D02*
X473456D01*
Y121412D01*
X475995Y122682D01*
X477264D01*
X478534Y121412D01*
Y118873D01*
X477264Y117603D01*
X474725D01*
X473456Y118873D01*
X337568Y245365D02*
Y252983D01*
X341377D01*
X342646Y251713D01*
Y249174D01*
X341377Y247904D01*
X337568D01*
X340107D02*
X342646Y245365D01*
X345186Y251713D02*
X346455Y252983D01*
X348994D01*
X350264Y251713D01*
Y250444D01*
X348994Y249174D01*
X347725D01*
X348994D01*
X350264Y247904D01*
Y246635D01*
X348994Y245365D01*
X346455D01*
X345186Y246635D01*
X303532Y226061D02*
Y233679D01*
X307341D01*
X308610Y232409D01*
Y229870D01*
X307341Y228601D01*
X303532D01*
X306071D02*
X308610Y226061D01*
X316228D02*
X311150D01*
X316228Y231140D01*
Y232409D01*
X314958Y233679D01*
X312419D01*
X311150Y232409D01*
X337822Y299721D02*
Y307339D01*
X341630D01*
X342900Y306069D01*
Y303530D01*
X341630Y302260D01*
X337822D01*
X340361D02*
X342900Y299721D01*
X345439D02*
X347978D01*
X346709D01*
Y307339D01*
X345439Y306069D01*
X16762Y360678D02*
X14223D01*
X15493D01*
Y354330D01*
X14223Y353060D01*
X12954D01*
X11684Y354330D01*
X24380Y353060D02*
X19302D01*
X24380Y358138D01*
Y359408D01*
X23110Y360678D01*
X20571D01*
X19302Y359408D01*
X10412Y147318D02*
X7873D01*
X9143D01*
Y140970D01*
X7873Y139700D01*
X6604D01*
X5334Y140970D01*
X12952Y139700D02*
X15491D01*
X14221D01*
Y147318D01*
X12952Y146048D01*
X448310Y67055D02*
X443232D01*
Y63246D01*
X445771D01*
X443232D01*
Y59437D01*
X450849D02*
X453388D01*
X452119D01*
Y67055D01*
X450849Y65785D01*
X431038Y195579D02*
X429769Y196849D01*
X427230D01*
X425960Y195579D01*
Y190501D01*
X427230Y189231D01*
X429769D01*
X431038Y190501D01*
X433578Y195579D02*
X434847Y196849D01*
X437386D01*
X438656Y195579D01*
Y194310D01*
X437386Y193040D01*
X438656Y191770D01*
Y190501D01*
X437386Y189231D01*
X434847D01*
X433578Y190501D01*
Y191770D01*
X434847Y193040D01*
X433578Y194310D01*
Y195579D01*
X434847Y193040D02*
X437386D01*
X890270Y339979D02*
X889001Y341249D01*
X886462D01*
X885192Y339979D01*
Y334901D01*
X886462Y333631D01*
X889001D01*
X890270Y334901D01*
X892810Y341249D02*
X897888D01*
Y339979D01*
X892810Y334901D01*
Y333631D01*
X626618Y131825D02*
X625349Y133095D01*
X622810D01*
X621540Y131825D01*
Y126747D01*
X622810Y125477D01*
X625349D01*
X626618Y126747D01*
X634236Y133095D02*
X631697Y131825D01*
X629158Y129286D01*
Y126747D01*
X630427Y125477D01*
X632966D01*
X634236Y126747D01*
Y128016D01*
X632966Y129286D01*
X629158D01*
X391160Y246379D02*
X389891Y247649D01*
X387352D01*
X386082Y246379D01*
Y241301D01*
X387352Y240031D01*
X389891D01*
X391160Y241301D01*
X397508Y240031D02*
Y247649D01*
X393700Y243840D01*
X398778D01*
X391160Y283209D02*
X389891Y284479D01*
X387352D01*
X386082Y283209D01*
Y278131D01*
X387352Y276861D01*
X389891D01*
X391160Y278131D01*
X393700Y283209D02*
X394969Y284479D01*
X397508D01*
X398778Y283209D01*
Y281940D01*
X397508Y280670D01*
X396239D01*
X397508D01*
X398778Y279401D01*
Y278131D01*
X397508Y276861D01*
X394969D01*
X393700Y278131D01*
X508762Y49783D02*
X507493Y51053D01*
X504954D01*
X503684Y49783D01*
Y44705D01*
X504954Y43435D01*
X507493D01*
X508762Y44705D01*
X516380Y43435D02*
X511302D01*
X516380Y48514D01*
Y49783D01*
X515110Y51053D01*
X512571D01*
X511302Y49783D01*
X484632D02*
X483362Y51053D01*
X480823D01*
X479554Y49783D01*
Y44705D01*
X480823Y43435D01*
X483362D01*
X484632Y44705D01*
X487171Y43435D02*
X489710D01*
X488441D01*
Y51053D01*
X487171Y49783D01*
D12*
X612846Y157739D02*
G03*
X612846Y157739I-1501J0D01*
G01*
X634659Y150345D02*
G03*
X634659Y150345I-1501J0D01*
G01*
D13*
X910336Y209804D02*
Y211074D01*
X903876D02*
X910336D01*
X903876Y209804D02*
Y211074D01*
X921876Y209804D02*
Y211074D01*
X915416D02*
X921876D01*
X915416Y209804D02*
Y211074D01*
X903876Y170434D02*
X905876D01*
X903876D02*
Y209804D01*
X910336D01*
X919876Y170434D02*
X921876D01*
Y209804D01*
X915416D02*
X921876D01*
X903876Y190754D02*
X921876D01*
X912876D02*
Y193294D01*
X910336Y188214D02*
X915416D01*
X910336D02*
X912876Y190754D01*
X915416Y188214D01*
X903876Y230886D02*
X921876D01*
X919876Y247886D02*
X921876D01*
Y213886D02*
Y247886D01*
X919876Y213886D02*
X921876D01*
X903876Y247886D02*
X905876D01*
X903876Y213886D02*
Y247886D01*
Y213886D02*
X905876D01*
X496968Y244094D02*
X514968D01*
X496968Y261094D02*
X500968D01*
X496968Y227094D02*
Y261094D01*
Y227094D02*
X500968D01*
X510968D02*
X514968D01*
Y261094D01*
X510968D02*
X514968D01*
X490582Y238396D02*
Y242396D01*
X456582Y238396D02*
X490582D01*
X456582D02*
Y242396D01*
Y252396D02*
Y256396D01*
X490582D01*
Y252396D02*
Y256396D01*
X473582Y238396D02*
Y256396D01*
X456202Y274716D02*
Y276716D01*
X490202D01*
Y274716D02*
Y276716D01*
X456202Y258716D02*
Y260716D01*
Y258716D02*
X490202D01*
Y260716D01*
X473202Y258716D02*
Y276716D01*
X918876Y380982D02*
X920876D01*
Y346982D02*
Y380982D01*
X918876Y346982D02*
X920876D01*
X904876Y380982D02*
X906876D01*
X904876Y346982D02*
Y380982D01*
Y346982D02*
X906876D01*
X904876Y363982D02*
X920876D01*
X665370Y92710D02*
X683370D01*
X665370Y75710D02*
X667370D01*
X665370D02*
Y109710D01*
X667370D01*
X681370Y75710D02*
X683370D01*
Y109710D01*
X681370D02*
X683370D01*
X520189Y163415D02*
X522189D01*
Y129415D02*
Y163415D01*
X520189Y129415D02*
X522189D01*
X504189Y163415D02*
X506189D01*
X504189Y129415D02*
Y163415D01*
Y129415D02*
X506189D01*
X504189Y146415D02*
X522189D01*
X484014Y129304D02*
X486014D01*
X484014D02*
Y163304D01*
X486014D01*
X500014Y129304D02*
X502014D01*
Y163304D01*
X500014D02*
X502014D01*
X484014Y146304D02*
X502014D01*
X443120Y129304D02*
X445120D01*
X443120D02*
Y163304D01*
X445120D01*
X459120Y129304D02*
X461120D01*
Y163304D01*
X459120D02*
X461120D01*
X443120Y146304D02*
X461120D01*
X775860Y73280D02*
X793860D01*
X789860Y56280D02*
X793860D01*
Y90280D01*
X789860D02*
X793860D01*
X775860D02*
X779860D01*
X775860Y56280D02*
Y90280D01*
Y56280D02*
X779860D01*
X681370Y72880D02*
X683370D01*
Y38880D02*
Y72880D01*
X681370Y38880D02*
X683370D01*
X665370Y72880D02*
X667370D01*
X665370Y38880D02*
Y72880D01*
Y38880D02*
X667370D01*
X665370Y55880D02*
X683370D01*
X643272Y117620D02*
X647272D01*
X643272D02*
Y151620D01*
X647272D01*
X657272D02*
X661272D01*
Y117620D02*
Y151620D01*
X657272Y117620D02*
X661272D01*
X643272Y134620D02*
X661272D01*
X722140Y112410D02*
Y114410D01*
X756140D01*
Y112410D02*
Y114410D01*
X722140Y96410D02*
Y98410D01*
Y96410D02*
X756140D01*
Y98410D01*
X739140Y96410D02*
Y114410D01*
X839996Y122316D02*
Y124316D01*
X873996D01*
Y122316D02*
Y124316D01*
X839996Y106316D02*
Y108316D01*
Y106316D02*
X873996D01*
Y108316D01*
X856996Y106316D02*
Y124316D01*
X858520Y135890D02*
X861060Y138430D01*
X858520Y135890D02*
X861060Y133350D01*
Y138430D01*
X855980Y135890D02*
X858520D01*
Y126890D02*
Y144890D01*
X839470Y138430D02*
Y144890D01*
X878840D01*
Y142890D02*
Y144890D01*
X839470Y126890D02*
Y133350D01*
Y126890D02*
X878840D01*
Y128890D01*
X838200Y138430D02*
X839470D01*
X838200D02*
Y144890D01*
X839470D01*
X838200Y126890D02*
X839470D01*
X838200D02*
Y133350D01*
X839470D01*
X883810Y347110D02*
X887810D01*
X883810D02*
Y381110D01*
X887810D01*
X897810D02*
X901810D01*
Y347110D02*
Y381110D01*
X897810Y347110D02*
X901810D01*
X883810Y364110D02*
X901810D01*
X422800Y168910D02*
X440800D01*
X422800Y185910D02*
X426800D01*
X422800Y151910D02*
Y185910D01*
Y151910D02*
X426800D01*
X436800D02*
X440800D01*
Y185910D01*
X436800D02*
X440800D01*
X475632Y21844D02*
X493632D01*
X489632Y4844D02*
X493632D01*
Y38844D01*
X489632D02*
X493632D01*
X475632D02*
X479632D01*
X475632Y4844D02*
Y38844D01*
Y4844D02*
X479632D01*
X325560Y239680D02*
Y241680D01*
X359560D01*
Y239680D02*
Y241680D01*
X325560Y225680D02*
Y227680D01*
Y225680D02*
X359560D01*
Y227680D01*
X342560Y225680D02*
Y241680D01*
X325900Y293910D02*
Y295910D01*
X359900D01*
Y293910D02*
Y295910D01*
X325900Y279910D02*
Y281910D01*
Y279910D02*
X359900D01*
Y281910D01*
X342900Y279910D02*
Y295910D01*
X501032Y21844D02*
X519032D01*
X515032Y4844D02*
X519032D01*
Y38844D01*
X515032D02*
X519032D01*
X501032D02*
X505032D01*
X501032Y4844D02*
Y38844D01*
Y4844D02*
X505032D01*
X364380Y280290D02*
X382380D01*
X364380Y297290D02*
X368380D01*
X364380Y263290D02*
Y297290D01*
Y263290D02*
X368380D01*
X378380D02*
X382380D01*
Y297290D01*
X378380D02*
X382380D01*
X364380Y243460D02*
X382380D01*
X364380Y260460D02*
X368380D01*
X364380Y226460D02*
Y260460D01*
Y226460D02*
X368380D01*
X378380D02*
X382380D01*
Y260460D01*
X378380D02*
X382380D01*
X462932Y146418D02*
X480932D01*
X462932Y129418D02*
X464932D01*
X462932D02*
Y163418D01*
X464932D01*
X478932Y129418D02*
X480932D01*
Y163418D01*
X478932D02*
X480932D01*
D14*
X74790Y4540D02*
X414790D01*
Y204540D01*
X74790D02*
X414790D01*
X74790Y4540D02*
Y204540D01*
X89640Y403340D02*
X245640D01*
Y211340D02*
Y403340D01*
X89640Y211340D02*
X245640D01*
X89640D02*
Y403340D01*
D15*
X471449Y217780D02*
X471957Y217856D01*
X472415Y218135D01*
X472745Y218516D01*
X472923Y219024D01*
Y219532D01*
X472745Y220015D02*
X472923Y219532D01*
X472415Y220421D02*
X472745Y220015D01*
X471957Y220675D02*
X472415Y220421D01*
X471449Y220777D02*
X471957Y220675D01*
X470916D02*
X471449Y220777D01*
X470484Y220421D02*
X470916Y220675D01*
X470129Y220015D02*
X470484Y220421D01*
X469951Y219532D02*
X470129Y220015D01*
X469951Y219024D02*
Y219532D01*
Y219024D02*
X470129Y218516D01*
X470484Y218135D01*
X470916Y217856D01*
X471449Y217780D01*
X455854Y225857D02*
X456362Y225933D01*
X456819Y226213D01*
X457149Y226593D01*
X457327Y227101D01*
Y227610D01*
X457149Y228092D02*
X457327Y227610D01*
X456819Y228498D02*
X457149Y228092D01*
X456362Y228752D02*
X456819Y228498D01*
X455854Y228854D02*
X456362Y228752D01*
X455346D02*
X455854Y228854D01*
X454889Y228498D02*
X455346Y228752D01*
X454558Y228092D02*
X454889Y228498D01*
X454381Y227610D02*
X454558Y228092D01*
X454381Y227101D02*
Y227610D01*
Y227101D02*
X454558Y226593D01*
X454889Y226213D01*
X455346Y225933D01*
X455854Y225857D01*
D16*
X467208Y173533D02*
Y224104D01*
Y173533D02*
X497586D01*
Y224104D01*
X467208D02*
X497586D01*
X552441Y149927D02*
X618869D01*
X552441D02*
Y254451D01*
X618869D01*
Y149927D02*
Y254451D01*
M02*
