G04*
G04 #@! TF.GenerationSoftware,Altium Limited,Altium Designer,26.10.1 (5)*
G04*
G04 Layer_Color=8421504*
G04 Board_Origin=17350000|28099997*
%FSLAX44Y44*%
%MOMM*%
G71*
G04*
G04 #@! TF.SameCoordinates,4052EFD6-7243-4EC4-BE30-6AAA83A439E8*
G04*
G04*
G04 #@! TF.FilePolarity,Positive*
G04*
G01*
G75*
%ADD17R,1.2000X1.2000*%
%ADD18R,1.3500X1.1500*%
%ADD19R,1.2000X0.9000*%
%ADD20R,1.4000X1.3000*%
%ADD21O,2.4005X0.5740*%
%ADD22R,1.6500X1.2500*%
%ADD23R,1.1500X1.3500*%
G04:AMPARAMS|DCode=24|XSize=1.6552mm|YSize=0.6025mm|CornerRadius=0.3012mm|HoleSize=0mm|Usage=FLASHONLY|Rotation=180.000|XOffset=0mm|YOffset=0mm|HoleType=Round|Shape=RoundedRectangle|*
%AMROUNDEDRECTD24*
21,1,1.6552,0.0000,0,0,180.0*
21,1,1.0528,0.6025,0,0,180.0*
1,1,0.6025,-0.5264,0.0000*
1,1,0.6025,0.5264,0.0000*
1,1,0.6025,0.5264,0.0000*
1,1,0.6025,-0.5264,0.0000*
%
%ADD24ROUNDEDRECTD24*%
%ADD25R,1.3000X1.4000*%
%ADD26O,1.8136X0.3556*%
%ADD27R,0.9000X1.2000*%
%ADD28R,1.6500X1.2000*%
%ADD29R,1.6000X3.6500*%
%ADD30R,1.6552X0.6025*%
%ADD31R,1.2000X1.2000*%
%ADD32R,3.6500X1.6000*%
D17*
X912876Y180254D02*
D03*
Y201254D02*
D03*
D18*
Y239636D02*
D03*
Y222136D02*
D03*
X674370Y101460D02*
D03*
X493014Y137554D02*
D03*
X452120D02*
D03*
X674370Y83960D02*
D03*
X513189Y155165D02*
D03*
Y137665D02*
D03*
X493014Y155054D02*
D03*
X452120D02*
D03*
X471932Y155168D02*
D03*
X674370Y64630D02*
D03*
Y47130D02*
D03*
X471932Y137668D02*
D03*
D19*
X912876Y353482D02*
D03*
Y374482D02*
D03*
D20*
X652272Y142620D02*
D03*
X510032Y29844D02*
D03*
X484632D02*
D03*
X892810Y356110D02*
D03*
X784860Y65280D02*
D03*
X652272Y126620D02*
D03*
X484632Y13844D02*
D03*
X510032D02*
D03*
X505968Y236094D02*
D03*
Y252094D02*
D03*
X431800Y160910D02*
D03*
X373380Y272290D02*
D03*
Y251460D02*
D03*
X784860Y81280D02*
D03*
X892810Y372110D02*
D03*
X431800Y176910D02*
D03*
X373380Y288290D02*
D03*
Y235460D02*
D03*
D21*
X633158Y157739D02*
D03*
Y170439D02*
D03*
Y246639D02*
D03*
X538152D02*
D03*
Y170439D02*
D03*
X633158Y183139D02*
D03*
Y195839D02*
D03*
Y208539D02*
D03*
Y221239D02*
D03*
Y233939D02*
D03*
X538152Y157739D02*
D03*
Y183139D02*
D03*
Y195839D02*
D03*
Y208539D02*
D03*
Y221239D02*
D03*
Y233939D02*
D03*
D22*
X447040Y47476D02*
D03*
Y12976D02*
D03*
D23*
X865746Y115316D02*
D03*
X464452Y267716D02*
D03*
X481952D02*
D03*
X730390Y105410D02*
D03*
X747890D02*
D03*
X848246Y115316D02*
D03*
D24*
X656693Y101702D02*
D03*
X637183Y92202D02*
D03*
D25*
X481582Y247396D02*
D03*
X465582D02*
D03*
D26*
X508965Y202006D02*
D03*
Y195656D02*
D03*
X455854Y189306D02*
D03*
Y195656D02*
D03*
X508965Y189306D02*
D03*
X455854Y221056D02*
D03*
Y214706D02*
D03*
Y208356D02*
D03*
Y202006D02*
D03*
Y182956D02*
D03*
Y176606D02*
D03*
X508965Y221056D02*
D03*
Y214706D02*
D03*
Y208356D02*
D03*
Y182956D02*
D03*
Y176606D02*
D03*
D27*
X332060Y233680D02*
D03*
X353060D02*
D03*
X332400Y287910D02*
D03*
X353400D02*
D03*
D28*
X309880Y247240D02*
D03*
Y275240D02*
D03*
D29*
X448310Y306070D02*
D03*
X269240Y367030D02*
D03*
X449580D02*
D03*
X513080D02*
D03*
X511810Y306070D02*
D03*
X360680Y367030D02*
D03*
X424180D02*
D03*
X332740D02*
D03*
D30*
X656693Y82702D02*
D03*
D31*
X848020Y135890D02*
D03*
X869020D02*
D03*
D32*
X552450Y368300D02*
D03*
Y304800D02*
D03*
M02*
