G04*
G04 #@! TF.GenerationSoftware,Altium Limited,Altium Designer,26.10.1 (5)*
G04*
G04 Layer_Physical_Order=1*
G04 Layer_Color=255*
G04 Board_Origin=17350000|28099997*
%FSLAX44Y44*%
%MOMM*%
G71*
G04*
G04 #@! TF.SameCoordinates,4052EFD6-7243-4EC4-BE30-6AAA83A439E8*
G04*
G04*
G04 #@! TF.FilePolarity,Positive*
G04*
G01*
G75*
%ADD17R,1.2000X1.2000*%
%ADD18R,1.3500X1.1500*%
%ADD19R,1.2000X0.9000*%
%ADD20R,1.4000X1.3000*%
%ADD21O,2.4005X0.5740*%
%ADD22R,1.6500X1.2500*%
%ADD23R,1.1500X1.3500*%
G04:AMPARAMS|DCode=24|XSize=1.6552mm|YSize=0.6025mm|CornerRadius=0.3012mm|HoleSize=0mm|Usage=FLASHONLY|Rotation=180.000|XOffset=0mm|YOffset=0mm|HoleType=Round|Shape=RoundedRectangle|*
%AMROUNDEDRECTD24*
21,1,1.6552,0.0000,0,0,180.0*
21,1,1.0528,0.6025,0,0,180.0*
1,1,0.6025,-0.5264,0.0000*
1,1,0.6025,0.5264,0.0000*
1,1,0.6025,0.5264,0.0000*
1,1,0.6025,-0.5264,0.0000*
%
%ADD24ROUNDEDRECTD24*%
%ADD25R,1.3000X1.4000*%
%ADD26O,1.8136X0.3556*%
%ADD27R,0.9000X1.2000*%
%ADD28R,1.6500X1.2000*%
%ADD29R,1.6000X3.6500*%
%ADD30R,1.6552X0.6025*%
%ADD31R,1.2000X1.2000*%
%ADD32R,3.6500X1.6000*%
%ADD55C,0.3810*%
%ADD56C,1.0160*%
%ADD57C,0.7620*%
%ADD58R,3.0000X1.7000*%
%ADD59C,1.5500*%
%ADD60C,1.9500*%
%ADD61C,1.7000*%
%ADD62C,1.6000*%
%ADD63O,1.7500X2.5000*%
%ADD64C,1.5080*%
%ADD65R,1.5080X1.5080*%
%ADD66C,0.6000*%
G36*
X839724Y325324D02*
X749554D01*
X748018Y325019D01*
X746716Y324148D01*
X714855Y292288D01*
X712978Y293066D01*
Y383794D01*
X839724D01*
Y325324D01*
D02*
G37*
G36*
X185420Y287782D02*
X2039D01*
Y345948D01*
X78994D01*
Y409441D01*
X185420D01*
Y287782D01*
D02*
G37*
G36*
X342900Y266700D02*
X294640D01*
Y330200D01*
X342900D01*
Y266700D01*
D02*
G37*
G36*
Y200660D02*
X294640D01*
Y256540D01*
X342900D01*
Y200660D01*
D02*
G37*
G36*
X839724Y188468D02*
X712978D01*
Y279710D01*
X713253Y279764D01*
X714556Y280635D01*
X751217Y317296D01*
X839724D01*
Y188468D01*
D02*
G37*
G36*
X127000Y200660D02*
Y2039D01*
X69492D01*
Y59779D01*
X2039D01*
Y268986D01*
X127000D01*
Y200660D01*
D02*
G37*
%LPC*%
G36*
X109191Y379122D02*
X106089D01*
X103092Y378319D01*
X100406Y376768D01*
X98212Y374574D01*
X96661Y371888D01*
X95858Y368891D01*
Y365789D01*
X96661Y362792D01*
X98212Y360106D01*
X100406Y357912D01*
X103092Y356361D01*
X106089Y355558D01*
X109191D01*
X112188Y356361D01*
X114874Y357912D01*
X117068Y360106D01*
X118619Y362792D01*
X119422Y365789D01*
Y368891D01*
X118619Y371888D01*
X117068Y374574D01*
X114874Y376768D01*
X112188Y378319D01*
X109191Y379122D01*
D02*
G37*
G36*
X55880Y321965D02*
X53065Y321595D01*
X50443Y320508D01*
X48190Y318780D01*
X46462Y316528D01*
X45375Y313905D01*
X45005Y311090D01*
Y303590D01*
X45375Y300775D01*
X46462Y298153D01*
X48190Y295900D01*
X50443Y294172D01*
X53065Y293086D01*
X55880Y292715D01*
X58695Y293086D01*
X61318Y294172D01*
X63570Y295900D01*
X65298Y298153D01*
X66385Y300775D01*
X66755Y303590D01*
Y311090D01*
X66385Y313905D01*
X65298Y316528D01*
X63570Y318780D01*
X61318Y320508D01*
X58695Y321595D01*
X55880Y321965D01*
D02*
G37*
G36*
X49530Y108605D02*
X46715Y108235D01*
X44092Y107148D01*
X41840Y105420D01*
X40112Y103168D01*
X39025Y100545D01*
X38655Y97730D01*
Y90230D01*
X39025Y87415D01*
X40112Y84792D01*
X41840Y82540D01*
X44092Y80812D01*
X46715Y79726D01*
X49530Y79355D01*
X52345Y79726D01*
X54967Y80812D01*
X57220Y82540D01*
X58948Y84792D01*
X60034Y87415D01*
X60405Y90230D01*
Y97730D01*
X60034Y100545D01*
X58948Y103168D01*
X57220Y105420D01*
X54967Y107148D01*
X52345Y108235D01*
X49530Y108605D01*
D02*
G37*
G36*
X99050Y89112D02*
X96530D01*
X94095Y88460D01*
X91913Y87200D01*
X90131Y85417D01*
X88870Y83235D01*
X88218Y80800D01*
Y78280D01*
X88870Y75845D01*
X90131Y73663D01*
X91913Y71881D01*
X94095Y70620D01*
X96530Y69968D01*
X99050D01*
X101485Y70620D01*
X103667Y71881D01*
X105449Y73663D01*
X106710Y75845D01*
X107362Y78280D01*
Y80800D01*
X106710Y83235D01*
X105449Y85417D01*
X103667Y87200D01*
X101485Y88460D01*
X99050Y89112D01*
D02*
G37*
%LPD*%
D17*
X912876Y180254D02*
D03*
Y201254D02*
D03*
D18*
Y239636D02*
D03*
Y222136D02*
D03*
X674370Y101460D02*
D03*
X493014Y137554D02*
D03*
X452120D02*
D03*
X674370Y83960D02*
D03*
X513189Y155165D02*
D03*
Y137665D02*
D03*
X493014Y155054D02*
D03*
X452120D02*
D03*
X471932Y155168D02*
D03*
X674370Y64630D02*
D03*
Y47130D02*
D03*
X471932Y137668D02*
D03*
D19*
X912876Y353482D02*
D03*
Y374482D02*
D03*
D20*
X652272Y142620D02*
D03*
X510032Y29844D02*
D03*
X484632D02*
D03*
X892810Y356110D02*
D03*
X784860Y65280D02*
D03*
X652272Y126620D02*
D03*
X484632Y13844D02*
D03*
X510032D02*
D03*
X505968Y236094D02*
D03*
Y252094D02*
D03*
X431800Y160910D02*
D03*
X373380Y272290D02*
D03*
Y251460D02*
D03*
X784860Y81280D02*
D03*
X892810Y372110D02*
D03*
X431800Y176910D02*
D03*
X373380Y288290D02*
D03*
Y235460D02*
D03*
D21*
X633158Y157739D02*
D03*
Y170439D02*
D03*
Y246639D02*
D03*
X538152D02*
D03*
Y170439D02*
D03*
X633158Y183139D02*
D03*
Y195839D02*
D03*
Y208539D02*
D03*
Y221239D02*
D03*
Y233939D02*
D03*
X538152Y157739D02*
D03*
Y183139D02*
D03*
Y195839D02*
D03*
Y208539D02*
D03*
Y221239D02*
D03*
Y233939D02*
D03*
D22*
X447040Y47476D02*
D03*
Y12976D02*
D03*
D23*
X865746Y115316D02*
D03*
X464452Y267716D02*
D03*
X481952D02*
D03*
X730390Y105410D02*
D03*
X747890D02*
D03*
X848246Y115316D02*
D03*
D24*
X656693Y101702D02*
D03*
X637183Y92202D02*
D03*
D25*
X481582Y247396D02*
D03*
X465582D02*
D03*
D26*
X508965Y202006D02*
D03*
Y195656D02*
D03*
X455854Y189306D02*
D03*
Y195656D02*
D03*
X508965Y189306D02*
D03*
X455854Y221056D02*
D03*
Y214706D02*
D03*
Y208356D02*
D03*
Y202006D02*
D03*
Y182956D02*
D03*
Y176606D02*
D03*
X508965Y221056D02*
D03*
Y214706D02*
D03*
Y208356D02*
D03*
Y182956D02*
D03*
Y176606D02*
D03*
D27*
X332060Y233680D02*
D03*
X353060D02*
D03*
X332400Y287910D02*
D03*
X353400D02*
D03*
D28*
X309880Y247240D02*
D03*
Y275240D02*
D03*
D29*
X448310Y306070D02*
D03*
X269240Y367030D02*
D03*
X449580D02*
D03*
X513080D02*
D03*
X511810Y306070D02*
D03*
X360680Y367030D02*
D03*
X424180D02*
D03*
X332740D02*
D03*
D30*
X656693Y82702D02*
D03*
D31*
X848020Y135890D02*
D03*
X869020D02*
D03*
D32*
X552450Y368300D02*
D03*
Y304800D02*
D03*
D55*
X889000Y180086D02*
X912708D01*
X912876Y239636D02*
Y250444D01*
Y201254D02*
Y222136D01*
X633158Y246639D02*
X633287Y246510D01*
X644522D02*
X644652Y246380D01*
X633287Y246510D02*
X644522D01*
X633414Y170183D02*
X649983D01*
X650240Y169926D01*
X633158Y170439D02*
X633414Y170183D01*
X892810Y356110D02*
X893064Y355856D01*
Y343154D02*
Y355856D01*
X865632Y115202D02*
X865746Y115316D01*
X865632Y101854D02*
Y115202D01*
X674370Y101460D02*
Y111506D01*
X784860Y52324D02*
Y65280D01*
X652272Y116078D02*
Y126620D01*
X656693Y101702D02*
X674128D01*
X674370Y101460D01*
X664718Y161362D02*
X720670Y105410D01*
X664718Y161362D02*
Y233426D01*
X720670Y105410D02*
X730390D01*
X657781Y157414D02*
X688848Y126347D01*
Y125984D02*
Y126347D01*
X664718Y233680D02*
Y278326D01*
X669865Y283473D01*
X711717D01*
X642290Y195839D02*
X651939Y205488D01*
X645001Y233938D02*
X645002Y233937D01*
X657781Y157414D02*
Y299621D01*
X651939Y205488D02*
Y318945D01*
X633159Y233938D02*
X645001D01*
X651939Y318945D02*
X672875Y339881D01*
X657781Y299621D02*
X676946Y318786D01*
X672875Y340115D02*
X679470Y346710D01*
X672875Y339881D02*
Y340115D01*
X679470Y346710D02*
X699770D01*
X689102Y60862D02*
Y97790D01*
X675370Y47130D02*
X689102Y60862D01*
X711717Y283473D02*
X749554Y321310D01*
X852170D01*
X633158Y195839D02*
X642290D01*
X617218Y189946D02*
X624025Y183139D01*
X617218Y189946D02*
Y307026D01*
X682302Y372110D01*
X633158Y233939D02*
X633159Y233938D01*
X676946Y318786D02*
X695690D01*
X696468Y318008D02*
X699770Y321310D01*
X695690Y318786D02*
X696468Y318008D01*
X505714Y252348D02*
Y266192D01*
Y252348D02*
X505968Y252094D01*
X506095Y221056D02*
X508965D01*
X505968Y221183D02*
X506095Y221056D01*
X505968Y221183D02*
Y236094D01*
X453136Y247904D02*
X465074D01*
X465582Y247396D01*
X452374Y268224D02*
X463944D01*
X464452Y267716D01*
X448310Y306070D02*
X468019D01*
X481952Y267716D02*
Y292138D01*
X468019Y306070D02*
X481952Y292138D01*
X464876Y195656D02*
X481582Y212362D01*
X455854Y195656D02*
X464876D01*
X481582Y212362D02*
Y247396D01*
Y267346D01*
X481952Y267716D01*
X455854Y189306D02*
X470154D01*
X495300Y201930D02*
X501802D01*
X538023Y246510D02*
X538152Y246639D01*
X523240Y246380D02*
X523370Y246510D01*
X538023D01*
X495262Y195667D02*
X495271Y195658D01*
X508963D01*
X387350Y272288D02*
Y272290D01*
X373380D02*
X387350D01*
Y251460D02*
Y251460D01*
X373380D02*
X387350D01*
X537783Y170070D02*
X538152Y170439D01*
X508963Y195658D02*
X508965Y195656D01*
X522808Y170070D02*
X537783D01*
X521716Y169571D02*
X522309D01*
X522808Y170070D01*
X493014Y125222D02*
Y137554D01*
X470154Y189230D02*
Y189306D01*
X431546Y160656D02*
X431800Y160910D01*
X452374Y124714D02*
Y137300D01*
X452120Y137554D02*
X452374Y137300D01*
X431546Y149352D02*
Y160656D01*
X493014Y176027D02*
X499943Y182956D01*
X508965D01*
X424023Y214706D02*
X455854D01*
X476777Y168052D02*
X498031Y189306D01*
X508965D01*
X848133Y115429D02*
Y135777D01*
X852170Y168910D02*
X869020Y152060D01*
Y135890D02*
Y152060D01*
X656693Y82702D02*
X673112D01*
X674370Y83960D01*
X784860Y81280D02*
X787400Y83820D01*
X808200D01*
X748030Y54610D02*
X773820Y28820D01*
X808200D01*
X748030Y54610D02*
Y105270D01*
X747890Y105410D02*
X748030Y105270D01*
X674370Y47130D02*
X675370D01*
X674370Y64630D02*
Y83960D01*
X682302Y372110D02*
X699770D01*
X624025Y183139D02*
X633158D01*
X472932Y124206D02*
X482838Y114300D01*
X499618D02*
X508344Y123026D01*
X482838Y114300D02*
X499618D01*
X508344Y123026D02*
Y133820D01*
X472932Y124206D02*
Y136668D01*
X471932Y137668D02*
X472932Y136668D01*
X512189Y137665D02*
X514189D01*
X529542Y157739D02*
X538152D01*
X528651Y156848D02*
X529542Y157739D01*
X528651Y152126D02*
Y156848D01*
X514189Y137665D02*
X528651Y152126D01*
X508344Y133820D02*
X512189Y137665D01*
X538152Y157739D02*
X547285D01*
X554092Y164546D01*
Y214432D01*
X547285Y221239D02*
X554092Y214432D01*
X538152Y221239D02*
X547285D01*
X455854Y176606D02*
X455892Y176568D01*
X469862D01*
X469900Y176530D01*
X522989Y190323D02*
X523246D01*
X528762Y195839D01*
X538152D01*
X508965Y176606D02*
X521965D01*
X528498Y183139D01*
X538152D01*
X508965Y221056D02*
X537970D01*
X513079Y155054D02*
X513189Y155165D01*
X493014Y155054D02*
X513079D01*
X493014D02*
Y176027D01*
X476777Y159013D02*
Y168052D01*
X452120Y155054D02*
X452234Y155168D01*
X471932D01*
X472932D02*
X476777Y159013D01*
X403270Y235460D02*
X424023Y214706D01*
X373380Y235460D02*
X403270D01*
X371600Y233680D02*
X373380Y235460D01*
X353060Y233680D02*
X371600D01*
X448818Y221056D02*
X455854D01*
X386179Y283695D02*
X448818Y221056D01*
X377975Y283695D02*
X386179D01*
X373380Y288290D02*
X377975Y283695D01*
X373000Y287910D02*
X373380Y288290D01*
X353400Y287910D02*
X373000D01*
X431800Y176910D02*
X432300D01*
X438346Y182956D01*
X455854D01*
D56*
X889000Y54102D02*
Y180086D01*
Y290576D01*
X848606Y13708D02*
X889000Y54102D01*
X689348Y13708D02*
X848606D01*
X517904Y27456D02*
X527250D01*
X540998Y13708D02*
X689348D01*
X527250Y27456D02*
X540998Y13708D01*
X269240Y289814D02*
X284102Y274952D01*
Y129032D02*
Y274952D01*
X365658Y47476D02*
X447040D01*
Y47476D02*
X467000D01*
X284102Y129032D02*
X365658Y47476D01*
X269240Y289814D02*
Y319480D01*
X484632Y29844D02*
X510032D01*
X511452Y28424D02*
X516936D01*
X517904Y27456D01*
X510032Y29844D02*
X511452Y28424D01*
X467000Y47476D02*
X482712Y31764D01*
Y31264D02*
Y31764D01*
X484132Y29844D02*
X484632D01*
X482712Y31264D02*
X484132Y29844D01*
X510158Y13970D02*
X523494D01*
X484506D02*
X484632Y13844D01*
X510032D02*
X510158Y13970D01*
X470154D02*
X484506D01*
X445040Y12976D02*
X447040D01*
X430476Y27540D02*
X445040Y12976D01*
X391790Y27540D02*
X430476D01*
X895182Y374482D02*
X912876D01*
X892810Y372110D02*
X895182Y374482D01*
X852170Y372110D02*
X892810D01*
D57*
X912876Y339034D02*
Y353482D01*
X889000Y315158D02*
X912876Y339034D01*
X889000Y290576D02*
Y315158D01*
X652272Y142620D02*
X658034D01*
X633158Y157739D02*
X640410D01*
X649082Y149067D01*
Y145310D02*
X651772Y142620D01*
X649082Y145310D02*
Y149067D01*
X699770Y24130D02*
Y100838D01*
X665114Y135494D02*
X699770Y100838D01*
X689348Y13708D02*
X699770Y24130D01*
X658034Y142620D02*
X665114Y135540D01*
Y135494D02*
Y135540D01*
X297688Y142748D02*
X374904Y65532D01*
X606845D02*
X632717Y91404D01*
X374904Y65532D02*
X606845D01*
X848133Y115429D02*
X848246Y115316D01*
X848020Y135890D02*
X848133Y135777D01*
X269240Y224080D02*
Y255270D01*
X236220Y288290D02*
Y335280D01*
Y288290D02*
X269240Y255270D01*
X511810Y306070D02*
X513080Y304800D01*
X552450D01*
X514350Y368300D02*
X552450D01*
X513080Y367030D02*
X514350Y368300D01*
X424180Y367030D02*
X449580D01*
X332740D02*
X360680D01*
X182368Y242364D02*
X200660Y260656D01*
Y314960D02*
X249754Y364054D01*
X200660Y260656D02*
Y314960D01*
X249754Y364054D02*
X266264D01*
X117341Y243067D02*
X118044Y242364D01*
X107640Y245340D02*
X109913Y243067D01*
X117341D01*
X118044Y242364D02*
X182368D01*
X266264Y364054D02*
X269240Y367030D01*
D58*
X865970Y346710D02*
D03*
X685970Y372110D02*
D03*
Y346710D02*
D03*
Y321310D02*
D03*
Y295910D02*
D03*
Y270510D02*
D03*
Y245110D02*
D03*
Y219710D02*
D03*
Y194310D02*
D03*
X686238Y168910D02*
D03*
X865970Y372110D02*
D03*
Y321310D02*
D03*
Y295910D02*
D03*
Y270510D02*
D03*
Y245110D02*
D03*
Y219710D02*
D03*
Y194310D02*
D03*
X866238Y168910D02*
D03*
D59*
X269240Y319480D02*
D03*
Y224080D02*
D03*
D60*
X227640Y367340D02*
D03*
X167640Y387340D02*
D03*
X107640Y245340D02*
D03*
X227640D02*
D03*
X107640Y367340D02*
D03*
D61*
X852170Y346710D02*
D03*
X699770Y372110D02*
D03*
Y346710D02*
D03*
Y321310D02*
D03*
Y295910D02*
D03*
Y270510D02*
D03*
Y245110D02*
D03*
Y219710D02*
D03*
Y194310D02*
D03*
Y168910D02*
D03*
X852170Y372110D02*
D03*
Y321310D02*
D03*
Y295910D02*
D03*
Y270510D02*
D03*
Y245110D02*
D03*
Y219710D02*
D03*
Y194310D02*
D03*
Y168910D02*
D03*
D62*
X838200Y28820D02*
D03*
Y83820D02*
D03*
X808200D02*
D03*
Y28820D02*
D03*
D63*
X722630Y54610D02*
D03*
X49530Y93980D02*
D03*
X30480Y307340D02*
D03*
X24130Y93980D02*
D03*
X748030Y54610D02*
D03*
X55880Y307340D02*
D03*
D64*
X391790Y181540D02*
D03*
X97790Y79540D02*
D03*
X391790Y27540D02*
D03*
D65*
X97790Y129540D02*
D03*
D66*
X912876Y250444D02*
D03*
X644652Y246380D02*
D03*
X733504Y291386D02*
D03*
X746554Y328247D02*
D03*
X650240Y169926D02*
D03*
X778510Y328247D02*
D03*
X763270Y292100D02*
D03*
Y231140D02*
D03*
X748030Y200660D02*
D03*
X824230Y292100D02*
D03*
X808990Y261620D02*
D03*
X470154Y13970D02*
D03*
X824230Y231140D02*
D03*
X808990Y200660D02*
D03*
X778510Y261620D02*
D03*
X793750Y353060D02*
D03*
X865632Y101854D02*
D03*
X763270Y353060D02*
D03*
X717550Y322580D02*
D03*
X793750Y231140D02*
D03*
X778510Y200660D02*
D03*
X732790Y353060D02*
D03*
X824230D02*
D03*
X523494Y13970D02*
D03*
X893064Y343154D02*
D03*
X784860Y52324D02*
D03*
X674370Y111506D02*
D03*
X652272Y116078D02*
D03*
X688848Y125984D02*
D03*
X664718Y233426D02*
D03*
X645002Y233937D02*
D03*
X689102Y97790D02*
D03*
X505714Y266192D02*
D03*
X453136Y247904D02*
D03*
X452374Y268224D02*
D03*
X523240Y246380D02*
D03*
X495300Y201930D02*
D03*
X387350Y272288D02*
D03*
Y251460D02*
D03*
X521716Y169571D02*
D03*
X495262Y195667D02*
D03*
X493014Y125222D02*
D03*
X470154Y189230D02*
D03*
X452374Y124714D02*
D03*
X431546Y149352D02*
D03*
X337820Y251460D02*
D03*
X330200D02*
D03*
X322580D02*
D03*
Y243840D02*
D03*
X337820D02*
D03*
X330200Y236220D02*
D03*
X337820D02*
D03*
X330200Y243840D02*
D03*
X322580Y236220D02*
D03*
X314960Y251460D02*
D03*
X307340D02*
D03*
Y243840D02*
D03*
X299720D02*
D03*
Y251460D02*
D03*
X314960Y236220D02*
D03*
Y243840D02*
D03*
Y228600D02*
D03*
X307340Y236220D02*
D03*
X299720D02*
D03*
X307340Y228600D02*
D03*
X337820D02*
D03*
X330200Y220980D02*
D03*
X337820D02*
D03*
X330200Y228600D02*
D03*
X322580D02*
D03*
Y220980D02*
D03*
X337820Y213360D02*
D03*
X330200Y205740D02*
D03*
X337820D02*
D03*
X330200Y213360D02*
D03*
X322580D02*
D03*
Y205740D02*
D03*
X314960Y220980D02*
D03*
X307340D02*
D03*
Y213360D02*
D03*
X299720Y220980D02*
D03*
Y228600D02*
D03*
Y213360D02*
D03*
X314960D02*
D03*
X307340Y205740D02*
D03*
X314960D02*
D03*
X299902Y205922D02*
D03*
X297688Y142748D02*
D03*
X469900Y176530D02*
D03*
X522989Y190323D02*
D03*
X299720Y294640D02*
D03*
Y302260D02*
D03*
Y287020D02*
D03*
Y325120D02*
D03*
Y317500D02*
D03*
Y309880D02*
D03*
X307340Y294640D02*
D03*
Y287020D02*
D03*
Y302260D02*
D03*
Y309880D02*
D03*
Y317500D02*
D03*
X236220Y335280D02*
D03*
X307340Y325120D02*
D03*
X314960D02*
D03*
X322580D02*
D03*
X330200D02*
D03*
X337820D02*
D03*
Y317500D02*
D03*
X330200D02*
D03*
X322580D02*
D03*
X314960D02*
D03*
Y302260D02*
D03*
X322580D02*
D03*
X330200D02*
D03*
X337820D02*
D03*
Y309880D02*
D03*
X330200D02*
D03*
X322580D02*
D03*
X314960D02*
D03*
Y287020D02*
D03*
X322580D02*
D03*
X330200D02*
D03*
X337820D02*
D03*
Y294640D02*
D03*
X330200D02*
D03*
X322580D02*
D03*
X314960D02*
D03*
M02*
