G04*
G04 #@! TF.GenerationSoftware,Altium Limited,Altium Designer,26.10.1 (5)*
G04*
G04 Layer_Color=8388736*
G04 Board_Origin=17350000|28099997*
%FSLAX44Y44*%
%MOMM*%
G71*
G04*
G04 #@! TF.SameCoordinates,4052EFD6-7243-4EC4-BE30-6AAA83A439E8*
G04*
G04*
G04 #@! TF.FilePolarity,Negative*
G04*
G01*
G75*
G04:AMPARAMS|DCode=24|XSize=1.6552mm|YSize=0.6025mm|CornerRadius=0.3012mm|HoleSize=0mm|Usage=FLASHONLY|Rotation=180.000|XOffset=0mm|YOffset=0mm|HoleType=Round|Shape=RoundedRectangle|*
%AMROUNDEDRECTD24*
21,1,1.6552,0.0000,0,0,180.0*
21,1,1.0528,0.6025,0,0,180.0*
1,1,0.6025,-0.5264,0.0000*
1,1,0.6025,0.5264,0.0000*
1,1,0.6025,0.5264,0.0000*
1,1,0.6025,-0.5264,0.0000*
%
%ADD24ROUNDEDRECTD24*%
%ADD30R,1.6552X0.6025*%
%ADD33R,2.9310X1.5494*%
%ADD34R,1.3500X1.3500*%
%ADD35R,1.5000X1.3000*%
%ADD36R,1.3500X1.0500*%
%ADD37R,1.5500X1.4500*%
%ADD38O,2.5021X0.6756*%
%ADD39R,1.8000X1.4000*%
%ADD40R,1.3000X1.5000*%
%ADD41R,1.4500X1.5500*%
%ADD42O,1.9636X0.5056*%
%ADD43R,1.0500X1.3500*%
%ADD44R,1.8000X1.3500*%
%ADD45R,1.7500X3.8000*%
%ADD46R,1.3500X1.3500*%
%ADD47R,3.8000X1.7500*%
%ADD48C,1.7000*%
%ADD49C,2.1000*%
%ADD50C,1.8500*%
%ADD51C,1.7500*%
%ADD52O,1.9000X2.6500*%
%ADD53C,1.6580*%
%ADD54R,1.6580X1.6580*%
D24*
X656693Y101702D02*
D03*
X637183Y92202D02*
D03*
D30*
X656693Y82702D02*
D03*
D33*
X865625Y168885D02*
D03*
Y194285D02*
D03*
Y219685D02*
D03*
Y245085D02*
D03*
Y270485D02*
D03*
Y295885D02*
D03*
Y321285D02*
D03*
Y346685D02*
D03*
Y372085D02*
D03*
X686315Y168935D02*
D03*
Y194335D02*
D03*
Y219735D02*
D03*
Y245135D02*
D03*
Y270535D02*
D03*
Y295935D02*
D03*
Y321335D02*
D03*
Y346735D02*
D03*
Y372135D02*
D03*
D34*
X912876Y180254D02*
D03*
Y201254D02*
D03*
D35*
Y239636D02*
D03*
Y222136D02*
D03*
X674370Y101460D02*
D03*
X493014Y137554D02*
D03*
X452120D02*
D03*
X674370Y83960D02*
D03*
X513189Y155165D02*
D03*
Y137665D02*
D03*
X493014Y155054D02*
D03*
X452120D02*
D03*
X471932Y155168D02*
D03*
X674370Y64630D02*
D03*
Y47130D02*
D03*
X471932Y137668D02*
D03*
D36*
X912876Y353482D02*
D03*
Y374482D02*
D03*
D37*
X652272Y142620D02*
D03*
X510032Y29844D02*
D03*
X484632D02*
D03*
X892810Y356110D02*
D03*
X784860Y65280D02*
D03*
X652272Y126620D02*
D03*
X484632Y13844D02*
D03*
X510032D02*
D03*
X505968Y236094D02*
D03*
Y252094D02*
D03*
X431800Y160910D02*
D03*
X373380Y272290D02*
D03*
Y251460D02*
D03*
X784860Y81280D02*
D03*
X892810Y372110D02*
D03*
X431800Y176910D02*
D03*
X373380Y288290D02*
D03*
Y235460D02*
D03*
D38*
X633158Y157739D02*
D03*
Y170439D02*
D03*
Y246639D02*
D03*
X538152D02*
D03*
Y170439D02*
D03*
X633158Y183139D02*
D03*
Y195839D02*
D03*
Y208539D02*
D03*
Y221239D02*
D03*
Y233939D02*
D03*
X538152Y157739D02*
D03*
Y183139D02*
D03*
Y195839D02*
D03*
Y208539D02*
D03*
Y221239D02*
D03*
Y233939D02*
D03*
D39*
X447040Y47476D02*
D03*
Y12976D02*
D03*
D40*
X865746Y115316D02*
D03*
X464452Y267716D02*
D03*
X481952D02*
D03*
X730390Y105410D02*
D03*
X747890D02*
D03*
X848246Y115316D02*
D03*
D41*
X481582Y247396D02*
D03*
X465582D02*
D03*
D42*
X508965Y202006D02*
D03*
Y195656D02*
D03*
X455854Y189306D02*
D03*
Y195656D02*
D03*
X508965Y189306D02*
D03*
X455854Y221056D02*
D03*
Y214706D02*
D03*
Y208356D02*
D03*
Y202006D02*
D03*
Y182956D02*
D03*
Y176606D02*
D03*
X508965Y221056D02*
D03*
Y214706D02*
D03*
Y208356D02*
D03*
Y182956D02*
D03*
Y176606D02*
D03*
D43*
X332060Y233680D02*
D03*
X353060D02*
D03*
X332400Y287910D02*
D03*
X353400D02*
D03*
D44*
X309880Y247240D02*
D03*
Y275240D02*
D03*
D45*
X448310Y306070D02*
D03*
X269240Y367030D02*
D03*
X449580D02*
D03*
X513080D02*
D03*
X511810Y306070D02*
D03*
X360680Y367030D02*
D03*
X424180D02*
D03*
X332740D02*
D03*
D46*
X848020Y135890D02*
D03*
X869020D02*
D03*
D47*
X552450Y368300D02*
D03*
Y304800D02*
D03*
D48*
X269240Y319480D02*
D03*
Y224080D02*
D03*
D49*
X227640Y367340D02*
D03*
X167640Y387340D02*
D03*
X107640Y245340D02*
D03*
X227640D02*
D03*
X107640Y367340D02*
D03*
D50*
X852170Y346710D02*
D03*
X699770Y372110D02*
D03*
Y346710D02*
D03*
Y321310D02*
D03*
Y295910D02*
D03*
Y270510D02*
D03*
Y245110D02*
D03*
Y219710D02*
D03*
Y194310D02*
D03*
Y168910D02*
D03*
X852170Y372110D02*
D03*
Y321310D02*
D03*
Y295910D02*
D03*
Y270510D02*
D03*
Y245110D02*
D03*
Y219710D02*
D03*
Y194310D02*
D03*
Y168910D02*
D03*
D51*
X838200Y28820D02*
D03*
Y83820D02*
D03*
X808200D02*
D03*
Y28820D02*
D03*
D52*
X722630Y54610D02*
D03*
X49530Y93980D02*
D03*
X30480Y307340D02*
D03*
X24130Y93980D02*
D03*
X748030Y54610D02*
D03*
X55880Y307340D02*
D03*
D53*
X391790Y181540D02*
D03*
X97790Y79540D02*
D03*
X391790Y27540D02*
D03*
D54*
X97790Y129540D02*
D03*
M02*
